<?xml version="1.0" encoding="utf-8"?>
<!-- Generator: Adobe Illustrator 15.0.0, SVG Export Plug-In . SVG Version: 6.00 Build 0)  -->
<!DOCTYPE svg PUBLIC "-//W3C//DTD SVG 1.1//EN" "http://www.w3.org/Graphics/SVG/1.1/DTD/svg11.dtd">
<svg version="1.1" id="Layer_1" xmlns="http://www.w3.org/2000/svg" xmlns:xlink="http://www.w3.org/1999/xlink" x="0px" y="0px"
	 width="24px" height="24px" viewBox="0 0 24 24" enable-background="new 0 0 24 24" xml:space="preserve">
<path d="M12.274,20.281"/>
<path fill="#010101" d="M21.712,5.821c0.387,0,0.69-0.346,0.69-0.73V0.903c0-0.382-0.304-0.699-0.69-0.699H16.13
	c-0.385,0-0.696,0.315-0.696,0.698l-0.002,6.299l1.395-1.38H21.712z M17.489,2.578c0-0.446,0.128-0.811,0.395-1.096
	c0.271-0.286,0.617-0.429,1.049-0.429c0.454,0,0.807,0.117,1.06,0.349c0.259,0.233,0.379,0.52,0.373,0.922L20.361,2.31h-0.717
	c0-0.141-0.059-0.398-0.175-0.526c-0.114-0.129-0.296-0.179-0.541-0.179c-0.221,0-0.404,0.097-0.534,0.277
	c-0.131,0.177-0.203,0.414-0.203,0.691v0.732c0,0.281,0.076,0.51,0.213,0.688c0.134,0.179,0.325,0.269,0.557,0.269
	c0.232,0,0.4-0.038,0.513-0.161c0.108-0.124,0.169-0.385,0.169-0.527h0.713l0.006-0.008c0.006,0.394-0.114,0.695-0.365,0.927
	c-0.244,0.231-0.59,0.341-1.029,0.341c-0.442,0-0.798-0.145-1.071-0.429c-0.276-0.284-0.406-0.653-0.406-1.1V2.578z"/>
<path fill="#010101" d="M11.869,20.797v0.623h0.422v-0.626c0.42-0.038,0.709-0.163,0.928-0.38c0.222-0.215,0.348-0.5,0.348-0.86
	c0-0.364-0.104-0.649-0.321-0.855c-0.221-0.204-0.552-0.395-1.008-0.574c-0.247-0.098-0.412-0.193-0.504-0.294
	c-0.093-0.102-0.137-0.23-0.137-0.391c0-0.17,0.043-0.306,0.128-0.408c0.087-0.102,0.218-0.152,0.398-0.152
	c0.173,0,0.31,0.06,0.409,0.188c0.1,0.133,0.152,0.273,0.152,0.557h0.877l0.01-0.009c0.002-0.397-0.085-0.718-0.296-0.965
	c-0.206-0.251-0.564-0.397-0.842-0.453v-0.682h-0.564v0.677c-0.281,0.038-0.646,0.168-0.867,0.389
	c-0.224,0.223-0.321,0.507-0.321,0.856c0,0.369,0.119,0.66,0.339,0.863c0.222,0.205,0.565,0.392,1.021,0.56
	c0.232,0.089,0.4,0.188,0.496,0.292c0.094,0.105,0.145,0.242,0.145,0.408c0,0.17-0.051,0.304-0.151,0.404
	c-0.099,0.1-0.243,0.149-0.43,0.149c-0.197,0-0.357-0.076-0.486-0.195c-0.125-0.12-0.188-0.329-0.188-0.611h-0.883l-0.005,0.031
	c-0.009,0.456,0.118,0.806,0.369,1.042C11.161,20.614,11.45,20.758,11.869,20.797"/>
<path fill="#010101" d="M12.065,9.923c1.143,0,2.058-0.923,2.058-2.065c0-1.142-0.915-2.063-2.058-2.063
	c-1.144,0-2.067,0.921-2.067,2.063C9.998,9,10.921,9.923,12.065,9.923"/>
<path fill="#010101" d="M20.346,7.52c-1.145,0-2.058,0.923-2.058,2.065c0,1.144,0.913,2.066,2.058,2.066
	c1.142,0,2.064-0.923,2.064-2.066C22.41,8.443,21.487,7.52,20.346,7.52"/>
<path fill="#010101" d="M20.298,12.946c-0.992,0-1.824,0.808-1.824,1.801v3.438h-1.409v-5.06h-1.513
	c-0.485-1.264-2.438-1.829-3.472-1.829c-1.031,0-2.982,0.565-3.47,1.829H6.953v5.06H5.548v-3.438c0-0.993-0.763-1.801-1.758-1.801
	c-0.991,0-1.754,0.808-1.754,1.801v5.049c0,0.684,0.512,1.197,1.196,1.197H5.83v2.81h2.809h6.882h2.811v-2.81h2.564
	c0.685,0,1.228-0.514,1.228-1.197v-5.049C22.123,13.754,21.29,12.946,20.298,12.946 M15.38,21.842H8.782v-6.748h6.598V21.842z"/>
<path fill="#010101" d="M3.782,11.651c1.143,0,2.058-0.923,2.058-2.066c0-1.142-0.916-2.065-2.058-2.065S1.718,8.443,1.718,9.584
	C1.718,10.728,2.64,11.651,3.782,11.651"/>
</svg>
