<?xml version="1.0" encoding="utf-8"?>
<!-- Generator: Adobe Illustrator 15.0.0, SVG Export Plug-In . SVG Version: 6.00 Build 0)  -->
<!DOCTYPE svg PUBLIC "-//W3C//DTD SVG 1.1//EN" "http://www.w3.org/Graphics/SVG/1.1/DTD/svg11.dtd">
<svg version="1.1" id="Layer_1" xmlns="http://www.w3.org/2000/svg" xmlns:xlink="http://www.w3.org/1999/xlink" x="0px" y="0px"
	 width="24px" height="24px" viewBox="0 0 24 24" enable-background="new 0 0 24 24" xml:space="preserve">
<polygon fill="#010101" points="18.866,1.885 18.85,1.885 18.383,3.43 19.334,3.43 "/>
<path fill="#010101" d="M21.65,5.819c0.382,0,0.69-0.348,0.69-0.73V0.897c0-0.383-0.309-0.697-0.69-0.697h-5.586
	c-0.383,0-0.692,0.313-0.692,0.696L15.37,7.197l1.393-1.378H21.65z M18.472,1.042h0.773l1.298,3.792h-0.768l-0.254-0.841h-1.325
	l-0.258,0.841h-0.766L18.472,1.042z"/>
<path fill="#010101" d="M11.804,20.795v0.616h0.421V20.79c0.422-0.038,0.71-0.164,0.929-0.381c0.22-0.213,0.353-0.5,0.353-0.859
	c0-0.365-0.104-0.651-0.326-0.854c-0.222-0.206-0.553-0.396-1.008-0.575c-0.247-0.098-0.413-0.196-0.503-0.295
	c-0.093-0.101-0.138-0.231-0.138-0.392c0-0.17,0.044-0.305,0.13-0.406c0.087-0.104,0.218-0.155,0.397-0.155
	c0.174,0,0.31,0.059,0.409,0.192c0.1,0.131,0.151,0.272,0.151,0.556h0.884l0.009-0.01c0.003-0.398-0.089-0.715-0.298-0.964
	c-0.207-0.252-0.566-0.398-0.846-0.453v-0.683h-0.564v0.678c-0.281,0.037-0.646,0.168-0.867,0.39
	c-0.224,0.223-0.321,0.506-0.321,0.853c0,0.372,0.119,0.661,0.338,0.865c0.223,0.205,0.566,0.392,1.022,0.559
	c0.233,0.091,0.4,0.189,0.496,0.293c0.095,0.107,0.146,0.243,0.146,0.408c0,0.171-0.051,0.304-0.15,0.404
	c-0.1,0.1-0.244,0.149-0.432,0.149c-0.197,0-0.355-0.076-0.484-0.195c-0.126-0.119-0.188-0.33-0.188-0.61h-0.882l-0.005,0.031
	c-0.009,0.455,0.118,0.806,0.369,1.041C11.097,20.608,11.384,20.754,11.804,20.795"/>
<path fill="#010101" d="M12,9.919c1.142,0,2.059-0.922,2.059-2.065c0-1.142-0.917-2.066-2.059-2.066S9.932,6.712,9.932,7.854
	C9.932,8.997,10.857,9.919,12,9.919"/>
<path fill="#010101" d="M20.282,7.516c-1.146,0-2.06,0.923-2.06,2.065c0,1.143,0.914,2.067,2.06,2.067
	c1.143,0,2.065-0.925,2.065-2.067C22.348,8.439,21.425,7.516,20.282,7.516"/>
<path fill="#010101" d="M20.231,12.943c-0.99,0-1.825,0.807-1.825,1.798v3.44h-1.403v-5.059h-1.516
	c-0.486-1.265-2.441-1.832-3.472-1.832c-1.031,0-2.986,0.567-3.472,1.832H6.887v5.059H5.484v-3.44c0-0.991-0.764-1.798-1.757-1.798
	s-1.755,0.807-1.755,1.798v5.051c0,0.685,0.512,1.198,1.198,1.198h2.595v2.81h2.808h6.883h2.809v-2.81h2.566
	c0.685,0,1.229-0.514,1.229-1.198v-5.051C22.061,13.75,21.228,12.943,20.231,12.943 M15.316,21.83h-6.6v-6.741h6.6V21.83z"/>
<path fill="#010101" d="M3.718,11.648c1.142,0,2.057-0.925,2.057-2.067c0-1.142-0.915-2.065-2.057-2.065
	c-1.143,0-2.065,0.923-2.065,2.065C1.653,10.724,2.575,11.648,3.718,11.648"/>
</svg>
