<?xml version="1.0" encoding="utf-8"?>
<!-- Generator: Adobe Illustrator 15.0.0, SVG Export Plug-In . SVG Version: 6.00 Build 0)  -->
<!DOCTYPE svg PUBLIC "-//W3C//DTD SVG 1.1//EN" "http://www.w3.org/Graphics/SVG/1.1/DTD/svg11.dtd">
<svg version="1.1" id="Layer_1" xmlns="http://www.w3.org/2000/svg" xmlns:xlink="http://www.w3.org/1999/xlink" x="0px" y="0px"
	 width="24px" height="24px" viewBox="0 0 24 24" enable-background="new 0 0 24 24" xml:space="preserve">
<path fill="#010101" d="M19.41,3.982c0.155-0.183,0.263-0.438,0.263-0.732V2.62c0-0.292-0.107-0.544-0.263-0.727
	c-0.153-0.184-0.395-0.29-0.665-0.29h-0.477v2.67h0.477C19.016,4.273,19.257,4.166,19.41,3.982"/>
<path fill="#010101" d="M21.649,5.819c0.385,0,0.691-0.348,0.691-0.73V0.897c0-0.383-0.307-0.697-0.691-0.697h-5.583
	c-0.385,0-0.696,0.313-0.696,0.696l-0.002,6.301l1.394-1.378H21.649z M17.425,1.042h1.355c0.463,0,0.844,0.152,1.144,0.446
	s0.448,0.677,0.448,1.138v0.626c0,0.462-0.148,0.845-0.448,1.139c-0.3,0.292-0.681,0.443-1.144,0.443h-1.355V1.042z"/>
<path fill="#010101" d="M11.806,20.795v0.616h0.422V20.79c0.423-0.038,0.712-0.164,0.933-0.381c0.219-0.213,0.343-0.5,0.343-0.859
	c0-0.365-0.104-0.651-0.321-0.854c-0.219-0.206-0.554-0.396-1.007-0.575c-0.248-0.098-0.413-0.196-0.504-0.295
	c-0.093-0.101-0.137-0.231-0.137-0.392c0-0.17,0.043-0.305,0.129-0.406c0.087-0.104,0.218-0.155,0.398-0.155
	c0.173,0,0.309,0.059,0.408,0.192c0.1,0.131,0.149,0.272,0.149,0.556h0.881l0.008-0.01c0.002-0.398-0.091-0.715-0.298-0.964
	c-0.205-0.252-0.559-0.398-0.84-0.453v-0.683h-0.563v0.678c-0.281,0.037-0.647,0.168-0.868,0.39
	c-0.224,0.223-0.322,0.506-0.322,0.853c0,0.372,0.12,0.661,0.339,0.865c0.222,0.205,0.566,0.392,1.022,0.559
	c0.232,0.091,0.4,0.189,0.496,0.293c0.095,0.107,0.144,0.243,0.144,0.408c0,0.171-0.049,0.304-0.148,0.404
	c-0.1,0.1-0.244,0.149-0.431,0.149c-0.197,0-0.357-0.076-0.486-0.195c-0.126-0.119-0.188-0.33-0.188-0.61h-0.882l-0.005,0.031
	c-0.009,0.455,0.117,0.806,0.368,1.041C11.097,20.608,11.385,20.754,11.806,20.795"/>
<path fill="#010101" d="M12,9.919c1.148,0,2.059-0.922,2.059-2.065c0-1.142-0.91-2.066-2.059-2.066
	c-1.143,0-2.067,0.924-2.067,2.066C9.933,8.997,10.857,9.919,12,9.919"/>
<path fill="#010101" d="M20.282,7.516c-1.144,0-2.056,0.923-2.056,2.065c0,1.143,0.912,2.067,2.056,2.067
	c1.143,0,2.064-0.925,2.064-2.067C22.347,8.439,21.425,7.516,20.282,7.516"/>
<path fill="#010101" d="M20.235,12.943c-0.992,0-1.828,0.807-1.828,1.798v3.44h-1.404v-5.059h-1.515
	c-0.486-1.265-2.437-1.832-3.474-1.832c-1.031,0-2.983,0.567-3.47,1.832H6.888v5.059H5.483v-3.44c0-0.991-0.764-1.798-1.756-1.798
	c-0.995,0-1.755,0.807-1.755,1.798v5.051c0,0.685,0.512,1.198,1.195,1.198h2.598v2.81h2.808h6.883h2.812v-2.81h2.564
	c0.687,0,1.227-0.514,1.227-1.198v-5.051C22.06,13.75,21.229,12.943,20.235,12.943 M15.318,21.83H8.715v-6.741h6.603V21.83z"/>
<path fill="#010101" d="M3.719,11.648c1.142,0,2.058-0.925,2.058-2.067c0-1.142-0.916-2.065-2.058-2.065
	c-1.144,0-2.065,0.923-2.065,2.065C1.653,10.724,2.575,11.648,3.719,11.648"/>
</svg>
