<?xml version="1.0" encoding="utf-8"?>
<!-- Generator: Adobe Illustrator 15.0.0, SVG Export Plug-In . SVG Version: 6.00 Build 0)  -->
<!DOCTYPE svg PUBLIC "-//W3C//DTD SVG 1.1//EN" "http://www.w3.org/Graphics/SVG/1.1/DTD/svg11.dtd">
<svg version="1.1" id="Layer_1" xmlns="http://www.w3.org/2000/svg" xmlns:xlink="http://www.w3.org/1999/xlink" x="0px" y="0px"
	 width="24px" height="24px" viewBox="0 0 24 24" enable-background="new 0 0 24 24" xml:space="preserve">
<path fill="#010101" d="M6.418,15.001l1.555-1.557l-0.85-0.851c-0.429-0.428-0.429-1.126,0-1.556c0.43-0.429,1.128-0.429,1.556,0
	l3.756,3.756l1.557-1.558l-3.756-3.754c-1.288-1.288-3.382-1.288-4.672,0c-1.284,1.287-1.284,3.38,0,4.668L6.418,15.001z"/>
<path fill="#010101" d="M17.934,17.183l-1.557,1.557l0.853,0.85c0.431,0.429,0.431,1.126,0,1.557c-0.43,0.43-1.126,0.428-1.557,0
	l-3.756-3.755l-1.556,1.553l3.756,3.755c0.643,0.647,1.488,0.964,2.337,0.964c0.844,0,1.688-0.316,2.331-0.964
	c1.289-1.285,1.289-3.381,0-4.665L17.934,17.183z"/>
<path fill="#010101" d="M13.474,16.349l1.558,1.56l3.755-3.758c1.288-1.287,1.288-3.381,0-4.668c-1.287-1.288-3.382-1.288-4.669,0
	l-0.852,0.85l1.556,1.557l0.852-0.852c0.431-0.429,1.127-0.429,1.557,0c0.431,0.43,0.431,1.128,0,1.556L13.474,16.349z"/>
<path fill="#010101" d="M8.679,21.146c-0.428,0.428-1.126,0.428-1.556,0c-0.429-0.431-0.429-1.128,0-1.557l3.755-3.756l-1.556-1.557
	l-3.758,3.757c-1.284,1.284-1.284,3.38,0,4.665c0.646,0.647,1.49,0.964,2.337,0.964c0.845,0,1.691-0.316,2.334-0.964l0.854-0.848
	l-1.56-1.557L8.679,21.146z"/>
<path fill="#010101" d="M19.025,6.016c0.4,0,0.697-0.374,0.697-0.774V0.884c0-0.399-0.297-0.716-0.697-0.716h-5.811
	c-0.4,0-0.723,0.322-0.723,0.722l-0.003,6.557l1.454-1.431H19.025z M14.605,2.627c0-0.466,0.144-0.844,0.427-1.142
	c0.28-0.297,0.646-0.445,1.092-0.445c0.473,0,0.843,0.122,1.11,0.363c0.265,0.243,0.395,0.547,0.389,0.966L17.618,2.36h-0.747
	c0-0.145-0.061-0.42-0.182-0.553c-0.118-0.134-0.308-0.188-0.562-0.188c-0.229,0-0.433,0.099-0.568,0.282
	c-0.135,0.188-0.223,0.432-0.223,0.719v0.763c0,0.292,0.092,0.531,0.234,0.717c0.142,0.185,0.343,0.278,0.585,0.278
	c0.241,0,0.42-0.033,0.534-0.161c0.115-0.129,0.178-0.394,0.178-0.541h0.744l0.006-0.017c0.008,0.412-0.119,0.722-0.377,0.962
	c-0.258,0.242-0.616,0.354-1.074,0.354c-0.46,0-0.84-0.152-1.126-0.446c-0.287-0.296-0.436-0.68-0.436-1.146V2.627z"/>
</svg>
