<?xml version="1.0" encoding="utf-8"?>
<!-- Generator: Adobe Illustrator 15.0.0, SVG Export Plug-In . SVG Version: 6.00 Build 0)  -->
<!DOCTYPE svg PUBLIC "-//W3C//DTD SVG 1.1//EN" "http://www.w3.org/Graphics/SVG/1.1/DTD/svg11.dtd">
<svg version="1.1" id="Layer_1" xmlns="http://www.w3.org/2000/svg" xmlns:xlink="http://www.w3.org/1999/xlink" x="0px" y="0px"
	 width="24px" height="24px" viewBox="0 0 24 24" enable-background="new 0 0 24 24" xml:space="preserve">
<path fill="#010101" d="M6.383,15.001l1.556-1.557l-0.85-0.851c-0.43-0.428-0.43-1.126,0-1.556c0.429-0.429,1.127-0.429,1.555,0
	l3.756,3.756l1.555-1.558L10.2,9.482c-1.286-1.288-3.381-1.288-4.667,0c-1.288,1.287-1.288,3.38,0,4.668L6.383,15.001z"/>
<path fill="#010101" d="M17.899,17.183l-1.556,1.557l0.851,0.85c0.431,0.429,0.429,1.126,0,1.557c-0.426,0.43-1.127,0.428-1.555,0
	l-3.756-3.755l-1.558,1.553l3.757,3.755c0.645,0.647,1.488,0.964,2.336,0.964c0.843,0,1.688-0.316,2.333-0.964
	c1.287-1.285,1.287-3.381,0-4.665L17.899,17.183z"/>
<path fill="#010101" d="M13.438,16.349l1.556,1.56l3.758-3.758c1.287-1.287,1.287-3.381,0-4.668c-1.287-1.288-3.383-1.288-4.669,0
	l-0.852,0.85l1.556,1.557l0.853-0.852c0.428-0.429,1.129-0.429,1.555,0c0.431,0.43,0.431,1.128,0,1.556L13.438,16.349z"/>
<path fill="#010101" d="M8.644,21.146c-0.428,0.428-1.126,0.428-1.555,0c-0.43-0.431-0.43-1.128,0-1.557l3.755-3.756l-1.556-1.557
	l-3.755,3.757c-1.288,1.284-1.288,3.38,0,4.665c0.644,0.647,1.487,0.964,2.334,0.964c0.845,0,1.69-0.316,2.333-0.964l0.852-0.848
	l-1.556-1.557L8.644,21.146z"/>
<path fill="#010101" d="M16.636,4.1c0.16-0.19,0.251-0.464,0.251-0.771V2.673c0-0.303-0.091-0.558-0.251-0.748
	c-0.158-0.192-0.385-0.295-0.669-0.295h-0.543v2.778h0.543C16.251,4.408,16.478,4.288,16.636,4.1"/>
<path fill="#010101" d="M18.992,6.016c0.398,0,0.673-0.374,0.673-0.774V0.885c0-0.4-0.274-0.717-0.673-0.717h-5.811
	c-0.4,0-0.725,0.322-0.725,0.722l-0.002,6.557l1.452-1.431H18.992z M14.694,1.046h1.313c0.477,0,0.852,0.148,1.164,0.457
	c0.31,0.306,0.445,0.695,0.445,1.177V3.33c0,0.482-0.136,0.888-0.445,1.191c-0.313,0.306-0.688,0.471-1.164,0.471h-1.313V1.046z"/>
</svg>
