<?xml version="1.0" encoding="utf-8"?>
<!-- Generator: Adobe Illustrator 15.0.0, SVG Export Plug-In . SVG Version: 6.00 Build 0)  -->
<!DOCTYPE svg PUBLIC "-//W3C//DTD SVG 1.1//EN" "http://www.w3.org/Graphics/SVG/1.1/DTD/svg11.dtd">
<svg version="1.1" id="Layer_1" xmlns="http://www.w3.org/2000/svg" xmlns:xlink="http://www.w3.org/1999/xlink" x="0px" y="0px"
	 width="24px" height="24px" viewBox="0 0 24 24" enable-background="new 0 0 24 24" xml:space="preserve">
<polygon points="15.994,1.904 15.976,1.904 15.484,3.528 16.485,3.528 "/>
<path d="M18.917,6.037c0.405,0,0.671-0.377,0.671-0.78V0.855c0-0.403-0.266-0.723-0.671-0.723H13.05
	c-0.404,0-0.731,0.326-0.731,0.727l-0.002,6.624l1.466-1.446H18.917z M15.577,1.018h0.816l1.36,3.986h-0.803l-0.271-0.886H15.29
	l-0.274,0.886h-0.805L15.577,1.018z"/>
<path d="M6.184,15.114l1.572-1.573l-0.859-0.859c-0.432-0.433-0.432-1.14,0-1.57c0.434-0.434,1.141-0.434,1.571,0l3.795,3.793
	l1.572-1.572l-3.793-3.793c-1.303-1.3-3.416-1.3-4.716,0c-1.301,1.299-1.301,3.413,0,4.716L6.184,15.114z"/>
<path d="M17.815,17.318l-1.57,1.571l0.858,0.855c0.437,0.435,0.437,1.14,0,1.572c-0.433,0.438-1.137,0.438-1.569,0l-3.794-3.793
	l-1.572,1.571l3.792,3.791c0.652,0.653,1.504,0.98,2.36,0.98c0.852,0,1.708-0.327,2.357-0.98c1.299-1.298,1.299-3.413,0-4.713
	L17.815,17.318z"/>
<path d="M13.313,16.476l1.566,1.569l3.798-3.79c1.299-1.302,1.299-3.417,0-4.716c-1.301-1.3-3.416-1.3-4.718,0l-0.855,0.859
	l1.565,1.573l0.864-0.859c0.433-0.434,1.137-0.434,1.569,0c0.437,0.43,0.437,1.137,0,1.57L13.313,16.476z"/>
<path d="M8.468,21.317c-0.431,0.438-1.137,0.438-1.571,0c-0.432-0.433-0.432-1.138,0-1.572l3.793-3.791l-1.572-1.573l-3.793,3.793
	c-1.301,1.3-1.301,3.415,0,4.713c0.648,0.653,1.502,0.98,2.358,0.98c0.852,0,1.708-0.327,2.358-0.98l0.86-0.858L9.327,20.46
	L8.468,21.317z"/>
</svg>
