<?xml version="1.0" encoding="utf-8"?>
<!-- Generator: Adobe Illustrator 15.0.0, SVG Export Plug-In . SVG Version: 6.00 Build 0)  -->
<!DOCTYPE svg PUBLIC "-//W3C//DTD SVG 1.1//EN" "http://www.w3.org/Graphics/SVG/1.1/DTD/svg11.dtd">
<svg version="1.1" id="Layer_1" xmlns="http://www.w3.org/2000/svg" xmlns:xlink="http://www.w3.org/1999/xlink" x="0px" y="0px"
	 width="24px" height="24px" viewBox="0 0 24 24" enable-background="new 0 0 24 24" xml:space="preserve">
<path fill="#010101" d="M12.175,10.291c2.797,0,5.037-2.255,5.037-5.054c0-2.797-2.24-5.056-5.037-5.056
	c-2.796,0-5.054,2.259-5.054,5.056C7.121,8.036,9.378,10.291,12.175,10.291"/>
<path fill="#010101" d="M12.155,13.66c-3.927,0-11.745,1.976-11.745,5.896v4.262h10.535l0.475-5.779
	c0.003-0.042,0.045-0.093,0.097-0.093h1.298c0.05,0,0.09,0.051,0.097,0.093l0.508,5.779h10.476v-4.262
	C23.897,15.636,16.078,13.66,12.155,13.66 M12.963,17.294h-1.546l-1.342-2.345c0-0.225,0.216-0.43,0.481-0.43h3.225
	c0.258,0,0.479,0.205,0.479,0.43L12.963,17.294z"/>
</svg>
