<?xml version="1.0" encoding="utf-8"?>
<!-- Generator: Adobe Illustrator 15.0.0, SVG Export Plug-In . SVG Version: 6.00 Build 0)  -->
<!DOCTYPE svg PUBLIC "-//W3C//DTD SVG 1.1//EN" "http://www.w3.org/Graphics/SVG/1.1/DTD/svg11.dtd">
<svg version="1.1" id="Layer_1" xmlns="http://www.w3.org/2000/svg" xmlns:xlink="http://www.w3.org/1999/xlink" x="0px" y="0px"
	 width="24px" height="24px" viewBox="0 0 24 24" enable-background="new 0 0 24 24" xml:space="preserve">
<path fill="#010101" d="M18.911,8.451H5.159c-0.428,0-0.786,0.393-0.786,0.82v13.75c0,0.433,0.358,0.785,0.786,0.785h13.752
	c0.427,0,0.817-0.353,0.817-0.785V9.271C19.729,8.844,19.338,8.451,18.911,8.451 M16.774,17.194c0,0.249-0.194,0.41-0.442,0.41
	h-2.807v2.843c0,0.246-0.194,0.405-0.442,0.405h-2.098c-0.249,0-0.412-0.159-0.412-0.405v-2.843H7.736
	c-0.248,0-0.411-0.161-0.411-0.41v-2.096c0-0.248,0.163-0.447,0.411-0.447h2.837v-2.801c0-0.25,0.164-0.447,0.412-0.447h2.098
	c0.248,0,0.442,0.197,0.442,0.447v2.801h2.807c0.248,0,0.442,0.199,0.442,0.447V17.194z"/>
<path fill="#010101" d="M15.897,1.66h-0.6v2.657h0.6c0.284,0,0.491-0.077,0.652-0.269c0.161-0.193,0.225-0.423,0.225-0.735V2.651
	c0-0.305-0.063-0.533-0.225-0.726C16.389,1.731,16.182,1.66,15.897,1.66"/>
<path fill="#010101" d="M18.952,0.183h-5.868c-0.404,0-0.731,0.292-0.731,0.695L12.35,7.446l1.468-1.504h5.134
	c0.403,0,0.776-0.292,0.776-0.696V0.844C19.729,0.441,19.355,0.183,18.952,0.183 M17.659,3.314c0,0.488-0.185,0.853-0.493,1.161
	c-0.318,0.309-0.744,0.433-1.229,0.433H14.56V1.07h1.377c0.485,0,0.911,0.119,1.229,0.431c0.309,0.31,0.493,0.672,0.493,1.157V3.314
	z"/>
</svg>
