<?xml version="1.0" encoding="utf-8"?>
<!-- Generator: Adobe Illustrator 15.0.0, SVG Export Plug-In . SVG Version: 6.00 Build 0)  -->
<!DOCTYPE svg PUBLIC "-//W3C//DTD SVG 1.1//EN" "http://www.w3.org/Graphics/SVG/1.1/DTD/svg11.dtd">
<svg version="1.1" id="Layer_1" xmlns="http://www.w3.org/2000/svg" xmlns:xlink="http://www.w3.org/1999/xlink" x="0px" y="0px"
	 width="24px" height="24px" viewBox="0 0 24 24" enable-background="new 0 0 24 24" xml:space="preserve">
<path d="M21.662,19.294h-1.116c0.248-0.456,0.385-1.094,0.385-1.699c0-0.913-0.311-1.753-0.829-2.419
	c-0.06-1.955-0.646-3.908-1.726-5.653c-1.672-2.691-4.288-4.484-7.481-5.1V0.409c0-0.192-0.089-0.283-0.283-0.283H5.704
	c-0.199,0-0.285,0.091-0.285,0.283v11.17c0,0.194,0.086,0.41,0.285,0.41h0.323v2.406c0,0.194,0.174,0.336,0.37,0.336h3.519
	c0.194,0,0.369-0.142,0.369-0.336v-2.406h0.327c0.194,0,0.283-0.216,0.283-0.41V8.015c2.584,0.97,4.351,3.217,4.724,5.868
	c-1.513,0.551-2.579,2.008-2.579,3.712c0,0.605,0.156,1.243,0.402,1.699H2.667c-0.195,0-0.292,0.142-0.292,0.338v2.212
	c0,0.191,0.097,0.342,0.292,0.342h2.294v1.289c0,0.199,0.11,0.381,0.304,0.381h2.893c0.193,0,0.301-0.182,0.301-0.381v-1.289h7.303
	v1.289c0,0.199,0.219,0.381,0.413,0.381h2.889c0.196,0,0.349-0.182,0.349-0.381v-1.289h2.25c0.193,0,0.338-0.15,0.338-0.342v-2.212
	C22,19.436,21.855,19.294,21.662,19.294 M16.997,19.294c-0.945,0-1.711-0.766-1.711-1.707c0-0.943,0.766-1.711,1.711-1.711
	c0.938,0,1.707,0.768,1.707,1.711C18.704,18.528,17.936,19.294,16.997,19.294"/>
<rect x="5.419" y="16.862" width="5.476" height="1.521"/>
</svg>
