<?xml version="1.0" encoding="utf-8"?>
<!-- Generator: Adobe Illustrator 15.0.0, SVG Export Plug-In . SVG Version: 6.00 Build 0)  -->
<!DOCTYPE svg PUBLIC "-//W3C//DTD SVG 1.1//EN" "http://www.w3.org/Graphics/SVG/1.1/DTD/svg11.dtd">
<svg version="1.1" id="Layer_1" xmlns="http://www.w3.org/2000/svg" xmlns:xlink="http://www.w3.org/1999/xlink" x="0px" y="0px"
	 width="24px" height="24px" viewBox="0 0 24 24" enable-background="new 0 0 24 24" xml:space="preserve">
<path d="M22.681,0.216h-21.3c-0.663,0-1.152,0.478-1.152,1.138v21.303c0,0.664,0.489,1.124,1.152,1.124h21.3
	c0.665,0,1.107-0.46,1.107-1.124V1.354C23.788,0.694,23.346,0.216,22.681,0.216 M19.446,13.63c0,0.384-0.372,0.766-0.757,0.766
	h-4.276v4.271c0,0.387-0.371,0.765-0.76,0.765h-3.246c-0.379,0-0.792-0.378-0.792-0.765v-4.271H5.369
	c-0.381,0-0.791-0.382-0.791-0.766v-3.246c0-0.387,0.409-0.79,0.791-0.79h4.247V5.35c0-0.386,0.413-0.791,0.792-0.791h3.246
	c0.389,0,0.76,0.405,0.76,0.791v4.245h4.276c0.385,0,0.757,0.403,0.757,0.79V13.63z"/>
</svg>
