<?xml version="1.0" encoding="utf-8"?>
<!-- Generator: Adobe Illustrator 15.0.0, SVG Export Plug-In . SVG Version: 6.00 Build 0)  -->
<!DOCTYPE svg PUBLIC "-//W3C//DTD SVG 1.1//EN" "http://www.w3.org/Graphics/SVG/1.1/DTD/svg11.dtd">
<svg version="1.1" id="Layer_1" xmlns="http://www.w3.org/2000/svg" xmlns:xlink="http://www.w3.org/1999/xlink" x="0px" y="0px"
	 width="24px" height="24px" viewBox="0 0 24 24" enable-background="new 0 0 24 24" xml:space="preserve">
<path fill="#010101" d="M18.88,8.451H5.128c-0.428,0-0.756,0.393-0.756,0.82v13.75c0,0.433,0.328,0.785,0.756,0.785H18.88
	c0.427,0,0.849-0.353,0.849-0.785V9.271C19.729,8.844,19.307,8.451,18.88,8.451 M16.774,17.194c0,0.249-0.224,0.41-0.471,0.41
	h-2.778v2.843c0,0.246-0.224,0.405-0.471,0.405h-2.1c-0.248,0-0.382-0.159-0.382-0.405v-2.843H7.706
	c-0.248,0-0.381-0.161-0.381-0.41v-2.096c0-0.248,0.133-0.447,0.381-0.447h2.867v-2.801c0-0.25,0.134-0.447,0.382-0.447h2.1
	c0.247,0,0.471,0.197,0.471,0.447v2.801h2.778c0.247,0,0.471,0.199,0.471,0.447V17.194z"/>
<path fill="#010101" d="M18.922,0.183h-5.866c-0.406,0-0.733,0.292-0.733,0.695l-0.003,6.568l1.464-1.504h5.139
	c0.403,0,0.807-0.292,0.807-0.696V0.844C19.729,0.441,19.325,0.183,18.922,0.183 M17.502,2.398h-0.756
	c0-0.295-0.059-0.457-0.183-0.591c-0.121-0.137-0.31-0.206-0.568-0.206c-0.229,0-0.384,0.093-0.523,0.279
	c-0.136,0.188-0.174,0.427-0.174,0.717v0.77c0,0.294,0.04,0.536,0.185,0.724c0.144,0.188,0.325,0.282,0.565,0.282
	c0.242,0,0.416-0.076,0.53-0.206s0.166-0.293,0.166-0.59h0.749l0.009,0.027c0.006,0.417-0.121,0.75-0.381,0.994
	s-0.623,0.368-1.086,0.368s-0.872-0.147-1.159-0.447c-0.289-0.298-0.464-0.68-0.464-1.15V2.604c0-0.469,0.171-0.851,0.451-1.152
	C15.146,1.149,15.527,1,15.98,1c0.478,0,0.856,0.124,1.127,0.366c0.264,0.247,0.402,0.588,0.396,1.008L17.502,2.398z"/>
</svg>
