<?xml version="1.0" encoding="utf-8"?>
<!-- Generator: Adobe Illustrator 15.0.0, SVG Export Plug-In . SVG Version: 6.00 Build 0)  -->
<!DOCTYPE svg PUBLIC "-//W3C//DTD SVG 1.1//EN" "http://www.w3.org/Graphics/SVG/1.1/DTD/svg11.dtd">
<svg version="1.1" id="Layer_1" xmlns="http://www.w3.org/2000/svg" xmlns:xlink="http://www.w3.org/1999/xlink" x="0px" y="0px"
	 width="24px" height="24px" viewBox="0 0 24 24" enable-background="new 0 0 24 24" xml:space="preserve">
<path fill="#010101" d="M20.166,2.629h-1.107V0.288h-2.342v2.342H7.346V0.288H5.003v2.342H3.77c-1.301,0-2.332,1.044-2.332,2.333
	L1.426,21.364c0,1.29,1.042,2.348,2.344,2.348h16.396c1.288,0,2.408-1.075,2.408-2.363V4.952
	C22.574,3.663,21.454,2.629,20.166,2.629 M20.23,21.37H3.832V8.486H20.23V21.37z"/>
<path fill="#010101" d="M6.71,19.892c0.546,0,0.972-0.145,1.279-0.433c0.308-0.286,0.458-0.665,0.449-1.155l-0.006-0.009H7.548
	c0,0.294-0.068,0.52-0.205,0.674c-0.137,0.153-0.348,0.225-0.633,0.225c-0.288,0-0.534-0.114-0.703-0.336
	c-0.169-0.223-0.271-0.51-0.271-0.855v-0.91c0-0.344,0.097-0.627,0.259-0.849c0.16-0.223,0.386-0.333,0.659-0.333
	c0.305,0,0.533,0.076,0.678,0.236c0.143,0.158,0.22,0.391,0.22,0.686h0.888l0.006-0.015c0.008-0.499-0.146-0.89-0.462-1.179
	c-0.317-0.289-0.757-0.433-1.32-0.433c-0.533,0-0.969,0.178-1.303,0.532c-0.333,0.354-0.502,0.809-0.502,1.36v0.904
	c0,0.554,0.173,1.006,0.515,1.358C5.715,19.716,6.162,19.892,6.71,19.892"/>
<polygon fill="#010101" points="10.713,18.468 10.591,16.471 10.592,16.435 11.787,19.76 12.399,19.76 13.618,16.422 13.611,16.443 
	13.495,18.468 13.495,19.76 14.521,19.76 14.521,15.222 13.269,15.222 12.099,18.589 12.081,18.589 10.92,15.222 9.689,15.222 
	9.689,19.76 10.713,19.76 "/>
<polygon fill="#010101" points="19.059,19.175 16.863,19.175 16.863,17.857 18.767,17.857 18.767,17.124 16.863,17.124 
	16.863,15.952 19.059,15.952 19.059,15.222 15.985,15.222 15.985,19.76 19.059,19.76 "/>
</svg>
