<?xml version="1.0" encoding="utf-8"?>
<!-- Generator: Adobe Illustrator 15.0.0, SVG Export Plug-In . SVG Version: 6.00 Build 0)  -->
<!DOCTYPE svg PUBLIC "-//W3C//DTD SVG 1.1//EN" "http://www.w3.org/Graphics/SVG/1.1/DTD/svg11.dtd">
<svg version="1.1" id="Layer_1" xmlns="http://www.w3.org/2000/svg" xmlns:xlink="http://www.w3.org/1999/xlink" x="0px" y="0px"
	 width="24px" height="24px" viewBox="0 0 24 24" enable-background="new 0 0 24 24" xml:space="preserve">
<rect x="16.332" y="17.308" fill="#010101" width="2.216" height="2.215"/>
<rect x="16.332" y="13.028" fill="#010101" width="2.216" height="2.215"/>
<path fill="#010101" d="M12.051,4.465H1.271v19.341h21.564V8.745H12.051V4.465z M5.558,21.591H3.487v-2.068h2.071V21.591z
	 M5.558,17.308H3.487v-2.064h2.071V17.308z M5.558,13.028H3.487v-2.215h2.071V13.028z M5.558,8.745H3.487V6.531h2.071V8.745z
	 M9.985,21.591H7.77v-2.068h2.216V21.591z M9.985,17.308H7.77v-2.064h2.216V17.308z M9.985,13.028H7.77v-2.215h2.216V13.028z
	 M9.985,8.745H7.77V6.531h2.216V8.745z M20.613,10.813v10.778h-8.563v-2.068h2.215v-2.215h-2.215v-2.064h2.215v-2.215h-2.215v-2.215
	H20.613z"/>
<path fill="#010101" d="M22.082,0.183h-5.871c-0.402,0-0.73,0.3-0.73,0.705l-0.003,6.561l1.464-1.507h5.141
	c0.399,0,0.753-0.277,0.753-0.681v-4.4C22.835,0.457,22.481,0.183,22.082,0.183 M20.763,3.332c0,0.486-0.17,0.917-0.484,1.227
	c-0.315,0.308-0.729,0.497-1.213,0.497H17.66V1.07h1.405c0.484,0,0.897,0.126,1.213,0.438c0.314,0.31,0.484,0.681,0.484,1.166V3.332
	z"/>
<path fill="#010101" d="M19.024,1.66h-0.477v2.657h0.477c0.285,0,0.479-0.07,0.639-0.26c0.162-0.193,0.213-0.416,0.213-0.726V2.667
	c0-0.305-0.051-0.542-0.213-0.735C19.504,1.741,19.31,1.66,19.024,1.66"/>
</svg>
