<?xml version="1.0" encoding="utf-8"?>
<!-- Generator: Adobe Illustrator 15.0.0, SVG Export Plug-In . SVG Version: 6.00 Build 0)  -->
<!DOCTYPE svg PUBLIC "-//W3C//DTD SVG 1.1//EN" "http://www.w3.org/Graphics/SVG/1.1/DTD/svg11.dtd">
<svg version="1.1" id="Layer_1" xmlns="http://www.w3.org/2000/svg" xmlns:xlink="http://www.w3.org/1999/xlink" x="0px" y="0px"
	 width="24px" height="24px" viewBox="0 0 24 24" enable-background="new 0 0 24 24" xml:space="preserve">
<rect x="16.369" y="17.308" fill="#010101" width="2.212" height="2.215"/>
<rect x="16.369" y="13.028" fill="#010101" width="2.212" height="2.065"/>
<path fill="#010101" d="M12.087,8.745v-4.28H1.457v19.341h21.405V8.745H12.087z M5.736,21.591H3.523v-2.068h2.213V21.591z
	 M5.736,17.308H3.523v-2.214h2.213V17.308z M5.736,13.028H3.523v-2.215h2.213V13.028z M5.736,8.745H3.523V6.531h2.213V8.745z
	 M10.021,21.591H7.805v-2.068h2.216V21.591z M10.021,17.308H7.805v-2.214h2.216V17.308z M10.021,13.028H7.805v-2.215h2.216V13.028z
	 M10.021,8.745H7.805V6.531h2.216V8.745z M20.799,21.591h-8.712v-2.068h2.215v-2.215h-2.215v-2.214h2.215v-2.065h-2.215v-2.215
	h8.712V21.591z"/>
<path fill="#010101" d="M22.151,5.941c0.409,0,0.711-0.292,0.711-0.696V0.844c0-0.403-0.302-0.661-0.711-0.661h-5.869
	c-0.402,0-0.729,0.292-0.729,0.695l-0.003,6.568l1.467-1.504H22.151z M18.814,1.07h0.813l1.361,3.838h-0.805l-0.268-0.74h-1.395
	l-0.271,0.74h-0.804L18.814,1.07z"/>
<polygon fill="#010101" points="19.227,1.955 19.212,1.955 18.719,3.43 19.72,3.43 "/>
</svg>
