<?xml version="1.0" encoding="utf-8"?>
<!-- Generator: Adobe Illustrator 15.0.0, SVG Export Plug-In . SVG Version: 6.00 Build 0)  -->
<!DOCTYPE svg PUBLIC "-//W3C//DTD SVG 1.1//EN" "http://www.w3.org/Graphics/SVG/1.1/DTD/svg11.dtd">
<svg version="1.1" id="Layer_1" xmlns="http://www.w3.org/2000/svg" xmlns:xlink="http://www.w3.org/1999/xlink" x="0px" y="0px"
	 width="24px" height="24px" viewBox="0 0 24 24" enable-background="new 0 0 24 24" xml:space="preserve">
<path fill="#010101" d="M22.057,0.183H16.19c-0.403,0-0.73,0.292-0.73,0.695l-0.002,6.568l1.465-1.504h5.134
	c0.402,0,0.778-0.292,0.778-0.696V0.844C22.835,0.441,22.459,0.183,22.057,0.183 M20.637,2.398h-0.753
	c0-0.295-0.061-0.457-0.181-0.591c-0.123-0.137-0.312-0.206-0.571-0.206c-0.231,0-0.404,0.093-0.54,0.279
	c-0.135,0.188-0.193,0.427-0.193,0.717v0.77c0,0.294,0.063,0.536,0.203,0.724c0.146,0.188,0.331,0.282,0.575,0.282
	c0.243,0,0.42-0.076,0.534-0.206s0.169-0.293,0.169-0.59h0.751l0.006,0.027c0.007,0.417-0.12,0.75-0.381,0.994
	c-0.259,0.244-0.621,0.368-1.084,0.368c-0.464,0-0.815-0.147-1.104-0.447c-0.29-0.298-0.408-0.68-0.408-1.15V2.604
	c0-0.469,0.114-0.851,0.396-1.152C18.341,1.149,18.693,1,19.146,1c0.479,0,0.845,0.124,1.11,0.366
	c0.27,0.247,0.397,0.588,0.389,1.008L20.637,2.398z"/>
<rect x="16.332" y="13.028" fill="#010101" width="2.216" height="2.065"/>
<rect x="16.332" y="17.308" fill="#010101" width="2.216" height="2.215"/>
<path fill="#010101" d="M12.051,4.465H1.271v19.341h21.564V8.745H12.051V4.465z M5.558,21.591H3.487v-2.068h2.071V21.591z
	 M5.558,17.308H3.487v-2.214h2.071V17.308z M5.558,13.028H3.487v-2.215h2.071V13.028z M5.558,8.745H3.487V6.531h2.071V8.745z
	 M9.836,21.591H7.77v-2.068h2.067V21.591z M9.836,17.308H7.77v-2.214h2.067V17.308z M9.836,13.028H7.77v-2.215h2.067V13.028z
	 M9.836,8.745H7.77V6.531h2.067V8.745z M20.613,10.813v10.778h-8.563v-2.068h2.215v-2.215h-2.215v-2.214h2.215v-2.065h-2.215v-2.215
	H20.613z"/>
</svg>
