<?xml version="1.0" encoding="utf-8"?>
<!-- Generator: Adobe Illustrator 15.0.0, SVG Export Plug-In . SVG Version: 6.00 Build 0)  -->
<!DOCTYPE svg PUBLIC "-//W3C//DTD SVG 1.1//EN" "http://www.w3.org/Graphics/SVG/1.1/DTD/svg11.dtd">
<svg version="1.1" id="Layer_1" xmlns="http://www.w3.org/2000/svg" xmlns:xlink="http://www.w3.org/1999/xlink" x="0px" y="0px"
	 width="24px" height="24px" viewBox="0 0 24 24" enable-background="new 0 0 24 24" xml:space="preserve">
<rect x="9.901" y="15.423" fill="#010101" width="1.654" height="1.78"/>
<rect x="12.699" y="15.423" fill="#010101" width="1.652" height="1.78"/>
<rect x="9.901" y="12.751" fill="#010101" width="1.654" height="1.656"/>
<path fill="#010101" d="M21.6,3.596v-1.4h-4.068v1.4h-2.162v6.358h-3.941V8.81h2.162V7.157h-2.162V6.648h-0.509v3.306H8.629V3.596
	H6.467v-1.4H2.399v1.4H0.236v18.183h15.133h1.653h6.741V3.596H21.6z M3.67,20.129h-1.78v-1.78h1.78V20.129z M3.67,16.695h-1.78
	v-1.653h1.78V16.695z M3.67,13.389h-1.78v-1.654h1.78V13.389z M3.67,9.954h-1.78V8.301h1.78V9.954z M3.67,4.995h1.652v1.653H3.67
	V4.995z M6.977,20.129H5.323v-1.78h1.654V20.129z M6.977,16.695H5.323v-1.653h1.654V16.695z M6.977,13.389H5.323v-1.654h1.654
	V13.389z M6.977,9.954H5.323V8.301h1.654V9.954z M15.369,20.129h-6.74v-8.394h6.74V20.129z M18.805,20.129h-1.782v-1.78h1.782
	V20.129z M18.805,16.695h-1.782v-1.653h1.782V16.695z M18.805,13.389h-1.782v-1.654h1.782V13.389z M18.805,9.954h-1.782V8.301h1.782
	V9.954z M18.805,4.995h1.653v1.653h-1.653V4.995z M22.108,20.129h-1.65v-1.78h1.65V20.129z M22.108,16.695h-1.65v-1.653h1.65V16.695
	z M22.108,13.389h-1.65v-1.654h1.65V13.389z M22.108,9.954h-1.65V8.301h1.65V9.954z"/>
<rect x="12.699" y="12.751" fill="#010101" width="1.652" height="1.656"/>
</svg>
