<?xml version="1.0" encoding="utf-8"?>
<!-- Generator: Adobe Illustrator 15.0.0, SVG Export Plug-In . SVG Version: 6.00 Build 0)  -->
<!DOCTYPE svg PUBLIC "-//W3C//DTD SVG 1.1//EN" "http://www.w3.org/Graphics/SVG/1.1/DTD/svg11.dtd">
<svg version="1.1" id="Layer_1" xmlns="http://www.w3.org/2000/svg" xmlns:xlink="http://www.w3.org/1999/xlink" x="0px" y="0px"
	 width="24px" height="24px" viewBox="0 0 24 24" enable-background="new 0 0 24 24" xml:space="preserve">
<path d="M12.003,10.67c2.805,0,5.051-2.261,5.051-5.063c0-2.802-2.246-5.064-5.051-5.064c-2.799,0-5.062,2.262-5.062,5.064
	C6.942,8.409,9.205,10.67,12.003,10.67"/>
<path d="M20.775,14.748c-2.898-1.104-4.625-2.242-4.625-2.242l-2.236,7.05l-0.299,0.958l-1.003-2.858
	c2.298-3.2-0.176-3.384-0.603-3.384h-0.023c-0.424,0-2.894,0.184-0.603,3.384l-1,2.842l-0.306-0.95L7.846,12.5
	c0,0-1.732,1.138-4.626,2.247c-3.183,1.155-2.984,3.797-3.048,8.711h23.656C23.762,18.544,23.963,15.905,20.775,14.748
	 M16.578,20.603l2.84-2.285l1.182,2.285H16.578z"/>
</svg>
