<?xml version="1.0" encoding="utf-8"?>
<!-- Generator: Adobe Illustrator 15.0.0, SVG Export Plug-In . SVG Version: 6.00 Build 0)  -->
<!DOCTYPE svg PUBLIC "-//W3C//DTD SVG 1.1//EN" "http://www.w3.org/Graphics/SVG/1.1/DTD/svg11.dtd">
<svg version="1.1" id="Layer_1" xmlns="http://www.w3.org/2000/svg" xmlns:xlink="http://www.w3.org/1999/xlink" x="0px" y="0px"
	 width="24px" height="24px" viewBox="0 0 24 24" enable-background="new 0 0 24 24" xml:space="preserve">
<rect x="16.684" y="10.787" fill="#010101" width="2.42" height="2.422"/>
<rect x="16.684" y="15.47" fill="#010101" width="2.42" height="2.421"/>
<path fill="#010101" d="M12.001,6.105V1.421H0.212v21.158h23.575V6.105H12.001z M4.895,20.155H2.633v-2.265h2.261V20.155z
	 M4.895,15.47H2.633v-2.261h2.261V15.47z M4.895,10.787H2.633V8.365h2.261V10.787z M4.895,6.105H2.633V3.683h2.261V6.105z
	 M9.577,20.155H7.318v-2.265h2.259V20.155z M9.577,15.47H7.318v-2.261h2.259V15.47z M9.577,10.787H7.318V8.365h2.259V10.787z
	 M9.577,6.105H7.318V3.683h2.259V6.105z M21.367,20.155h-9.366v-2.265h2.421V15.47h-2.421v-2.261h2.421v-2.422h-2.421V8.365h9.366
	V20.155z"/>
</svg>
