<?xml version="1.0" encoding="utf-8"?>
<!-- Generator: Adobe Illustrator 15.0.0, SVG Export Plug-In . SVG Version: 6.00 Build 0)  -->
<!DOCTYPE svg PUBLIC "-//W3C//DTD SVG 1.1//EN" "http://www.w3.org/Graphics/SVG/1.1/DTD/svg11.dtd">
<svg version="1.1" id="Layer_1" xmlns="http://www.w3.org/2000/svg" xmlns:xlink="http://www.w3.org/1999/xlink" x="0px" y="0px"
	 width="24px" height="24px" viewBox="0 0 24 24" enable-background="new 0 0 24 24" xml:space="preserve">
<path d="M22.163,0.144h-5.926c-0.411,0-0.74,0.298-0.74,0.706l-0.006,6.63l1.485-1.52h5.187c0.408,0,0.743-0.295,0.743-0.704V0.811
	C22.906,0.404,22.571,0.144,22.163,0.144 M20.727,2.381h-0.758c0-0.297-0.063-0.459-0.187-0.597
	c-0.123-0.137-0.313-0.208-0.574-0.208c-0.234,0-0.426,0.094-0.561,0.282c-0.14,0.19-0.213,0.429-0.213,0.726v0.778
	c0,0.297,0.079,0.541,0.221,0.731c0.146,0.189,0.344,0.283,0.589,0.283s0.427-0.075,0.543-0.207c0.117-0.13,0.178-0.298,0.178-0.595
	h0.756l0.006,0.027c0.007,0.419-0.122,0.758-0.384,1.002c-0.26,0.247-0.63,0.374-1.097,0.374c-0.468,0-0.837-0.151-1.13-0.452
	c-0.292-0.302-0.427-0.688-0.427-1.162V2.589c0-0.474,0.129-0.861,0.416-1.163c0.286-0.304,0.652-0.457,1.106-0.457
	c0.481,0,0.855,0.123,1.126,0.369c0.272,0.25,0.404,0.594,0.395,1.02L20.727,2.381z"/>
<path d="M19.18,13.189c0.446,0,1.051-0.327,1.203-0.808c0.15-0.479-0.035-0.994-0.49-1.263l-8.474-5.063
	c-0.398-0.238-0.906-0.238-1.303,0l-8.483,5.063c-0.451,0.269-0.639,0.784-0.488,1.263c0.153,0.48,0.589,0.808,1.184,0.808v6.75
	l-1.192,0.006v2.807v1.104h19.387v-1.104l0,0v-2.924H19.18V13.189z M7.101,19.828H4.714v-6.562h2.387V19.828z M11.874,19.828H9.489
	v-6.562h2.384V19.828z M10.775,10.939c-0.669,0-1.212-0.503-1.212-1.125s0.543-1.125,1.212-1.125s1.21,0.504,1.21,1.125
	S11.445,10.939,10.775,10.939 M16.792,19.828h-2.383v-6.562h2.383V19.828z"/>
</svg>
