<?xml version="1.0" encoding="utf-8"?>
<!-- Generator: Adobe Illustrator 15.0.0, SVG Export Plug-In . SVG Version: 6.00 Build 0)  -->
<!DOCTYPE svg PUBLIC "-//W3C//DTD SVG 1.1//EN" "http://www.w3.org/Graphics/SVG/1.1/DTD/svg11.dtd">
<svg version="1.1" id="Layer_1" xmlns="http://www.w3.org/2000/svg" xmlns:xlink="http://www.w3.org/1999/xlink" x="0px" y="0px"
	 width="24px" height="24px" viewBox="0 0 24 24" enable-background="new 0 0 24 24" xml:space="preserve">
<path fill="#010101" d="M19.212,13.211c0.442,0,0.989-0.328,1.139-0.803c0.148-0.472-0.06-0.982-0.508-1.25l-8.403-5.012
	c-0.396-0.237-0.905-0.237-1.299,0l-8.401,5.012c-0.449,0.268-0.582,0.778-0.433,1.25c0.15,0.476,0.63,0.803,1.22,0.803v6.682
	l-1.181,0.002v2.789v1.129H20.54v-1.129l0,0v-2.857h-1.328V13.211z M7.252,19.826H4.89V13.33h2.362V19.826z M11.977,19.826H9.615
	V13.33h2.362V19.826z M10.789,10.98c-0.664,0-1.201-0.499-1.201-1.114c0-0.614,0.537-1.113,1.201-1.113c0.66,0,1.2,0.5,1.2,1.113
	C11.989,10.481,11.449,10.98,10.789,10.98 M16.848,19.826h-2.361V13.33h2.361V19.826z"/>
<path fill="#010101" d="M19.009,1.666h-0.535v2.805h0.535c0.283,0,0.521-0.098,0.686-0.291c0.162-0.193,0.253-0.447,0.253-0.757
	V2.761c0-0.307-0.091-0.585-0.253-0.778C19.529,1.79,19.292,1.666,19.009,1.666"/>
<path fill="#010101" d="M22.065,0.188h-5.871c-0.403,0-0.73,0.346-0.73,0.75l-0.005,6.613l1.47-1.455h5.137
	c0.402,0,0.688-0.338,0.688-0.742V0.952C22.753,0.552,22.468,0.188,22.065,0.188 M20.688,3.425c0,0.488-0.142,0.876-0.456,1.183
	c-0.316,0.31-0.697,0.454-1.182,0.454h-1.315V1.075h1.315c0.484,0,0.865,0.174,1.182,0.483c0.314,0.31,0.456,0.725,0.456,1.211
	V3.425z"/>
</svg>
