<?xml version="1.0" encoding="utf-8"?>
<!-- Generator: Adobe Illustrator 15.0.0, SVG Export Plug-In . SVG Version: 6.00 Build 0)  -->
<!DOCTYPE svg PUBLIC "-//W3C//DTD SVG 1.1//EN" "http://www.w3.org/Graphics/SVG/1.1/DTD/svg11.dtd">
<svg version="1.1" id="Layer_1" xmlns="http://www.w3.org/2000/svg" xmlns:xlink="http://www.w3.org/1999/xlink" x="0px" y="0px"
	 width="24px" height="24px" viewBox="0 0 24 24" enable-background="new 0 0 24 24" xml:space="preserve">
<path fill="#010101" d="M19.238,13.201c0.444,0,0.94-0.326,1.091-0.798c0.151-0.473-0.086-0.983-0.534-1.25l-8.417-5.013
	c-0.394-0.236-0.909-0.236-1.306,0l-8.403,5.013c-0.448,0.267-0.533,0.776-0.383,1.25c0.15,0.473,0.677,0.798,1.27,0.798v6.686
	l-1.182,0.002v2.782v1.144h19.193v-1.144l0,0V19.82h-1.329V13.201z M7.281,19.82H4.919v-6.5h2.362V19.82z M10.715,8.748
	c0.662,0,1.201,0.5,1.201,1.115c0,0.614-0.539,1.113-1.201,1.113c-0.663,0-1.201-0.499-1.201-1.113
	C9.514,9.248,10.052,8.748,10.715,8.748 M12.003,19.82H9.641v-6.5h2.362V19.82z M16.876,19.82h-2.361v-6.5h2.361V19.82z"/>
<polygon fill="#010101" points="19.048,2.104 18.555,3.58 19.556,3.58 19.063,2.104 "/>
<path fill="#010101" d="M21.989,0.185h-5.864c-0.407,0-0.742,0.345-0.742,0.749l-0.002,6.61l1.474-1.453h5.135
	c0.404,0,0.794-0.338,0.794-0.74V0.947C22.783,0.545,22.394,0.185,21.989,0.185 M20.021,5.056L19.753,4.17h-1.394l-0.27,0.886
	h-0.806l1.366-3.986h0.816l1.355,3.986H20.021z"/>
</svg>
