<?xml version="1.0" encoding="utf-8"?>
<!-- Generator: Adobe Illustrator 15.0.0, SVG Export Plug-In . SVG Version: 6.00 Build 0)  -->
<!DOCTYPE svg PUBLIC "-//W3C//DTD SVG 1.1//EN" "http://www.w3.org/Graphics/SVG/1.1/DTD/svg11.dtd">
<svg version="1.1" id="Layer_1" xmlns="http://www.w3.org/2000/svg" xmlns:xlink="http://www.w3.org/1999/xlink" x="0px" y="0px"
	 width="24px" height="24px" viewBox="0 0 24 24" enable-background="new 0 0 24 24" xml:space="preserve">
<path d="M22.824,0.365h-5.473c-0.377,0-0.681,0.339-0.681,0.715l-0.003,6.159l1.366-1.366h4.79c0.375,0,0.692-0.281,0.692-0.657
	V1.111C23.517,0.735,23.199,0.365,22.824,0.365 M21.007,4.603c-0.166,0.162-0.383,0.258-0.655,0.288v0.432h-0.415V4.892
	c-0.273-0.03-0.53-0.133-0.719-0.308c-0.191-0.177-0.283-0.43-0.277-0.771l0.003-0.005h0.665c0,0.136,0.047,0.35,0.144,0.439
	C19.85,4.338,19.97,4.38,20.118,4.38c0.141,0,0.249-0.04,0.326-0.114c0.073-0.076,0.113-0.178,0.113-0.306
	c0-0.126-0.039-0.229-0.11-0.308c-0.071-0.08-0.196-0.153-0.373-0.222c-0.345-0.125-0.6-0.266-0.767-0.42
	c-0.168-0.154-0.252-0.372-0.252-0.653c0-0.262,0.062-0.476,0.23-0.644c0.166-0.167,0.377-0.265,0.65-0.295V0.915h0.415v0.508
	c0.272,0.041,0.488,0.154,0.645,0.344c0.158,0.187,0.235,0.46,0.233,0.761l-0.01,0.041h-0.662c0-0.278-0.04-0.354-0.113-0.454
	c-0.077-0.101-0.181-0.164-0.311-0.164c-0.133,0-0.233,0.032-0.299,0.108c-0.062,0.077-0.097,0.174-0.097,0.305
	c0,0.12,0.036,0.217,0.104,0.291c0.068,0.076,0.196,0.149,0.379,0.222c0.348,0.136,0.6,0.28,0.765,0.435
	c0.166,0.153,0.262,0.368,0.262,0.646C21.247,4.226,21.173,4.441,21.007,4.603"/>
<path d="M10.777,12.518c2.438,0,4.394-1.966,4.394-4.405c0-2.437-1.956-4.405-4.394-4.405c-2.436,0-4.403,1.968-4.403,4.405
	C6.374,10.551,8.341,12.518,10.777,12.518"/>
<path d="M18.406,16.065c-2.513-0.958-4.023-1.95-4.023-1.95l-1.941,6.133l-0.266,0.831l-0.871-2.486
	c1.998-2.782-0.149-2.942-0.526-2.942h-0.016c-0.371,0-2.517,0.16-0.524,2.942l-0.87,2.474l-0.267-0.825l-1.941-6.13
	c0,0-1.509,0.989-4.024,1.952c-2.771,1.008-2.595,3.305-2.652,7.572h20.581C21.003,19.368,21.179,17.072,18.406,16.065"/>
</svg>
