<?xml version="1.0" encoding="utf-8"?>
<!-- Generator: Adobe Illustrator 15.0.0, SVG Export Plug-In . SVG Version: 6.00 Build 0)  -->
<!DOCTYPE svg PUBLIC "-//W3C//DTD SVG 1.1//EN" "http://www.w3.org/Graphics/SVG/1.1/DTD/svg11.dtd">
<svg version="1.1" id="Layer_1" xmlns="http://www.w3.org/2000/svg" xmlns:xlink="http://www.w3.org/1999/xlink" x="0px" y="0px"
	 width="24px" height="24px" viewBox="0 0 24 24" enable-background="new 0 0 24 24" xml:space="preserve">
<path fill="#010101" d="M23.014,0.19h-5.869c-0.404,0-0.73,0.344-0.73,0.749l-0.002,6.613l1.469-1.457h5.133
	c0.402,0,0.725-0.338,0.725-0.74V0.954C23.738,0.552,23.416,0.19,23.014,0.19 M21.045,5.062l-0.271-0.886h-1.393l-0.268,0.886
	h-0.805l1.363-3.985h0.816l1.359,3.985H21.045z"/>
<polygon fill="#010101" points="20.07,2.11 19.578,3.586 20.58,3.586 20.09,2.11 "/>
<path fill="#010101" d="M17.867,9.049h-3.727V5.357H4.988v3.692H1.231c-0.511,0-0.969,0.39-0.969,0.899v13.862h7.382v-4.573h3.69
	v4.573h7.532V9.949C18.867,9.439,18.377,9.049,17.867,9.049 M5.874,21.896H2.183v-2.658h3.691V21.896z M5.874,17.317H2.183V14.51
	h3.691V17.317z M11.335,17.317h-3.69V14.51h3.69V17.317z M12.368,12.738H10.45v-1.917H8.68v1.917h-1.92V7.13h1.92v1.919h1.771V7.13
	h1.918V12.738z M16.945,21.896h-3.688v-2.658h3.688V21.896z M16.945,17.317h-3.688V14.51h3.688V17.317z"/>
</svg>
