<?xml version="1.0" encoding="utf-8"?>
<!-- Generator: Adobe Illustrator 15.0.0, SVG Export Plug-In . SVG Version: 6.00 Build 0)  -->
<!DOCTYPE svg PUBLIC "-//W3C//DTD SVG 1.1//EN" "http://www.w3.org/Graphics/SVG/1.1/DTD/svg11.dtd">
<svg version="1.1" id="Layer_1" xmlns="http://www.w3.org/2000/svg" xmlns:xlink="http://www.w3.org/1999/xlink" x="0px" y="0px"
	 width="24px" height="24px" viewBox="0 0 24 24" enable-background="new 0 0 24 24" xml:space="preserve">
<path fill="#010101" d="M17.762,9.076h-3.645V5.421H4.91v3.655H1.29c-0.504,0-0.912,0.385-0.912,0.891v13.726h7.309v-4.53h3.653
	v4.53h7.31V9.967C18.649,9.461,18.269,9.076,17.762,9.076 M5.934,21.795H2.278v-2.632h3.656V21.795z M5.934,17.262H2.278v-2.776
	h3.656V17.262z M11.339,17.262H7.687v-2.776h3.653V17.262z M12.218,12.731h-1.752v-1.9H8.562v1.9H6.81V7.174h1.752v1.902h1.904
	V7.174h1.752V12.731z M16.896,21.795h-3.651v-2.632h3.651V21.795z M16.896,17.262h-3.651v-2.776h3.651V17.262z"/>
<path fill="#010101" d="M19.831,1.768H19.38v2.776h0.451c0.28,0,0.485-0.096,0.646-0.288c0.158-0.191,0.219-0.443,0.219-0.75V2.852
	c0-0.304-0.061-0.579-0.219-0.77C20.316,1.891,20.111,1.768,19.831,1.768"/>
<path fill="#010101" d="M22.856,0.306h-5.812c-0.397,0-0.723,0.339-0.723,0.739l-0.002,6.55l1.451-1.441h5.085
	c0.399,0,0.766-0.335,0.766-0.734V1.063C23.622,0.664,23.256,0.306,22.856,0.306 M21.573,3.507c0,0.484-0.18,0.869-0.49,1.174
	c-0.311,0.305-0.73,0.448-1.211,0.448h-1.37V1.184h1.37c0.48,0,0.9,0.169,1.211,0.477s0.49,0.717,0.49,1.197V3.507z"/>
</svg>
