<?xml version="1.0" encoding="utf-8"?>
<!-- Generator: Adobe Illustrator 15.0.0, SVG Export Plug-In . SVG Version: 6.00 Build 0)  -->
<!DOCTYPE svg PUBLIC "-//W3C//DTD SVG 1.1//EN" "http://www.w3.org/Graphics/SVG/1.1/DTD/svg11.dtd">
<svg version="1.1" id="Layer_1" xmlns="http://www.w3.org/2000/svg" xmlns:xlink="http://www.w3.org/1999/xlink" x="0px" y="0px"
	 width="24px" height="24px" viewBox="0 0 24 24" enable-background="new 0 0 24 24" xml:space="preserve">
<path fill="#010101" d="M22.566,4.973h-4.66V0.285H6.096v4.688H1.44c-0.649,0-1.155,0.496-1.155,1.144v17.598h9.374v-5.803h4.686
	v5.803h9.371V6.117C23.715,5.469,23.213,4.973,22.566,4.973 M7.222,21.283H2.535v-3.371h4.687V21.283z M7.222,15.475H2.535v-3.566
	h4.687V15.475z M14.344,15.475H9.658v-3.566h4.686V15.475z M15.486,9.659h-2.266V7.224h-2.436v2.436H8.536V2.536h2.249v2.437h2.436
	V2.536h2.266V9.659z M21.467,21.283h-4.688v-3.371h4.688V21.283z M21.467,15.475h-4.688v-3.566h4.688V15.475z"/>
</svg>
