<?xml version="1.0" encoding="utf-8"?>
<!-- Generator: Adobe Illustrator 15.0.0, SVG Export Plug-In . SVG Version: 6.00 Build 0)  -->
<!DOCTYPE svg PUBLIC "-//W3C//DTD SVG 1.1//EN" "http://www.w3.org/Graphics/SVG/1.1/DTD/svg11.dtd">
<svg version="1.1" id="Layer_1" xmlns="http://www.w3.org/2000/svg" xmlns:xlink="http://www.w3.org/1999/xlink" x="0px" y="0px"
	 width="24px" height="24px" viewBox="0 0 24 24" enable-background="new 0 0 24 24" xml:space="preserve">
<path d="M17.765,9.077h-3.641V5.422H4.911v3.655H1.293c-0.505,0-0.914,0.385-0.914,0.891v13.727h7.309v-4.53h3.654v4.53h7.31V9.968
	C18.651,9.462,18.27,9.077,17.765,9.077 M5.937,21.795H2.28v-2.631h3.657V21.795z M5.937,17.261H2.28v-2.775h3.657V17.261z
	 M11.342,17.261H7.688v-2.775h3.654V17.261z M12.22,12.731h-1.752V10.83H8.563v1.901H6.811V7.175h1.752v1.902h1.904V7.175h1.752
	V12.731z M16.897,21.795h-3.654v-2.631h3.654V21.795z M16.897,17.261h-3.654v-2.775h3.654V17.261z"/>
<path d="M22.86,0.305h-5.812c-0.399,0-0.727,0.341-0.727,0.74l-0.002,6.55l1.452-1.442h5.088c0.399,0,0.761-0.334,0.761-0.733V1.063
	C23.621,0.664,23.26,0.305,22.86,0.305 M21.451,2.644h-0.746c0-0.292-0.06-0.473-0.182-0.606c-0.12-0.135-0.304-0.215-0.563-0.215
	c-0.227,0-0.397,0.087-0.534,0.271c-0.132,0.188-0.188,0.416-0.188,0.706v0.763c0,0.291,0.058,0.53,0.199,0.716
	c0.142,0.185,0.326,0.279,0.57,0.279c0.236,0,0.41-0.052,0.527-0.181c0.112-0.128,0.168-0.27,0.168-0.562h0.744l0.004,0.004
	c0.006,0.41-0.118,0.73-0.377,0.971c-0.259,0.243-0.615,0.359-1.073,0.359c-0.462,0-0.805-0.148-1.094-0.443
	c-0.285-0.296-0.402-0.678-0.402-1.142V2.805c0-0.464,0.113-0.844,0.389-1.14c0.283-0.299,0.632-0.45,1.081-0.45
	c0.476,0,0.835,0.125,1.1,0.365c0.266,0.243,0.392,0.603,0.386,1.02L21.451,2.644z"/>
</svg>
