<?xml version="1.0" encoding="utf-8"?>
<!-- Generator: Adobe Illustrator 15.0.0, SVG Export Plug-In . SVG Version: 6.00 Build 0)  -->
<!DOCTYPE svg PUBLIC "-//W3C//DTD SVG 1.1//EN" "http://www.w3.org/Graphics/SVG/1.1/DTD/svg11.dtd">
<svg version="1.1" id="Layer_1" xmlns="http://www.w3.org/2000/svg" xmlns:xlink="http://www.w3.org/1999/xlink" x="0px" y="0px"
	 width="24px" height="24px" viewBox="0 0 24 24" enable-background="new 0 0 24 24" xml:space="preserve">
<path fill="#010101" d="M21.393,2.623H2.605c-1.297,0-2.349,1.052-2.349,2.35v14.057c0,1.299,1.052,2.349,2.349,2.349h18.788
	c1.297,0,2.352-1.05,2.352-2.349V4.973C23.744,3.675,22.689,2.623,21.393,2.623 M7.921,15.344H6.617v-2.771H4.006v2.771H2.541V8.658
	h1.465v2.936h2.611V8.658h1.304V15.344z M14.771,9.637h-1.957v5.707h-1.304V9.637H9.716V8.658h5.056V9.637z M20.031,15.344
	l-0.449-1.465h-2.34l-0.455,1.465h-1.348l2.291-6.686h1.371l2.281,6.686H20.031z"/>
<polygon fill="#010101" points="18.4,10.289 17.57,12.899 19.252,12.899 18.43,10.289 "/>
</svg>
