<?xml version="1.0" encoding="utf-8"?>
<!-- Generator: Adobe Illustrator 15.0.0, SVG Export Plug-In . SVG Version: 6.00 Build 0)  -->
<!DOCTYPE svg PUBLIC "-//W3C//DTD SVG 1.1//EN" "http://www.w3.org/Graphics/SVG/1.1/DTD/svg11.dtd">
<svg version="1.1" id="Layer_1" xmlns="http://www.w3.org/2000/svg" xmlns:xlink="http://www.w3.org/1999/xlink" x="0px" y="0px"
	 width="24px" height="24px" viewBox="0 0 24 24" enable-background="new 0 0 24 24" xml:space="preserve">
<path d="M3.076,10.312l2.411-2.415L4.169,6.576c-0.663-0.664-0.663-1.741,0-2.408c0.666-0.662,1.748-0.662,2.411,0l5.822,5.82
	l2.401-2.409l-5.809-5.82C7-0.234,3.75-0.234,1.761,1.758c-1.996,1.994-1.996,5.237,0,7.233L3.076,10.312z"/>
<path d="M20.918,13.688l-2.404,2.414l1.313,1.318c0.667,0.66,0.667,1.742,0,2.406c-0.661,0.668-1.746,0.668-2.406,0l-5.821-5.816
	l-2.407,2.41l5.813,5.82c1.001,0.994,2.312,1.496,3.619,1.496c1.312,0,2.618-0.502,3.617-1.496c1.994-1.994,1.994-5.238,0-7.23
	L20.918,13.688z"/>
<path d="M17.42,4.168c0.66-0.662,1.745-0.662,2.406,0c0.667,0.667,0.667,1.744,0,2.408l-5.816,5.825l2.409,2.411l5.822-5.821
	c1.994-1.996,1.994-5.239,0-7.233c-1.996-1.992-5.236-1.992-7.236,0l-1.318,1.32l2.417,2.409L17.42,4.168z"/>
<path d="M6.58,19.826c-0.663,0.668-1.746,0.668-2.411,0c-0.663-0.664-0.663-1.746,0-2.406l5.825-5.821L7.578,9.186L1.761,15.01
	c-1.996,1.992-1.996,5.236,0,7.23c0.994,0.994,2.307,1.496,3.614,1.496c1.309-0.002,2.623-0.502,3.62-1.496l1.316-1.32L7.9,18.508
	L6.58,19.826z"/>
</svg>
