<?xml version="1.0" encoding="utf-8"?>
<!-- Generator: Adobe Illustrator 20.0.0, SVG Export Plug-In . SVG Version: 6.00 Build 0)  -->
<svg version="1.1" id="Layer_1" xmlns="http://www.w3.org/2000/svg" xmlns:xlink="http://www.w3.org/1999/xlink" x="0px" y="0px"
	 viewBox="0 0 24 24" style="enable-background:new 0 0 24 24;" xml:space="preserve">
<g>
	<path d="M3.6,1.5L3.6,1.5C3.4,1.5,3.1,1.6,3,1.8C2.8,1.9,2.7,2.2,2.7,2.4v12.9c0,0.5,0.5,0.9,0.9,0.9c2,0,5.4,0.4,7.8,2.8V5.5
		c0-0.2-0.1-0.3-0.2-0.5C9.3,2,5.6,1.5,3.6,1.5z"/>
	<path d="M21.2,15.3V2.4c0-0.2-0.1-0.5-0.2-0.6c-0.2-0.2-0.4-0.3-0.6-0.3h0c-2,0-5.7,0.5-7.6,3.6c-0.1,0.1-0.1,0.3-0.1,0.5V19
		c2.4-2.4,5.7-2.8,7.7-2.8C20.8,16.2,21.2,15.8,21.2,15.3z"/>
	<path d="M23.1,4.5h-0.6v10.8c0,1.2-1,2.2-2.2,2.2c-1.7,0-4.5,0.3-6.5,2.2c3.4-0.8,7-0.3,9.1,0.2c0.3,0.1,0.5,0,0.7-0.2
		c0.2-0.2,0.3-0.4,0.3-0.7V5.4C24,4.9,23.6,4.5,23.1,4.5z"/>
	<path d="M1.4,15.3V4.5H0.8C0.3,4.5,0,4.9,0,5.4v13.7c0,0.3,0.1,0.5,0.3,0.7C0.5,19.9,0.7,20,1,19.9c2.1-0.5,5.7-1,9.1-0.2
		c-2-1.9-4.8-2.2-6.5-2.2C2.4,17.5,1.4,16.5,1.4,15.3z"/>
</g>
</svg>
