<?xml version="1.0" encoding="utf-8"?>
<!-- Generator: Adobe Illustrator 15.0.0, SVG Export Plug-In . SVG Version: 6.00 Build 0)  -->
<!DOCTYPE svg PUBLIC "-//W3C//DTD SVG 1.1//EN" "http://www.w3.org/Graphics/SVG/1.1/DTD/svg11.dtd">
<svg version="1.1" id="Layer_1" xmlns="http://www.w3.org/2000/svg" xmlns:xlink="http://www.w3.org/1999/xlink" x="0px" y="0px"
	 width="24px" height="24px" viewBox="0 0 24 24" enable-background="new 0 0 24 24" xml:space="preserve">
<path fill="#010101" d="M22.699,0.191H16.83c-0.404,0-0.73,0.345-0.73,0.747L16.096,7.55l1.469-1.454h5.135
	c0.402,0,0.732-0.338,0.732-0.741V0.953C23.432,0.551,23.102,0.191,22.699,0.191 M20.732,5.062l-0.271-0.886h-1.395l-0.268,0.886
	h-0.805l1.365-3.985h0.816l1.361,3.985H20.732z"/>
<polygon fill="#010101" points="19.758,2.107 19.266,3.586 20.264,3.586 19.773,2.107 "/>
<path fill="#010101" d="M18.309,10.401c-1.369-0.196-2.699-1.058-3.715-2.389c-0.115-0.157-1.137-1.485-1.723-1.877
	c-0.273-0.195-0.752-0.353-1.534-0.116c-0.239,0.063-0.454,0.166-0.75,0.289V5.902c0-0.428-0.384-0.781-0.811-0.781
	c-0.43,0-0.813,0.354-0.813,0.781v0.397C8.815,6.16,8.449,6.053,8.18,5.982C7.557,5.787,7.026,5.824,6.634,6.098
	c-0.586,0.391-1.555,1.76-1.713,1.875c-1.016,1.332-2.305,2.194-3.71,2.389c-0.311,0.039-0.547,0.275-0.622,0.587
	c-0.079,0.312,0.08,0.665,0.354,0.82c1.09,0.679,2.389,1.482,3.817,1.671c-0.116,0.218-0.18,0.457-0.18,0.717
	c0,0.874,0.74,1.503,1.801,1.908c-0.523,0.41-0.825,0.921-0.825,1.493c0,0.835,0.649,1.548,1.679,1.985
	c-0.338,0.306-0.524,0.68-0.524,1.077c0,0.574,0.423,1.1,1.097,1.437c0.361,0.185,0.71,0.311,1.301,0.375v0.597
	c0,0.428,0.31,0.779,0.738,0.779c0.429,0,0.738-0.352,0.738-0.742v-0.649c0.442-0.069,0.823-0.19,1.153-0.359
	c0.674-0.337,1.067-0.862,1.067-1.437c0-0.38-0.171-0.741-0.483-1.037c1.089-0.438,1.759-1.168,1.759-2.03
	c0-0.563-0.295-1.069-0.807-1.48c1.057-0.399,1.787-1.031,1.787-1.926c0-0.261-0.063-0.506-0.188-0.722
	c1.379-0.218,2.67-0.987,3.707-1.624c0.271-0.192,0.426-0.502,0.352-0.815C18.895,10.674,18.621,10.437,18.309,10.401 M3.208,11.34
	c1.095-0.513,2.11-1.331,2.933-2.426c0.117-0.158,0.761-1.319,1.292-1.525c0.956-0.377,1.57,0.274,1.562,0.774
	c0,0.011-0.031,0.021-0.031,0.033v3.324c0-0.026-0.753-0.324-2.351,0.173C6.168,11.826,5.289,12.352,3.208,11.34 M6.069,14.157
	c0.138-0.243,1.123-0.785,2.894-0.91v1.822C7.191,14.938,6.204,14.396,6.069,14.157 M7.008,17.559c0-0.2,0.774-0.73,1.955-0.891
	v1.782C7.782,18.289,7.008,17.754,7.008,17.559 M8.101,20.621c0.046-0.118,0.271-0.363,1.01-0.479V21.1
	C8.371,20.982,8.146,20.742,8.101,20.621 M10.586,21.073v-0.907c0.592,0.126,0.845,0.345,0.889,0.455
	C11.431,20.731,11.178,20.952,10.586,21.073 M10.586,18.45v-1.782c1.329,0.16,1.954,0.69,1.954,0.891
	C12.541,17.756,11.916,18.289,10.586,18.45 M10.586,15.066v-1.822c1.772,0.126,2.755,0.667,2.894,0.905
	C13.342,14.43,12.359,14.945,10.586,15.066 M12.822,11.731c-1.502-0.476-2.235-0.229-2.235-0.227V8.156
	c0-0.609,0.796-1.148,1.455-0.731c0.357,0.227,1.178,1.37,1.295,1.527c0.82,1.095,1.834,1.917,2.928,2.425
	C14.227,12.396,13.232,11.836,12.822,11.731"/>
</svg>
