<?xml version="1.0" encoding="utf-8"?>
<!-- Generator: Adobe Illustrator 15.0.0, SVG Export Plug-In . SVG Version: 6.00 Build 0)  -->
<!DOCTYPE svg PUBLIC "-//W3C//DTD SVG 1.1//EN" "http://www.w3.org/Graphics/SVG/1.1/DTD/svg11.dtd">
<svg version="1.1" id="Layer_1" xmlns="http://www.w3.org/2000/svg" xmlns:xlink="http://www.w3.org/1999/xlink" x="0px" y="0px"
	 width="24px" height="24px" viewBox="0 0 24 24" enable-background="new 0 0 24 24" xml:space="preserve">
<path fill="#010101" d="M18.275,10.398c-1.369-0.194-2.703-1.056-3.716-2.388c-0.117-0.159-1.135-1.485-1.72-1.875
	c-0.276-0.195-0.722-0.354-1.504-0.117c-0.24,0.064-0.572,0.167-0.721,0.29V5.901c0-0.427-0.383-0.781-0.812-0.781
	S8.992,5.474,8.992,5.901v0.396C8.696,6.158,8.446,6.052,8.178,5.982c-0.624-0.195-1.17-0.159-1.561,0.116
	C6.03,6.489,5.052,7.854,4.895,7.97c-1.015,1.334-2.307,2.196-3.714,2.391c-0.312,0.037-0.547,0.274-0.624,0.586
	c-0.079,0.312,0.081,0.666,0.354,0.82c1.091,0.68,2.388,1.48,3.815,1.675c-0.115,0.219-0.178,0.451-0.178,0.713
	c0,0.873,0.74,1.504,1.799,1.908c-0.521,0.408-0.82,0.922-0.82,1.494c0,0.836,0.646,1.545,1.678,1.984
	c-0.339,0.305-0.527,0.678-0.527,1.076c0,0.576,0.381,1.1,1.056,1.439c0.362,0.182,0.814,0.309,1.257,0.371v0.598
	c0,0.432,0.383,0.781,0.812,0.781c0.429,0,0.812-0.35,0.812-0.74v-0.656c0.444-0.066,0.791-0.189,1.124-0.354
	c0.673-0.34,1.05-0.863,1.05-1.439c0-0.379-0.178-0.738-0.489-1.035c1.085-0.439,1.758-1.168,1.758-2.029
	c0-0.564-0.301-1.07-0.811-1.48c1.055-0.4,1.784-1.031,1.784-1.928c0-0.262-0.065-0.504-0.189-0.719
	c1.379-0.217,2.669-0.991,3.706-1.627c0.273-0.19,0.426-0.502,0.352-0.815C18.862,10.675,18.589,10.437,18.275,10.398 M3.175,11.338
	c1.094-0.511,2.108-1.33,2.934-2.425c0.116-0.158,0.758-1.317,1.29-1.526C8.354,7.011,9,7.666,8.99,8.163
	c0,0.011,0.002,0.02,0.002,0.033v3.324c0-0.026-0.784-0.324-2.382,0.172C6.167,11.825,5.255,12.35,3.175,11.338 M6.096,14.156
	c0.141-0.244,1.125-0.783,2.896-0.912v1.824C7.22,14.938,6.233,14.396,6.096,14.156 M7.037,17.559c0-0.199,0.627-0.729,1.955-0.891
	v1.781C7.665,18.287,7.037,17.752,7.037,17.559 M7.982,20.619c0.046-0.117,0.419-0.361,1.01-0.48v0.963
	C8.401,20.982,8.028,20.738,7.982,20.619 M10.615,21.076v-0.91c0.444,0.127,0.845,0.344,0.889,0.453
	C11.46,20.73,11.059,20.953,10.615,21.076 M10.615,18.449v-1.781c1.183,0.162,1.955,0.691,1.955,0.891
	C12.57,17.756,11.797,18.287,10.615,18.449 M10.615,15.066V13.24c1.773,0.131,2.756,0.668,2.896,0.91
	C13.371,14.428,12.388,14.945,10.615,15.066 M12.821,11.73c-1.503-0.475-2.207-0.229-2.207-0.226V8.156
	c0-0.608,0.766-1.149,1.424-0.73c0.358,0.227,1.162,1.368,1.277,1.526c0.818,1.094,1.843,1.918,2.937,2.425
	C14.217,12.394,13.229,11.835,12.821,11.73"/>
<path fill="#010101" d="M22.667,0.19h-5.871c-0.396,0-0.728,0.345-0.728,0.747l-0.003,6.614l1.468-1.456h5.134
	c0.403,0,0.795-0.339,0.795-0.741V0.953C23.462,0.551,23.07,0.19,22.667,0.19 M21.245,2.552h-0.754c0-0.295-0.059-0.481-0.185-0.614
	c-0.12-0.134-0.312-0.218-0.569-0.218c-0.229,0-0.39,0.089-0.524,0.275c-0.135,0.187-0.182,0.418-0.182,0.713v0.769
	c0,0.295,0.049,0.537,0.191,0.724c0.143,0.188,0.327,0.281,0.569,0.281c0.24,0,0.412-0.052,0.53-0.182
	c0.115-0.13,0.167-0.271,0.167-0.568h0.751l0.005,0.005c0.005,0.414-0.119,0.738-0.382,0.982c-0.261,0.243-0.621,0.361-1.085,0.361
	c-0.463,0-0.874-0.15-1.163-0.447c-0.292-0.299-0.469-0.685-0.469-1.154V2.714c0-0.471,0.173-0.852,0.46-1.152
	C18.886,1.26,19.27,1.11,19.723,1.11c0.477,0,0.858,0.122,1.128,0.367c0.269,0.244,0.4,0.609,0.395,1.031V2.552z"/>
</svg>
