<?xml version="1.0" encoding="utf-8"?>
<!-- Generator: Adobe Illustrator 15.0.0, SVG Export Plug-In . SVG Version: 6.00 Build 0)  -->
<!DOCTYPE svg PUBLIC "-//W3C//DTD SVG 1.1//EN" "http://www.w3.org/Graphics/SVG/1.1/DTD/svg11.dtd">
<svg version="1.1" id="Layer_1" xmlns="http://www.w3.org/2000/svg" xmlns:xlink="http://www.w3.org/1999/xlink" x="0px" y="0px"
	 width="24px" height="24px" viewBox="0 0 24 24" enable-background="new 0 0 24 24" xml:space="preserve">
<path fill="#010101" d="M18.229,10.419c-1.356-0.194-2.676-1.046-3.674-2.365c-0.119-0.155-1.128-1.47-1.71-1.856
	c-0.272-0.194-0.727-0.351-1.501-0.116c-0.237,0.064-0.434,0.163-0.728,0.286V5.968c0-0.424-0.38-0.775-0.803-0.775
	c-0.424,0-0.806,0.351-0.806,0.775v0.39c-0.291-0.137-0.527-0.241-0.79-0.312C7.599,5.852,7.064,5.89,6.678,6.161
	c-0.583,0.387-1.543,1.741-1.7,1.857c-1.006,1.318-2.284,2.172-3.676,2.364c-0.309,0.038-0.544,0.273-0.616,0.582
	c-0.079,0.309,0.078,0.659,0.35,0.812c1.079,0.678,2.36,1.468,3.779,1.66c-0.115,0.213-0.178,0.446-0.178,0.704
	c0,0.865,0.733,1.488,1.782,1.89c-0.518,0.407-0.815,0.913-0.815,1.48c0,0.824,0.642,1.527,1.663,1.966
	c-0.335,0.301-0.521,0.674-0.521,1.065c0,0.568,0.362,1.087,1.032,1.425c0.357,0.177,0.792,0.305,1.229,0.367v0.591
	c0,0.426,0.382,0.773,0.806,0.773c0.423,0,0.803-0.348,0.803-0.737v-0.645c0.44-0.068,0.8-0.186,1.126-0.35
	c0.669-0.338,1.047-0.856,1.047-1.425c0-0.377-0.172-0.734-0.481-1.029c1.077-0.432,1.739-1.154,1.739-2.006
	c0-0.56-0.294-1.063-0.802-1.468c1.045-0.393,1.772-1.021,1.772-1.906c0-0.259-0.067-0.497-0.189-0.716
	c1.367-0.211,2.644-0.981,3.67-1.606c0.268-0.191,0.422-0.499,0.349-0.808C18.808,10.691,18.537,10.457,18.229,10.419 M3.276,11.351
	c1.084-0.506,2.089-1.318,2.904-2.401c0.115-0.158,0.754-1.306,1.279-1.51c0.946-0.372,1.573,0.274,1.563,0.765
	c0,0.013-0.015,0.023-0.015,0.036v3.29c0-0.026-0.759-0.32-2.342,0.171C6.225,11.831,5.336,12.354,3.276,11.351 M6.143,14.139
	c0.137-0.239,1.111-0.773,2.863-0.9v1.804C7.254,14.913,6.277,14.376,6.143,14.139 M7.073,17.509c0-0.198,0.767-0.724,1.933-0.883
	v1.765C7.84,18.229,7.073,17.7,7.073,17.509 M8.008,20.54c0.046-0.116,0.413-0.361,0.998-0.477v0.953
	C8.421,20.901,8.055,20.655,8.008,20.54 M10.616,20.991v-0.902c0.585,0.122,0.839,0.341,0.881,0.451
	C11.455,20.648,11.201,20.868,10.616,20.991 M10.616,18.391v-1.765c1.316,0.159,1.937,0.685,1.937,0.883
	C12.553,17.709,11.932,18.229,10.616,18.391 M10.616,15.04v-1.804c1.755,0.124,2.728,0.66,2.868,0.898
	C13.344,14.412,12.371,14.919,10.616,15.04 M12.814,11.737c-1.49-0.469-2.199-0.227-2.199-0.223V8.198
	c0-0.6,0.773-1.134,1.424-0.722c0.354,0.223,1.158,1.354,1.273,1.51c0.814,1.083,1.824,1.899,2.904,2.4
	C14.197,12.4,13.22,11.842,12.814,11.737"/>
<path fill="#010101" d="M19.55,1.766h-0.453v2.778h0.453c0.285,0,0.482-0.095,0.641-0.285c0.162-0.191,0.22-0.439,0.22-0.746V2.857
	c0-0.304-0.058-0.585-0.22-0.774C20.032,1.894,19.835,1.766,19.55,1.766"/>
<path fill="#010101" d="M22.576,0.304h-5.812c-0.399,0-0.724,0.346-0.724,0.743l-0.003,6.549l1.454-1.444h5.084
	c0.399,0,0.758-0.326,0.758-0.726V1.068C23.334,0.668,22.976,0.304,22.576,0.304 M21.29,3.514c0,0.481-0.181,0.863-0.49,1.169
	c-0.313,0.305-0.729,0.445-1.21,0.445h-1.37V1.182h1.37c0.48,0,0.896,0.174,1.21,0.48c0.31,0.305,0.49,0.719,0.49,1.202V3.514z"/>
</svg>
