<?xml version="1.0" encoding="utf-8"?>
<!-- Generator: Adobe Illustrator 15.0.0, SVG Export Plug-In . SVG Version: 6.00 Build 0)  -->
<!DOCTYPE svg PUBLIC "-//W3C//DTD SVG 1.1//EN" "http://www.w3.org/Graphics/SVG/1.1/DTD/svg11.dtd">
<svg version="1.1" id="Layer_1" xmlns="http://www.w3.org/2000/svg" xmlns:xlink="http://www.w3.org/1999/xlink" x="0px" y="0px"
	 width="24px" height="24px" viewBox="0 0 24 24" enable-background="new 0 0 24 24" xml:space="preserve">
<path d="M1.823,7.159h2.071v13.791h3.346V9.126h3.154v11.823h3.35V9.126h3.151v11.823h3.153V7.159h2.167
	c0.328,0,0.58-0.126,0.786-0.302c0.197-0.181,0.262-0.426,0.262-0.706c0-0.322-0.064-0.597-0.458-0.797v0.029h0.013L12.673,0.233
	c-0.393-0.199-0.852-0.172-1.244,0.024L1.283,5.382H1.135V5.353c-0.197,0.2-0.436,0.46-0.436,0.781c0,0.278,0.127,0.542,0.353,0.722
	C1.271,7.032,1.547,7.159,1.823,7.159"/>
<polygon points="2.908,21.934 0.742,23.904 23.301,23.904 21.195,21.934 "/>
</svg>
