<?xml version="1.0" encoding="utf-8"?>
<!-- Generator: Adobe Illustrator 15.0.0, SVG Export Plug-In . SVG Version: 6.00 Build 0)  -->
<!DOCTYPE svg PUBLIC "-//W3C//DTD SVG 1.1//EN" "http://www.w3.org/Graphics/SVG/1.1/DTD/svg11.dtd">
<svg version="1.1" id="Layer_1" xmlns="http://www.w3.org/2000/svg" xmlns:xlink="http://www.w3.org/1999/xlink" x="0px" y="0px"
	 width="24px" height="24px" viewBox="0 0 24 24" enable-background="new 0 0 24 24" xml:space="preserve">
<path d="M12,0.167C9.361,3.331,5.607,5.009,1.749,4.273C2.3,20.488,12,23.833,12,23.833s9.697-3.345,10.251-19.56
	C18.393,5.009,14.641,3.331,12,0.167 M6.366,8.145C6.337,7.901,6.547,7.716,6.798,7.716h7.511c0.249,0,0.421,0.185,0.392,0.429
	c-0.206,1.894-1.704,3.373-3.567,3.654v2.691c-0.466-0.16-0.932-0.28-1.239-0.365v-2.326C8.03,11.518,6.572,10.039,6.366,8.145
	 M11.791,18.576H9.313c-0.131,0-0.234-0.08-0.211-0.21C9.162,18,9.356,17.712,9.633,17.49c0.048-0.031,0.086-0.066,0.135-0.098
	c0.042-0.027,0.125-0.054,0.125-0.076V16.64c0.463,0.104,0.773,0.208,1.239,0.39v0.287c0.155,0.023,0.119,0.049,0.165,0.076
	c0.048,0.031,0.117,0.066,0.161,0.098c0.281,0.222,0.477,0.51,0.539,0.876C12.018,18.497,11.921,18.576,11.791,18.576
	 M14.681,17.573c-0.009,0.032-0.019,0.063-0.03,0.095c-0.006,0.012-0.011,0.026-0.017,0.037c-0.018,0.041-0.04,0.075-0.064,0.112
	c-0.018,0.022-0.031,0.043-0.05,0.064c-0.15,0.179-0.368,0.264-0.583,0.264c-0.179,0-0.356-0.069-0.502-0.192
	c-1.077-0.925-2.465-1.546-3.831-1.855l0,0c-0.304,0-0.609-0.127-0.879-0.293c-0.551-0.342-0.901-0.948-0.901-1.596
	c0-1.016,0.673-1.852,1.604-1.891v1.544c-0.468,0.088-0.395,0.561,0.221,0.698c0.139,0.029,0.278,0.063,0.419,0.098
	c0.376,0.096,0.746,0.209,1.113,0.335c1.174,0.415,2.306,0.994,3.255,1.81C14.665,16.998,14.752,17.301,14.681,17.573
	 M17.278,10.848c-0.528,1.777-2.177,3.075-4.042,3.075h-1.637v-1.551h1.637c1.335,0,2.51-1.084,2.674-2.408
	c0.199-1.601-0.975-3.266-2.658-3.266c-0.525,0-1.03,0.242-1.444,0.398H9.681c0.167-0.156,0.345-0.467,0.573-0.673
	c0.381-0.338,0.822-0.573,1.293-0.757c0.906-0.354,1.924-0.4,2.861-0.141c1.246,0.35,2.233,1.295,2.718,2.463
	c0.146,0.357,0.247,0.732,0.295,1.113C17.491,9.674,17.44,10.296,17.278,10.848"/>
</svg>
