<?xml version="1.0" encoding="utf-8"?>
<!-- Generator: Adobe Illustrator 15.0.0, SVG Export Plug-In . SVG Version: 6.00 Build 0)  -->
<!DOCTYPE svg PUBLIC "-//W3C//DTD SVG 1.1//EN" "http://www.w3.org/Graphics/SVG/1.1/DTD/svg11.dtd">
<svg version="1.1" id="Layer_1" xmlns="http://www.w3.org/2000/svg" xmlns:xlink="http://www.w3.org/1999/xlink" x="0px" y="0px"
	 width="24px" height="24px" viewBox="0 0 24 24" enable-background="new 0 0 24 24" xml:space="preserve">
<path fill="#010101" d="M23.531,7.624c-0.049-0.39-0.393-0.689-0.787-0.736c-1.721-0.246-3.393-1.33-4.67-3.003
	c-0.146-0.197-1.428-1.867-2.166-2.358c-0.348-0.246-0.975-0.444-1.955-0.146c-0.303,0.078-0.605,0.208-0.98,0.364V1.231
	c0-0.537-0.39-0.981-0.928-0.981c-0.538,0-0.929,0.445-0.929,0.981V1.73c-0.37-0.175-0.708-0.307-1.043-0.397
	c-0.785-0.246-1.482-0.2-1.974,0.147C7.36,1.971,6.128,3.691,5.93,3.839c-1.276,1.668-2.904,2.756-4.673,3
	C0.866,6.888,0.564,7.186,0.471,7.577c-0.096,0.392,0.1,0.836,0.441,1.03c1.372,0.854,3.004,1.862,4.801,2.107
	c-0.146,0.272-0.226,0.568-0.226,0.896c0,1.101,0.93,1.891,2.263,2.401c-0.658,0.515-1.035,1.159-1.035,1.876
	c0,1.049,0.813,1.947,2.11,2.493c-0.428,0.384-0.659,0.855-0.659,1.355c0,0.725,0.5,1.38,1.35,1.812
	c0.454,0.226,1.045,0.385,1.6,0.467v0.751c0,0.54,0.391,0.986,0.929,0.986c0.539,0,0.928-0.446,0.928-0.941v-0.82
	c0.556-0.084,1.066-0.232,1.48-0.442c0.854-0.432,1.359-1.087,1.359-1.812c0-0.474-0.219-0.93-0.604-1.305
	c1.371-0.548,2.223-1.463,2.223-2.549c0-0.709-0.371-1.349-1.014-1.861c1.328-0.504,2.248-1.296,2.248-2.421
	c0-0.329-0.084-0.632-0.24-0.908c1.74-0.269,3.357-1.242,4.666-2.042C23.43,8.409,23.621,8.016,23.531,7.624 M3.761,8.068
	c1.375-0.642,2.653-1.675,3.687-3.051C7.596,4.821,8.4,3.361,9.066,3.102c1.205-0.473,2.041,0.348,2.027,0.971
	c-0.001,0.017,0.023,0.03,0.023,0.043v4.18c-0.184-0.033-1.008-0.406-3.016,0.216C7.542,8.679,6.375,9.339,3.761,8.068
	 M7.475,11.609c0.176-0.303,1.413-0.984,3.641-1.145v2.292C8.888,12.593,7.649,11.911,7.475,11.609 M8.661,15.887
	c0-0.25,0.782-0.917,2.456-1.12v2.242C9.443,16.802,8.661,16.134,8.661,15.887 M9.845,19.735c0.056-0.147,0.527-0.456,1.271-0.603
	v1.209C10.372,20.194,9.901,19.885,9.845,19.735 M12.973,20.309v-1.143c0.745,0.158,1.062,0.436,1.117,0.569
	C14.035,19.876,13.718,20.152,12.973,20.309 M12.973,17.009v-2.242c1.671,0.203,2.458,0.87,2.458,1.12S14.645,16.802,12.973,17.009
	 M12.973,12.753V10.46c2.224,0.161,3.464,0.841,3.638,1.144C16.438,11.956,15.197,12.601,12.973,12.753 M15.82,8.562
	c-1.893-0.597-2.662-0.288-2.847-0.285V4.065c0.185-0.76,1.031-1.441,1.861-0.918c0.459,0.286,1.496,1.721,1.641,1.921
	c1.033,1.375,2.303,2.411,3.678,3.049C17.59,9.396,16.332,8.691,15.82,8.562"/>
</svg>
