<?xml version="1.0" encoding="utf-8"?>
<!-- Generator: Adobe Illustrator 15.0.0, SVG Export Plug-In . SVG Version: 6.00 Build 0)  -->
<!DOCTYPE svg PUBLIC "-//W3C//DTD SVG 1.1//EN" "http://www.w3.org/Graphics/SVG/1.1/DTD/svg11.dtd">
<svg version="1.1" id="Layer_1" xmlns="http://www.w3.org/2000/svg" xmlns:xlink="http://www.w3.org/1999/xlink" x="0px" y="0px"
	 width="24px" height="24px" viewBox="0 0 24 24" enable-background="new 0 0 24 24" xml:space="preserve">
<path fill="#010101" d="M10.753,12.529c2.485,0,4.478-2.008,4.478-4.494c0-2.487-1.993-4.495-4.478-4.495
	c-2.486,0-4.494,2.007-4.494,4.495C6.26,10.521,8.267,12.529,10.753,12.529"/>
<path fill="#010101" d="M18.534,16.146c-2.568-0.978-4.104-1.987-4.104-1.987l-1.98,6.256l-0.272,0.849l-0.888-2.536
	c2.038-2.84-0.153-3.005-0.535-3.005h-0.018c-0.378,0-2.568,0.165-0.535,3.005l-0.888,2.522l-0.271-0.843L7.06,14.152
	c0,0-1.535,1.009-4.103,1.993c-2.825,1.025-2.649,3.371-2.705,7.726h20.996C21.184,19.517,21.36,17.171,18.534,16.146"/>
<path fill="#010101" d="M22.877,0.13H17.6c-0.482,0-0.876,0.392-0.876,0.875v6.959c0,0.482,0.394,0.875,0.876,0.875h5.277
	c0.479,0,0.871-0.393,0.871-0.875V1.005C23.748,0.521,23.356,0.13,22.877,0.13 M19.814,4.572l-1.123-0.656l-1.126,0.656V1.113h2.249
	V4.572z"/>
</svg>
