<?xml version="1.0" encoding="utf-8"?>
<!-- Generator: Adobe Illustrator 15.0.0, SVG Export Plug-In . SVG Version: 6.00 Build 0)  -->
<!DOCTYPE svg PUBLIC "-//W3C//DTD SVG 1.1//EN" "http://www.w3.org/Graphics/SVG/1.1/DTD/svg11.dtd">
<svg version="1.1" id="Layer_1" xmlns="http://www.w3.org/2000/svg" xmlns:xlink="http://www.w3.org/1999/xlink" x="0px" y="0px"
	 width="24px" height="24px" viewBox="0 0 24 24" enable-background="new 0 0 24 24" xml:space="preserve">
<path fill="#010101" d="M15.649,8.105V6.747c0-1.199-2.454-1.804-3.651-1.804c-1.204,0-3.662,0.605-3.662,1.804v1.292v0.066H15.649z
	"/>
<path fill="#010101" d="M12.006,3.91c0.85,0,1.536-0.691,1.536-1.548c0-0.856-0.687-1.547-1.536-1.547
	c-0.863,0-1.556,0.691-1.556,1.547C10.45,3.219,11.143,3.91,12.006,3.91"/>
<path fill="#010101" d="M4.925,14.516l1.227,0.396l2.234-6.873l-1.23-0.398C6.014,7.27,4.694,9.375,4.323,10.52
	C3.953,11.663,3.781,14.143,4.925,14.516"/>
<path fill="#010101" d="M2.346,8.252C1.533,7.988,0.66,8.428,0.396,9.241c-0.263,0.816,0.179,1.688,0.998,1.954
	c0.813,0.264,1.684-0.181,1.947-0.997C3.605,9.385,3.161,8.517,2.346,8.252"/>
<path fill="#010101" d="M6.643,20.381c-0.693-0.502-1.657-0.344-2.16,0.348c-0.503,0.693-0.355,1.658,0.338,2.164
	c0.695,0.498,1.663,0.346,2.162-0.348C7.488,21.852,7.333,20.885,6.643,20.381"/>
<path fill="#010101" d="M5.386,15.963c-0.705,0.975,0.889,2.879,1.863,3.584c0.972,0.707,3.279,1.637,3.985,0.664l0.764-1.043
	l-5.853-4.25L5.386,15.963z"/>
<path fill="#010101" d="M12.765,20.211c0.707,0.969,3.007,0.041,3.979-0.666c0.976-0.703,2.57-2.609,1.864-3.582l-0.761-1.045
	l-5.841,4.248L12.765,20.211z"/>
<path fill="#010101" d="M17.352,20.381c-0.693,0.504-0.841,1.467-0.339,2.16c0.505,0.695,1.463,0.85,2.16,0.352
	c0.693-0.506,0.845-1.473,0.343-2.166C19.013,20.033,18.045,19.879,17.352,20.381"/>
<path fill="#010101" d="M16.842,7.644L15.61,8.043l2.236,6.875l1.229-0.4c1.143-0.369,0.973-2.851,0.604-3.994
	C19.305,9.38,17.987,7.273,16.842,7.644"/>
<path fill="#010101" d="M23.602,9.247c-0.262-0.815-1.132-1.26-1.945-0.995c-0.818,0.265-1.26,1.138-0.994,1.953
	c0.26,0.815,1.13,1.253,1.946,0.99C23.425,10.929,23.871,10.062,23.602,9.247"/>
</svg>
