<?xml version="1.0" encoding="utf-8"?>
<!-- Generator: Adobe Illustrator 15.0.0, SVG Export Plug-In . SVG Version: 6.00 Build 0)  -->
<!DOCTYPE svg PUBLIC "-//W3C//DTD SVG 1.1//EN" "http://www.w3.org/Graphics/SVG/1.1/DTD/svg11.dtd">
<svg version="1.1" id="Layer_1" xmlns="http://www.w3.org/2000/svg" xmlns:xlink="http://www.w3.org/1999/xlink" x="0px" y="0px"
	 width="24px" height="24px" viewBox="0 0 24 24" enable-background="new 0 0 24 24" xml:space="preserve">
<path fill="#010101" d="M13.96,11.246v-1.022c0-0.996-1.959-1.495-2.954-1.495c-0.996,0-2.953,0.5-2.953,1.495v1.067v-0.045H13.96z"
	/>
<path fill="#010101" d="M11,7.873c0.708,0,1.276-0.573,1.276-1.28c0-0.711-0.567-1.283-1.276-1.283c-0.71,0-1.283,0.572-1.283,1.283
	C9.718,7.3,10.291,7.873,11,7.873"/>
<path fill="#010101" d="M3.008,11.468c-0.675-0.22-1.395,0.146-1.614,0.818c-0.22,0.675,0.149,1.395,0.825,1.614
	c0.673,0.221,1.395-0.146,1.614-0.821C4.052,12.404,3.682,11.685,3.008,11.468"/>
<path fill="#010101" d="M5.142,16.65l1.018,0.331l1.847-5.691l-1.014-0.33c-0.947-0.308-2.04,1.435-2.35,2.382
	C4.337,14.289,4.198,16.342,5.142,16.65"/>
<path fill="#010101" d="M5.524,17.847c-0.584,0.81,0.737,2.385,1.543,2.972c0.805,0.586,2.714,1.351,3.298,0.545l0.629-0.86
	l-4.838-3.517L5.524,17.847z"/>
<path fill="#010101" d="M6.564,21.508c-0.575-0.417-1.37-0.285-1.786,0.291c-0.42,0.568-0.292,1.361,0.281,1.782
	c0.57,0.42,1.371,0.291,1.79-0.278C7.266,22.723,7.139,21.927,6.564,21.508"/>
<path fill="#010101" d="M11.627,21.363c0.585,0.804,2.494,0.041,3.3-0.547c0.804-0.585,2.123-2.162,1.537-2.97l-0.628-0.863L11,20.5
	L11.627,21.363z"/>
<path fill="#010101" d="M15.43,21.508c-0.575,0.417-0.696,1.213-0.281,1.793c0.417,0.569,1.211,0.7,1.787,0.28
	c0.574-0.421,0.701-1.217,0.284-1.788C16.803,21.219,16.006,21.091,15.43,21.508"/>
<path fill="#010101" d="M18.989,11.468c-0.674,0.216-1.041,0.94-0.822,1.615c0.22,0.675,0.938,1.038,1.616,0.817
	c0.671-0.219,1.041-0.936,0.821-1.61C20.386,11.617,19.663,11.248,18.989,11.468"/>
<path fill="#010101" d="M15.006,10.964l-1.014,0.33l1.845,5.689l1.017-0.329c0.947-0.309,0.808-2.363,0.498-3.31
	C17.046,12.399,15.949,10.656,15.006,10.964"/>
<polygon fill="#010101" points="19.057,2.091 18.563,3.568 19.563,3.568 19.074,2.091 "/>
<path fill="#010101" d="M21.996,0.172h-5.867c-0.405,0-0.729,0.352-0.729,0.757l-0.003,6.609l1.464-1.461h5.135
	c0.406,0,0.673-0.32,0.673-0.724V0.953C22.669,0.55,22.402,0.172,21.996,0.172 M20.03,5.045l-0.271-0.886h-1.391l-0.27,0.886h-0.806
	l1.365-3.985h0.814l1.36,3.985H20.03z"/>
</svg>
