<?xml version="1.0" encoding="utf-8"?>
<!-- Generator: Adobe Illustrator 15.0.0, SVG Export Plug-In . SVG Version: 6.00 Build 0)  -->
<!DOCTYPE svg PUBLIC "-//W3C//DTD SVG 1.1//EN" "http://www.w3.org/Graphics/SVG/1.1/DTD/svg11.dtd">
<svg version="1.1" id="Layer_1" xmlns="http://www.w3.org/2000/svg" xmlns:xlink="http://www.w3.org/1999/xlink" x="0px" y="0px"
	 width="24px" height="24px" viewBox="0 0 24 24" enable-background="new 0 0 24 24" xml:space="preserve">
<path fill="#010101" d="M10.97,7.873c0.709,0,1.278-0.574,1.278-1.284c0-0.709-0.568-1.28-1.278-1.28S9.687,5.88,9.687,6.589
	C9.687,7.299,10.26,7.873,10.97,7.873"/>
<path fill="#010101" d="M13.989,11.245v-1.022c0-0.995-2.029-1.495-3.023-1.495c-0.997,0-3.028,0.5-3.028,1.495v1.069v-0.046H13.989
	z"/>
<path fill="#010101" d="M5.114,16.65l1.017,0.329l1.848-5.689L6.962,10.96c-0.947-0.308-2.038,1.438-2.346,2.383
	C4.308,14.289,4.168,16.344,5.114,16.65"/>
<path fill="#010101" d="M2.98,11.467c-0.676-0.219-1.397,0.144-1.617,0.822c-0.218,0.672,0.148,1.395,0.825,1.611
	c0.675,0.22,1.396-0.146,1.613-0.82C4.023,12.405,3.654,11.688,2.98,11.467"/>
<path fill="#010101" d="M5.497,17.846c-0.586,0.812,0.735,2.386,1.541,2.972c0.805,0.584,2.713,1.354,3.298,0.549l0.629-0.865
	l-4.843-3.518L5.497,17.846z"/>
<path fill="#010101" d="M6.535,21.507c-0.575-0.416-1.371-0.285-1.787,0.285c-0.417,0.576-0.294,1.371,0.279,1.787
	c0.575,0.421,1.375,0.295,1.79-0.278C7.234,22.726,7.109,21.925,6.535,21.507"/>
<path fill="#010101" d="M11.598,21.366c0.585,0.803,2.49,0.035,3.301-0.553c0.804-0.582,2.124-2.158,1.54-2.968l-0.631-0.862
	l-4.839,3.516L11.598,21.366z"/>
<path fill="#010101" d="M15.398,21.507c-0.574,0.416-0.696,1.215-0.28,1.788c0.418,0.577,1.215,0.705,1.789,0.284
	c0.572-0.418,0.701-1.213,0.283-1.789C16.773,21.216,15.972,21.091,15.398,21.507"/>
<path fill="#010101" d="M14.976,10.963l-1.016,0.331l1.849,5.689l1.018-0.331c0.946-0.305,0.805-2.361,0.498-3.306
	C17.017,12.401,15.925,10.655,14.976,10.963"/>
<path fill="#010101" d="M18.96,11.467c-0.676,0.22-1.042,0.941-0.823,1.615c0.218,0.676,0.943,1.038,1.613,0.818
	c0.676-0.219,1.044-0.936,0.825-1.609C20.354,11.615,19.634,11.248,18.96,11.467"/>
<path fill="#010101" d="M21.968,0.172H16.1c-0.403,0-0.729,0.354-0.729,0.756l-0.004,6.609l1.469-1.459h5.132
	c0.403,0,0.732-0.322,0.732-0.726V0.953C22.7,0.549,22.371,0.172,21.968,0.172 M20.546,2.536h-0.753c0-0.295-0.06-0.472-0.18-0.605
	c-0.125-0.137-0.314-0.214-0.571-0.214c-0.234,0-0.421,0.085-0.555,0.276c-0.142,0.188-0.214,0.421-0.214,0.713v0.771
	c0,0.294,0.075,0.536,0.221,0.724c0.144,0.188,0.341,0.282,0.587,0.282c0.239,0,0.42-0.061,0.536-0.191
	c0.115-0.129,0.175-0.279,0.175-0.574h0.749l0.005,0.01c0.006,0.416-0.119,0.743-0.377,0.986c-0.264,0.244-0.627,0.366-1.086,0.366
	c-0.464,0-0.832-0.151-1.123-0.449c-0.289-0.298-0.424-0.683-0.424-1.153V2.712c0-0.469,0.133-0.855,0.413-1.152
	c0.282-0.303,0.645-0.451,1.097-0.451c0.479,0,0.848,0.123,1.12,0.366c0.266,0.247,0.397,0.601,0.386,1.022L20.546,2.536z"/>
</svg>
