<?xml version="1.0" encoding="utf-8"?>
<!-- Generator: Adobe Illustrator 15.0.0, SVG Export Plug-In . SVG Version: 6.00 Build 0)  -->
<!DOCTYPE svg PUBLIC "-//W3C//DTD SVG 1.1//EN" "http://www.w3.org/Graphics/SVG/1.1/DTD/svg11.dtd">
<svg version="1.1" id="Layer_1" xmlns="http://www.w3.org/2000/svg" xmlns:xlink="http://www.w3.org/1999/xlink" x="0px" y="0px"
	 width="24px" height="24px" viewBox="0 0 24 24" enable-background="new 0 0 24 24" xml:space="preserve">
<path fill="#010101" d="M13.989,11.248v-1.023c0-0.996-2.031-1.495-3.028-1.495c-0.995,0-3.025,0.5-3.025,1.495v1.068v-0.044H13.989
	z"/>
<path fill="#010101" d="M10.974,7.875c0.708,0,1.275-0.575,1.275-1.283c0-0.709-0.567-1.281-1.275-1.281
	c-0.713,0-1.284,0.571-1.284,1.281C9.69,7.301,10.261,7.875,10.974,7.875"/>
<path fill="#010101" d="M2.979,11.469c-0.676-0.219-1.394,0.144-1.613,0.819c-0.221,0.675,0.149,1.396,0.824,1.615
	c0.671,0.22,1.395-0.148,1.614-0.825C4.022,12.405,3.653,11.688,2.979,11.469"/>
<path fill="#010101" d="M5.114,16.652l1.017,0.33l1.85-5.69l-1.015-0.331c-0.947-0.307-2.042,1.436-2.346,2.383
	C4.31,14.292,4.167,16.345,5.114,16.652"/>
<path fill="#010101" d="M6.535,21.508c-0.573-0.416-1.37-0.284-1.786,0.286c-0.417,0.576-0.294,1.372,0.279,1.787
	c0.574,0.416,1.375,0.29,1.792-0.277C7.238,22.726,7.109,21.926,6.535,21.508"/>
<path fill="#010101" d="M5.497,17.85c-0.585,0.806,0.735,2.383,1.541,2.969c0.807,0.585,2.713,1.354,3.3,0.549l0.627-0.863
	l-4.84-3.518L5.497,17.85z"/>
<path fill="#010101" d="M11.598,21.367c0.587,0.804,2.495,0.035,3.299-0.552c0.807-0.583,2.125-2.162,1.543-2.966l-0.63-0.864
	l-4.837,3.517L11.598,21.367z"/>
<path fill="#010101" d="M15.4,21.508c-0.573,0.417-0.699,1.216-0.28,1.792c0.419,0.569,1.215,0.697,1.787,0.281
	c0.573-0.417,0.701-1.214,0.285-1.79C16.774,21.218,15.975,21.092,15.4,21.508"/>
<path fill="#010101" d="M18.961,11.468c-0.68,0.219-1.043,0.941-0.821,1.614c0.22,0.677,0.938,1.041,1.613,0.821
	c0.674-0.219,1.044-0.938,0.824-1.612C20.361,11.617,19.637,11.25,18.961,11.468"/>
<path fill="#010101" d="M14.979,10.965l-1.016,0.33l1.848,5.69l1.018-0.33c0.946-0.308,0.807-2.361,0.496-3.308
	C17.018,12.401,15.925,10.657,14.979,10.965"/>
<path fill="#010101" d="M18.916,1.652h-0.502v2.805h0.502c0.282,0,0.54-0.09,0.701-0.284c0.164-0.193,0.278-0.439,0.278-0.75V2.761
	c0-0.307-0.114-0.592-0.278-0.787C19.456,1.784,19.198,1.652,18.916,1.652"/>
<path fill="#010101" d="M21.969,0.174H16.1c-0.402,0-0.729,0.352-0.729,0.756l-0.002,6.607l1.465-1.457h5.135
	c0.405,0,0.729-0.323,0.729-0.726V0.954C22.698,0.55,22.374,0.174,21.969,0.174 M20.633,3.424c0,0.487-0.159,0.869-0.476,1.177
	c-0.315,0.308-0.717,0.446-1.202,0.446h-1.421V1.06h1.421c0.485,0,0.887,0.181,1.202,0.491c0.316,0.308,0.476,0.733,0.476,1.217
	V3.424z"/>
</svg>
