<?xml version="1.0" encoding="utf-8"?>
<!-- Generator: Adobe Illustrator 15.0.0, SVG Export Plug-In . SVG Version: 6.00 Build 0)  -->
<!DOCTYPE svg PUBLIC "-//W3C//DTD SVG 1.1//EN" "http://www.w3.org/Graphics/SVG/1.1/DTD/svg11.dtd">
<svg version="1.1" id="Layer_1" xmlns="http://www.w3.org/2000/svg" xmlns:xlink="http://www.w3.org/1999/xlink" x="0px" y="0px"
	 width="24px" height="24px" viewBox="0 0 24 24" enable-background="new 0 0 24 24" xml:space="preserve">
<path d="M12.004,14.591c-2.595,0-7.76,1.803-7.76,5.392v3.896h15.512v-3.896C19.756,16.394,14.593,14.591,12.004,14.591"/>
<path d="M7.09,6.083c0.806-1.641,2.594-2.781,4.671-2.781c2.128,0,3.95,1.196,4.729,2.902l0.898-1.998
	c0.354-0.793,0.119-1.705-0.58-2.261c-1.404-1.113-3.151-1.824-5.047-1.824c-1.841,0-3.541,0.735-4.924,1.821
	c-0.71,0.556-0.95,1.473-0.592,2.268L7.09,6.083z M10.509,1.21h0.746V0.613h1.044V1.21h0.745v1.044h-0.745v0.597h-1.044V2.254
	h-0.746V1.21z"/>
<path d="M10.262,7.214c0.066-0.106,0.062-0.241-0.011-0.343c-0.074-0.102-0.201-0.146-0.322-0.112
	C9.207,6.951,8.041,7.494,7.658,9.002c0.182,2.133,1.97,3.807,4.15,3.807c2.304,0,4.182-1.866,4.182-4.167
	c0-1.535-0.858-2.875-2.053-3.597v0.001c0,0-1.383,2.142-3.725,2.921C10.119,8,10.009,7.963,9.95,7.881
	C9.899,7.799,9.899,7.689,9.962,7.612C10.066,7.492,10.17,7.355,10.262,7.214"/>
</svg>
