<?xml version="1.0" encoding="utf-8"?>
<!-- Generator: Adobe Illustrator 15.0.0, SVG Export Plug-In . SVG Version: 6.00 Build 0)  -->
<!DOCTYPE svg PUBLIC "-//W3C//DTD SVG 1.1//EN" "http://www.w3.org/Graphics/SVG/1.1/DTD/svg11.dtd">
<svg version="1.1" id="Layer_1" xmlns="http://www.w3.org/2000/svg" xmlns:xlink="http://www.w3.org/1999/xlink" x="0px" y="0px"
	 width="24px" height="24px" viewBox="0 0 24 24" enable-background="new 0 0 24 24" xml:space="preserve">
<path fill="#010101" d="M1.518,23.812h3.544v-3.987h3.542v3.987h3.546V4.469H1.518V23.812z M7.866,6.685h2.217V8.75H7.866V6.685z
	 M7.866,10.966h2.217v2.066H7.866V10.966z M7.866,15.248h2.217v2.214H7.866V15.248z M3.584,6.685H5.8V8.75H3.584V6.685z
	 M3.584,10.966H5.8v2.066H3.584V10.966z M3.584,15.248H5.8v2.214H3.584V15.248z"/>
<path fill="#010101" d="M21.699,0.189H15.83c-0.404,0-0.73,0.364-0.73,0.768l-0.006,6.604l1.471-1.466h5.135
	c0.402,0,0.783-0.299,0.783-0.703v-4.4C22.482,0.588,22.102,0.189,21.699,0.189 M20.277,2.551h-0.752
	c0-0.297-0.064-0.46-0.184-0.593c-0.123-0.139-0.311-0.21-0.57-0.21c-0.232,0-0.396,0.094-0.533,0.28
	c-0.133,0.187-0.186,0.425-0.186,0.714v0.771c0,0.295,0.057,0.537,0.197,0.724c0.145,0.188,0.328,0.283,0.572,0.283
	c0.24,0,0.414-0.073,0.529-0.204c0.117-0.13,0.17-0.291,0.17-0.587h0.752l0.004,0.024c0.006,0.415-0.119,0.749-0.381,0.992
	c-0.262,0.243-0.621,0.368-1.086,0.368s-0.805-0.15-1.096-0.447c-0.289-0.299-0.398-0.682-0.398-1.152V2.749
	c0-0.465,0.105-0.848,0.391-1.149c0.279-0.302,0.631-0.451,1.084-0.451c0.477,0,0.838,0.122,1.107,0.366
	c0.27,0.244,0.395,0.586,0.389,1.009L20.277,2.551z"/>
</svg>
