<?xml version="1.0" encoding="utf-8"?>
<!-- Generator: Adobe Illustrator 15.0.0, SVG Export Plug-In . SVG Version: 6.00 Build 0)  -->
<!DOCTYPE svg PUBLIC "-//W3C//DTD SVG 1.1//EN" "http://www.w3.org/Graphics/SVG/1.1/DTD/svg11.dtd">
<svg version="1.1" id="Layer_1" xmlns="http://www.w3.org/2000/svg" xmlns:xlink="http://www.w3.org/1999/xlink" x="0px" y="0px"
	 width="24px" height="24px" viewBox="0 0 24 24" enable-background="new 0 0 24 24" xml:space="preserve">
<path fill="#010101" d="M18.685,1.81h-0.559v2.657h0.559c0.284,0,0.51-0.079,0.673-0.271c0.16-0.193,0.247-0.427,0.247-0.738v-0.66
	c0-0.307-0.087-0.532-0.247-0.725C19.194,1.878,18.969,1.81,18.685,1.81"/>
<path fill="#010101" d="M21.739,0.185h-5.87c-0.401,0-0.729,0.365-0.729,0.768l-0.004,6.604l1.469-1.465h5.134
	c0.403,0,0.669-0.299,0.669-0.702V0.989C22.408,0.584,22.143,0.185,21.739,0.185 M20.34,3.459c0,0.487-0.129,0.855-0.445,1.165
	c-0.313,0.308-0.685,0.433-1.171,0.433h-1.337V1.219h1.337c0.486,0,0.857,0.119,1.171,0.427c0.316,0.312,0.445,0.672,0.445,1.158
	V3.459z"/>
<path fill="#010101" d="M1.591,23.814h3.543v-3.992h3.543v3.992h3.546V4.467H1.591V23.814z M7.939,6.682h2.216v2.066H7.939V6.682z
	 M7.939,10.963h2.216v2.066H7.939V10.963z M7.939,15.246h2.216v2.214H7.939V15.246z M3.656,6.682h2.216v2.066H3.656V6.682z
	 M3.656,10.963h2.216v2.066H3.656V10.963z M3.656,15.246h2.216v2.214H3.656V15.246z"/>
</svg>
