<?xml version="1.0" encoding="utf-8"?>
<!-- Generator: Adobe Illustrator 15.0.0, SVG Export Plug-In . SVG Version: 6.00 Build 0)  -->
<!DOCTYPE svg PUBLIC "-//W3C//DTD SVG 1.1//EN" "http://www.w3.org/Graphics/SVG/1.1/DTD/svg11.dtd">
<svg version="1.1" id="Layer_1" xmlns="http://www.w3.org/2000/svg" xmlns:xlink="http://www.w3.org/1999/xlink" x="0px" y="0px"
	 width="24px" height="24px" viewBox="0 0 24 24" enable-background="new 0 0 24 24" xml:space="preserve">
<path d="M12.005,10.671c2.804,0,5.048-2.261,5.048-5.063c0-2.802-2.244-5.063-5.048-5.063c-2.803,0-5.064,2.261-5.064,5.063
	C6.94,8.41,9.202,10.671,12.005,10.671"/>
<path d="M20.773,14.751c-2.895-1.104-4.627-2.242-4.627-2.242l-2.23,7.049l-0.307,0.956l-1.001-2.857
	c2.3-3.199-0.171-3.384-0.603-3.384h-0.02c-0.424,0-2.893,0.185-0.603,3.384l-1.003,2.843l-0.306-0.951l-2.231-7.046
	c0,0-1.732,1.138-4.623,2.248c-3.185,1.154-2.985,3.794-3.05,8.704h23.66C23.758,18.544,23.959,15.905,20.773,14.751"/>
</svg>
