<?xml version="1.0" encoding="utf-8"?>
<!-- Generator: Adobe Illustrator 15.0.0, SVG Export Plug-In . SVG Version: 6.00 Build 0)  -->
<!DOCTYPE svg PUBLIC "-//W3C//DTD SVG 1.1//EN" "http://www.w3.org/Graphics/SVG/1.1/DTD/svg11.dtd">
<svg version="1.1" id="Layer_1" xmlns="http://www.w3.org/2000/svg" xmlns:xlink="http://www.w3.org/1999/xlink" x="0px" y="0px"
	 width="24px" height="24px" viewBox="0 0 24 24" enable-background="new 0 0 24 24" xml:space="preserve">
<path d="M11.205,11.91c-1.983-0.407-3.477-2.16-3.477-4.265c0-1.594,0.866-2.973,2.143-3.732c0.407,0.877,1.238,1.773,2.381,2.435
	c1.499,0.864,3.089,1.077,4.121,0.665c0.031,0.208,0.062,0.416,0.062,0.632c0,2.105-1.49,3.858-3.473,4.265
	c2.784-0.426,4.926-2.811,4.926-5.717c0-3.205-2.6-5.804-5.805-5.804c-3.204,0-5.805,2.599-5.805,5.804
	C6.278,9.1,8.42,11.484,11.205,11.91"/>
<path d="M16.435,13.422h-0.723c0,1.973-1.625,3.628-3.629,3.628c-2.004,0-3.628-1.655-3.628-3.628H7.729
	c-2.403,0-4.396,1.976-4.396,4.383v4.352c0,0.802,0.692,1.454,1.494,1.454h14.511c0.803,0,1.41-0.652,1.41-1.454v-4.352
	C20.748,15.397,18.843,13.422,16.435,13.422 M19.105,19.666h-1.15v1.151h-1.644v-1.151h-1.313v-1.645h1.313v-1.148h1.644v1.148h1.15
	V19.666z"/>
</svg>
