<?xml version="1.0" encoding="utf-8"?>
<!-- Generator: Adobe Illustrator 15.0.0, SVG Export Plug-In . SVG Version: 6.00 Build 0)  -->
<!DOCTYPE svg PUBLIC "-//W3C//DTD SVG 1.1//EN" "http://www.w3.org/Graphics/SVG/1.1/DTD/svg11.dtd">
<svg version="1.1" id="Layer_1" xmlns="http://www.w3.org/2000/svg" xmlns:xlink="http://www.w3.org/1999/xlink" x="0px" y="0px"
	 width="24px" height="24px" viewBox="0 0 24 24" enable-background="new 0 0 24 24" xml:space="preserve">
<path d="M16.296,13.961l-3.053,3.18c-0.665,0.69-1.765,0.69-2.43,0l-3.077-3.18c-2.363,0-4.295,1.915-4.295,4.279v4.278
	c0,0.79,0.673,1.35,1.463,1.35h14.264c0.786,0,1.39-0.56,1.39-1.35V18.24C20.558,15.876,18.66,13.961,16.296,13.961"/>
<path d="M14.098,14.277L14.098,14.277c-0.162,0.263,0.035,0.547,0.294,0.643c0.056,0.021,0.113,0.029,0.173,0.029
	c0.202,0,0.39-0.125,0.467-0.327c0.002-0.006,0.006-0.012,0.008-0.018c0.085-0.258-0.046-0.541-0.31-0.636
	C14.472,13.881,14.263,14.019,14.098,14.277"/>
<path d="M12.057,15.151h-0.024c-0.274,0-0.498,0.207-0.498,0.481c0,0.275,0.223,0.484,0.498,0.484h0.03
	c0.273,0,0.496-0.212,0.496-0.486c-0.001-0.273-0.227-0.479-0.499-0.479H12.057z"/>
<path d="M13.313,14.913l-0.02,0.009c-0.258,0.1-0.381,0.388-0.281,0.645c0.077,0.2,0.264,0.318,0.465,0.318
	c0.057,0,0.119-0.011,0.179-0.036l0.029-0.01c0.255-0.101,0.376-0.395,0.275-0.646C13.86,14.937,13.563,14.813,13.313,14.913"/>
<path d="M10.77,14.924c-0.257-0.1-0.547,0.028-0.647,0.285c-0.096,0.257,0.03,0.548,0.287,0.644c0.01,0.009,0.019,0.011,0.029,0.012
	c0.058,0.021,0.117,0.033,0.177,0.033c0.203,0,0.392-0.124,0.467-0.321c0.098-0.259-0.032-0.547-0.29-0.646L10.77,14.924z"/>
<path d="M9.318,14.009c-0.255,0.101-0.379,0.389-0.279,0.646l0.008,0.017c0.08,0.197,0.261,0.314,0.457,0.314
	c0.063,0,0.128-0.012,0.191-0.037c0.252-0.102,0.377-0.395,0.272-0.648l-0.006-0.009C9.868,14.035,9.577,13.908,9.318,14.009"/>
<path d="M17.813,5.735c0-3.495-2.278-5.603-5.78-5.603h-0.064c-2.952,0-3.485,1.927-3.485,1.927
	C6.165,3.103,6.185,5.431,6.185,5.431v6.67l11.627,0.015V5.735z M15.049,9.684c-0.748,0.766-1.79,1.243-2.938,1.243
	c-1.147,0-2.187-0.475-2.929-1.243C8.473,8.95,8.034,7.951,8.034,6.85c0-0.369,0.052-0.731,0.146-1.072
	C8.761,5.433,9.6,4.813,9.97,3.929c0,0,0.641,0.747,1.877,1.46c0.26,0.149,0.547,0.297,0.858,0.436
	c0.931,0.417,2.096,0.756,3.479,0.828c0.003,0.064,0.004,0.132,0.004,0.201C16.188,7.953,15.758,8.949,15.049,9.684"/>
</svg>
