<?xml version="1.0" encoding="utf-8"?>
<!-- Generator: Adobe Illustrator 15.0.0, SVG Export Plug-In . SVG Version: 6.00 Build 0)  -->
<!DOCTYPE svg PUBLIC "-//W3C//DTD SVG 1.1//EN" "http://www.w3.org/Graphics/SVG/1.1/DTD/svg11.dtd">
<svg version="1.1" id="Layer_1" xmlns="http://www.w3.org/2000/svg" xmlns:xlink="http://www.w3.org/1999/xlink" x="0px" y="0px"
	 width="24px" height="24px" viewBox="0 0 24 24" enable-background="new 0 0 24 24" xml:space="preserve">
<path fill="#010101" d="M5.115,11.939H4.896c-0.181,0.726-0.436,1.631-0.681,2.539c1-0.004,1.627-0.188,1.936-1.178
	C6.403,12.491,6.305,11.939,5.115,11.939"/>
<path fill="#010101" d="M23.701,12.319c-0.569-2.733-4.278-4.404-8.894-4.404c-1.354,0-2.786,0.144-4.239,0.448
	C4.615,9.604,0.224,13.1,0.223,16.426C0.222,16.68,0.248,16.932,0.3,17.184c0.432,2.064,2.588,3.531,5.586,4.129
	c0.634-2.445,2.089-8.039,2.089-8.039c0.288-1.105,0.446-1.533,0.729-2.015c0.367-0.623,0.958-1.137,1.785-1.212
	c0.45-0.04,1.121,0.017,1.496,0.28c0.354,0.249,0.399,0.509,0.388,0.745c-0.026,0.49-0.324,0.817-0.803,0.817
	c-0.491,0-0.644-0.36-0.645-0.597c-0.003-0.323,0.188-0.372,0.186-0.611c-0.001-0.123-0.112-0.313-0.419-0.266
	c-0.378,0.059-0.692,0.359-0.898,0.882c-0.048,0.123-0.106,0.259-0.181,0.537L9.236,13.27h2.482
	c-0.324,1.211-0.875,3.268-1.028,3.873H9.438l0.86-3.146H9.069l-1.962,7.527c0.636,0.072,1.298,0.098,1.982,0.096
	c1.319-0.004,2.719-0.152,4.148-0.449c5.969-1.246,10.534-4.777,10.539-8.113C23.777,12.811,23.753,12.563,23.701,12.319
	 M7.473,13.396c-0.235,1.012-0.841,1.715-3.423,1.719c-0.255,0.939-0.475,1.785-0.553,2.027H2.234
	c0.231-0.848,1.555-5.687,1.555-5.687h1.466C7.505,11.456,7.663,12.579,7.473,13.396 M14.666,17.143h-3.211
	c0-1.211,2.028-2.605,2.413-3.197l-1.75-0.023l0.169-0.652h3.138c-0.361,1.211-2.059,2.18-2.529,3.146h1.979L14.666,17.143z
	 M16.312,15.879c0,0.371,0.315,0.686,0.754,0.686c0.586,0,1.141-0.537,1.206-0.604l0.218,0.584c-0.176,0.182-0.371,0.34-0.594,0.457
	c-0.352,0.182-0.753,0.279-1.193,0.279c-0.955,0-1.6-0.596-1.6-1.48c0-1.387,1.248-2.57,2.583-2.57c0.664,0,1.238,0.307,1.238,0.834
	c0,0.545-0.435,1.104-1.09,1.316c-0.408,0.139-0.82,0.219-1.513,0.219C16.305,15.744,16.312,15.801,16.312,15.879 M22.323,14.625
	c-0.232,0-0.334-0.092-0.374-0.133c-0.106-0.105-0.123-0.215-0.138-0.305c-0.014-0.107-0.049-0.211-0.17-0.23
	c-0.177-0.027-0.32,0.043-0.471,0.178c-0.202,0.178-0.375,0.463-0.501,0.736c-0.087,0.189-0.15,0.361-0.187,0.488l-0.488,1.783
	h-1.262l1.034-3.873h1.226l-0.221,0.795c0.289-0.348,0.826-0.822,1.321-0.822c0.695,0,0.801,0.422,0.801,0.742
	C22.895,14.361,22.63,14.625,22.323,14.625"/>
<path fill="#010101" d="M17.985,14.113c0-0.109-0.067-0.281-0.374-0.281c-0.14,0-0.366,0.072-0.553,0.217
	c-0.313,0.24-0.555,0.619-0.647,1.043c0.571-0.02,0.894-0.105,1.188-0.338C17.865,14.545,17.985,14.311,17.985,14.113"/>
<path fill="#010101" d="M5.633,7.1c0.331,0,0.615-0.224,0.615-0.555V2.937c0-0.331-0.284-0.557-0.615-0.557h-4.81
	c-0.33,0-0.598,0.248-0.598,0.579L0.223,8.336L1.425,7.1H5.633z M2.013,4.379c0-0.384,0.101-0.698,0.333-0.945
	c0.231-0.245,0.525-0.369,0.896-0.369c0.391,0,0.693,0.1,0.913,0.301c0.22,0.201,0.325,0.472,0.319,0.817L4.468,4.195H3.852
	c0-0.242-0.05-0.366-0.15-0.477c-0.1-0.11-0.255-0.165-0.467-0.165c-0.189,0-0.339,0.078-0.451,0.232
	c-0.111,0.153-0.166,0.35-0.166,0.588v0.632c0,0.241,0.058,0.439,0.175,0.593s0.275,0.23,0.475,0.23
	c0.199,0,0.344-0.069,0.439-0.175c0.095-0.106,0.142-0.249,0.142-0.491h0.615l0.005,0.03C4.474,5.533,4.37,5.811,4.156,6.01
	c-0.213,0.2-0.51,0.304-0.889,0.304c-0.381,0-0.676-0.12-0.914-0.364C2.117,5.705,2.013,5.392,2.013,5.007V4.379z"/>
</svg>
