<?xml version="1.0" encoding="utf-8"?>
<!-- Generator: Adobe Illustrator 15.0.0, SVG Export Plug-In . SVG Version: 6.00 Build 0)  -->
<!DOCTYPE svg PUBLIC "-//W3C//DTD SVG 1.1//EN" "http://www.w3.org/Graphics/SVG/1.1/DTD/svg11.dtd">
<svg version="1.1" id="Layer_1" xmlns="http://www.w3.org/2000/svg" xmlns:xlink="http://www.w3.org/1999/xlink" x="0px" y="0px"
	 width="24px" height="24px" viewBox="0 0 24 24" enable-background="new 0 0 24 24" xml:space="preserve">
<path fill="#231F20" d="M17.986,11.123c0-0.108-0.067-0.279-0.374-0.279c-0.14,0-0.367,0.074-0.553,0.217
	c-0.313,0.24-0.555,0.619-0.648,1.042c0.571-0.019,0.894-0.105,1.188-0.337C17.865,11.557,17.986,11.321,17.986,11.123"/>
<path fill="#231F20" d="M5.116,8.95h-0.22c-0.181,0.726-0.436,1.632-0.681,2.538c1-0.002,1.628-0.186,1.936-1.176
	C6.404,9.502,6.305,8.95,5.116,8.95"/>
<path fill="#231F20" d="M23.701,9.33c-0.569-2.733-4.277-4.405-8.894-4.405c-1.354,0-2.786,0.145-4.24,0.448
	C4.615,6.614,0.225,10.112,0.223,13.436C0.222,13.69,0.248,13.943,0.3,14.193c0.431,2.065,2.588,3.532,5.585,4.129
	c0.634-2.443,2.09-8.038,2.09-8.038C8.262,9.179,8.421,8.751,8.704,8.27c0.368-0.623,0.959-1.137,1.786-1.212
	c0.451-0.04,1.12,0.017,1.495,0.279c0.355,0.248,0.399,0.508,0.387,0.746c-0.024,0.489-0.323,0.817-0.802,0.817
	c-0.49,0-0.643-0.36-0.645-0.598c-0.003-0.323,0.188-0.372,0.187-0.612C11.11,7.568,11,7.377,10.693,7.425
	c-0.378,0.059-0.694,0.359-0.899,0.882C9.748,8.43,9.688,8.566,9.613,8.845l-0.377,1.437h2.482c-0.325,1.21-0.874,3.268-1.028,3.872
	H9.438l0.86-3.146H9.069l-1.962,7.527c0.635,0.072,1.298,0.097,1.982,0.096c1.32-0.002,2.719-0.151,4.149-0.449
	c5.968-1.246,10.533-4.779,10.538-8.113C23.777,9.822,23.754,9.573,23.701,9.33 M7.473,10.407c-0.236,1.011-0.841,1.714-3.423,1.718
	c-0.255,0.94-0.475,1.787-0.553,2.028H2.235C2.466,13.306,3.79,8.467,3.79,8.467h1.466C7.505,8.467,7.664,9.59,7.473,10.407
	 M14.667,14.153h-3.211c0-1.21,2.027-2.605,2.414-3.198l-1.75-0.023l0.169-0.651h3.138c-0.362,1.21-2.06,2.178-2.529,3.146h1.977
	L14.667,14.153z M16.312,12.891c0,0.369,0.314,0.686,0.753,0.686c0.587,0,1.142-0.539,1.208-0.604l0.218,0.586
	c-0.176,0.18-0.371,0.338-0.594,0.454c-0.353,0.184-0.754,0.281-1.193,0.281c-0.955,0-1.602-0.597-1.602-1.481
	c0-1.388,1.249-2.571,2.584-2.571c0.664,0,1.239,0.308,1.239,0.833c0,0.545-0.435,1.105-1.09,1.318
	c-0.409,0.137-0.821,0.218-1.514,0.218C16.305,12.755,16.312,12.812,16.312,12.891 M22.324,11.637c-0.233,0-0.334-0.094-0.375-0.134
	c-0.106-0.106-0.124-0.215-0.137-0.306c-0.015-0.106-0.049-0.21-0.172-0.229c-0.176-0.028-0.319,0.042-0.469,0.176
	c-0.203,0.18-0.376,0.465-0.501,0.738c-0.088,0.188-0.151,0.361-0.188,0.488l-0.488,1.783h-1.261l1.034-3.872h1.225l-0.22,0.794
	c0.287-0.349,0.824-0.822,1.32-0.822c0.696,0,0.801,0.42,0.801,0.742C22.895,11.372,22.628,11.637,22.324,11.637"/>
</svg>
