<?xml version="1.0" encoding="utf-8"?>
<!-- Generator: Adobe Illustrator 15.0.0, SVG Export Plug-In . SVG Version: 6.00 Build 0)  -->
<!DOCTYPE svg PUBLIC "-//W3C//DTD SVG 1.1//EN" "http://www.w3.org/Graphics/SVG/1.1/DTD/svg11.dtd">
<svg version="1.1" id="Layer_1" xmlns="http://www.w3.org/2000/svg" xmlns:xlink="http://www.w3.org/1999/xlink" x="0px" y="0px"
	 width="24px" height="24px" viewBox="0 0 24 24" enable-background="new 0 0 24 24" xml:space="preserve">
<polygon fill="#231F20" points="3.315,3.832 3.302,3.832 2.898,5.163 3.717,5.163 "/>
<path fill="#231F20" d="M5.712,7.1c0.331,0,0.649-0.224,0.649-0.555V2.938c0-0.331-0.318-0.557-0.649-0.557H0.903
	c-0.331,0-0.598,0.248-0.598,0.579L0.302,8.336L1.504,7.1H5.712z M2.976,3.106h0.669l1.113,3.267H4.1L3.879,5.647H2.737L2.516,6.373
	H1.857L2.976,3.106z"/>
<path fill="#231F20" d="M23.78,12.319c-0.569-2.733-4.277-4.404-8.894-4.404c-1.354,0-2.785,0.144-4.239,0.448
	C4.693,9.604,0.304,13.1,0.302,16.426c-0.001,0.254,0.025,0.506,0.078,0.758c0.431,2.064,2.588,3.531,5.584,4.129
	c0.635-2.445,2.091-8.039,2.091-8.039c0.287-1.105,0.445-1.533,0.729-2.015c0.368-0.623,0.958-1.137,1.786-1.212
	c0.449-0.04,1.12,0.017,1.495,0.28c0.354,0.249,0.398,0.509,0.387,0.745c-0.024,0.49-0.322,0.817-0.801,0.817
	c-0.491,0-0.644-0.36-0.646-0.597c-0.003-0.323,0.188-0.372,0.187-0.611c-0.002-0.123-0.113-0.313-0.42-0.266
	c-0.378,0.059-0.692,0.359-0.897,0.882c-0.049,0.123-0.107,0.259-0.182,0.537L9.316,13.27h2.481
	c-0.324,1.211-0.875,3.268-1.028,3.873H9.517l0.861-3.146H9.148l-1.961,7.527c0.635,0.072,1.297,0.098,1.982,0.096
	c1.318-0.004,2.719-0.152,4.148-0.449c5.968-1.246,10.533-4.777,10.538-8.113C23.856,12.811,23.833,12.563,23.78,12.319
	 M7.551,13.396c-0.234,1.012-0.84,1.715-3.422,1.719c-0.255,0.939-0.475,1.785-0.554,2.027H2.314
	c0.23-0.848,1.555-5.687,1.555-5.687h1.466C7.585,11.456,7.742,12.579,7.551,13.396 M14.746,17.143h-3.212
	c0-1.211,2.027-2.605,2.414-3.197l-1.751-0.023l0.17-0.652h3.138c-0.362,1.211-2.06,2.18-2.529,3.146h1.977L14.746,17.143z
	 M16.391,15.879c0,0.371,0.314,0.686,0.753,0.686c0.587,0,1.142-0.537,1.208-0.604l0.218,0.584c-0.176,0.182-0.371,0.34-0.594,0.457
	c-0.353,0.182-0.754,0.279-1.193,0.279c-0.955,0-1.602-0.596-1.602-1.48c0-1.387,1.249-2.57,2.584-2.57
	c0.664,0,1.239,0.307,1.239,0.834c0,0.545-0.435,1.104-1.09,1.316c-0.409,0.139-0.821,0.219-1.513,0.219
	C16.384,15.744,16.391,15.801,16.391,15.879 M22.403,14.625c-0.232,0-0.334-0.092-0.375-0.133c-0.106-0.105-0.124-0.215-0.137-0.305
	c-0.015-0.107-0.049-0.211-0.172-0.23C21.544,13.93,21.4,14,21.251,14.135c-0.203,0.178-0.376,0.463-0.501,0.736
	c-0.088,0.189-0.151,0.361-0.188,0.488l-0.488,1.783h-1.261l1.034-3.873h1.225l-0.22,0.795c0.287-0.348,0.824-0.822,1.32-0.822
	c0.696,0,0.801,0.422,0.801,0.742C22.974,14.361,22.707,14.625,22.403,14.625"/>
<path fill="#231F20" d="M18.065,14.113c0-0.109-0.067-0.281-0.374-0.281c-0.14,0-0.367,0.072-0.553,0.217
	c-0.313,0.24-0.555,0.619-0.648,1.043c0.571-0.02,0.894-0.105,1.188-0.338C17.944,14.545,18.065,14.311,18.065,14.113"/>
<path fill="#231F20" d="M5.194,11.939H4.976c-0.182,0.726-0.437,1.631-0.682,2.539c1-0.004,1.629-0.188,1.938-1.178
	C6.482,12.491,6.385,11.939,5.194,11.939"/>
</svg>
