<?xml version="1.0" encoding="utf-8"?>
<!-- Generator: Adobe Illustrator 15.0.0, SVG Export Plug-In . SVG Version: 6.00 Build 0)  -->
<!DOCTYPE svg PUBLIC "-//W3C//DTD SVG 1.1//EN" "http://www.w3.org/Graphics/SVG/1.1/DTD/svg11.dtd">
<svg version="1.1" id="Layer_1" xmlns="http://www.w3.org/2000/svg" xmlns:xlink="http://www.w3.org/1999/xlink" x="0px" y="0px"
	 width="24px" height="24px" viewBox="0 0 24 24" enable-background="new 0 0 24 24" xml:space="preserve">
<path d="M22.651,15.507l-3.783-2.363c-0.168-0.103-0.257-0.276-0.257-0.475c0-0.195,0.095-0.368,0.257-0.475l3.783-2.367
	c0.64-0.404,0.837-1.255,0.433-1.901l-2.012-3.21C20.82,4.311,20.38,4.071,19.9,4.071c-0.259,0-0.52,0.072-0.744,0.217l-3.015,1.933
	c-0.219,0.142-0.499,0.108-0.683-0.066c-0.079-0.076-0.166-0.206-0.166-0.404V1.529c0-0.762-0.631-1.418-1.391-1.418h-3.797
	c-0.763,0-1.295,0.656-1.295,1.418v4.244c0,0.349-0.336,0.563-0.609,0.563c-0.103,0-0.225-0.029-0.314-0.087L4.849,4.355
	C4.63,4.213,4.37,4.142,4.114,4.142c-0.482,0-0.921,0.24-1.173,0.65L0.917,8.009c-0.191,0.31-0.255,0.686-0.176,1.04
	C0.826,9.41,1.042,9.715,1.359,9.914L5,12.194c0.17,0.106,0.265,0.279,0.265,0.475c0,0.199-0.099,0.37-0.266,0.475l-3.64,2.281
	c-0.316,0.198-0.533,0.507-0.617,0.863c-0.082,0.36-0.017,0.729,0.175,1.043l2.023,3.217c0.252,0.405,0.686,0.65,1.166,0.65
	c0.26,0,0.512-0.08,0.732-0.209l3.027-1.902c0.09-0.052,0.233-0.082,0.336-0.082c0.272,0,0.609,0.212,0.609,0.563v2.975
	c0,0.765,0.532,1.348,1.295,1.348h3.797c0.76,0,1.391-0.583,1.391-1.348v-2.975c0-0.351,0.288-0.566,0.56-0.566
	c0.104,0,0.208,0.034,0.296,0.09l3.007,1.953c0.226,0.145,0.486,0.225,0.75,0.225c0.476,0,0.918-0.246,1.173-0.65l2.006-3.204
	C23.488,16.77,23.291,15.917,22.651,15.507 M7.314,9.487C7.285,9.275,7.471,9.116,7.69,9.116h6.63c0.219,0,0.366,0.159,0.343,0.371
	c-0.183,1.673-1.531,2.972-3.152,3.22v2.376c-0.358-0.145-0.722-0.25-1.08-0.324v-2.052C8.81,12.459,7.494,11.161,7.314,9.487
	 M12.096,18.667H9.908c-0.115,0-0.206-0.065-0.185-0.173c0.056-0.323,0.226-0.57,0.472-0.761c0.042-0.029,0.077-0.064,0.121-0.088
	c0.039-0.026,0.115-0.049,0.115-0.067V16.98c0.358,0.092,0.722,0.183,1.08,0.346v0.252c0,0.021,0.107,0.041,0.146,0.067
	c0.044,0.027,0.109,0.059,0.148,0.088c0.246,0.19,0.42,0.438,0.474,0.761C12.299,18.605,12.213,18.667,12.096,18.667 M14.648,17.806
	c-0.009,0.024-0.018,0.052-0.026,0.083c-0.007,0.011-0.01,0.022-0.016,0.031c-0.016,0.035-0.034,0.068-0.058,0.102
	c-0.014,0.021-0.026,0.037-0.042,0.055c-0.137,0.159-0.326,0.235-0.517,0.235c-0.156,0-0.313-0.06-0.442-0.172
	c-0.95-0.813-2.176-1.274-3.383-1.632l0,0c-0.269,0-0.521-0.113-0.758-0.262c-0.488-0.298-0.781-0.835-0.781-1.412
	c0-0.896,0.544-1.634,1.441-1.671v1.366c-0.355,0.079-0.374,0.496,0.169,0.614c0.123,0.024,0.218,0.059,0.338,0.089
	c0.333,0.081,0.659,0.184,0.984,0.3c1.038,0.357,2.039,0.872,2.873,1.589C14.635,17.298,14.709,17.562,14.648,17.806 M16.941,11.837
	c-0.466,1.571-1.926,2.687-3.568,2.687h-1.32v-1.443h1.32c1.178,0,2.216-0.884,2.358-2.052c0.179-1.413-0.856-2.81-2.343-2.81
	c-0.464,0-0.911,0.176-1.276,0.36h-1.882c0.149-0.185,0.306-0.424,0.51-0.606c0.335-0.298,0.727-0.517,1.143-0.678
	c0.8-0.313,1.698-0.355,2.524-0.123c1.103,0.307,1.973,1.141,2.401,2.175c0.127,0.311,0.214,0.642,0.256,0.982
	C17.131,10.832,17.088,11.351,16.941,11.837"/>
</svg>
