<?xml version="1.0" encoding="utf-8"?>
<!-- Generator: Adobe Illustrator 15.0.0, SVG Export Plug-In . SVG Version: 6.00 Build 0)  -->
<!DOCTYPE svg PUBLIC "-//W3C//DTD SVG 1.1//EN" "http://www.w3.org/Graphics/SVG/1.1/DTD/svg11.dtd">
<svg version="1.1" id="Layer_1" xmlns="http://www.w3.org/2000/svg" xmlns:xlink="http://www.w3.org/1999/xlink" x="0px" y="0px"
	 width="24px" height="24px" viewBox="0 0 24 24" enable-background="new 0 0 24 24" xml:space="preserve">
<polygon points="18.647,1.959 18.153,3.585 19.155,3.585 18.665,1.959 "/>
<path d="M21.589,0.188h-5.868c-0.404,0-0.731,0.309-0.731,0.711l-0.003,6.559l1.469-1.512h5.134c0.402,0,0.688-0.264,0.688-0.666
	V0.878C22.277,0.474,21.991,0.188,21.589,0.188 M19.62,5.059l-0.267-0.885H17.96l-0.269,0.885h-0.806l1.363-3.985h0.816l1.359,3.985
	H19.62z"/>
<path d="M19.704,16.98l-3.096-1.939c-0.137-0.088-0.213-0.229-0.213-0.391c0-0.16,0.077-0.305,0.213-0.389l3.096-1.94
	c0.527-0.331,0.688-1.03,0.359-1.561l-1.65-2.627c-0.21-0.333-0.563-0.531-0.958-0.531c-0.216,0-0.427,0.06-0.61,0.18l-2.47,1.583
	c-0.184,0.117-0.396,0.089-0.545-0.056c-0.064-0.061-0.116-0.167-0.116-0.329V5.52c0-0.624-0.556-1.199-1.175-1.199H9.423
	c-0.624,0-1.172,0.575-1.172,1.199v3.479c0,0.285-0.219,0.46-0.442,0.46c-0.084,0-0.155-0.024-0.231-0.072L5.105,7.836
	C4.924,7.722,4.717,7.661,4.506,7.661c-0.394,0-0.75,0.198-0.957,0.532l-1.657,2.638c-0.159,0.256-0.21,0.559-0.14,0.853
	c0.067,0.296,0.244,0.546,0.5,0.707l2.986,1.871c0.14,0.084,0.218,0.229,0.218,0.389c0,0.162-0.079,0.303-0.218,0.391l-2.986,1.871
	c-0.256,0.16-0.432,0.408-0.499,0.701c-0.072,0.297-0.02,0.602,0.139,0.859l1.656,2.633c0.208,0.336,0.566,0.531,0.958,0.531
	c0.213,0,0.421-0.059,0.6-0.172l2.479-1.553c0.077-0.049,0.137-0.07,0.222-0.07c0.223,0,0.442,0.174,0.442,0.461v2.439
	c0,0.625,0.548,1.07,1.172,1.07h3.116c0.619,0,1.175-0.445,1.175-1.07v-2.441c0-0.285,0.217-0.461,0.438-0.461
	c0.088,0,0.158,0.023,0.235,0.072l2.46,1.602c0.185,0.119,0.396,0.182,0.613,0.182c0.393,0,0.748-0.199,0.958-0.531l1.646-2.623
	C20.393,18.01,20.231,17.311,19.704,16.98 M7.155,12.027c-0.025-0.179,0.111-0.323,0.288-0.323h5.436
	c0.181,0,0.318,0.145,0.299,0.323c-0.151,1.369-1.235,2.449-2.565,2.654v1.947c-0.296-0.117-0.59-0.203-0.884-0.266v-1.682
	C8.397,14.477,7.306,13.396,7.155,12.027 M11.057,19.676H9.263c-0.093,0-0.162-0.105-0.146-0.193
	c0.042-0.27,0.189-0.521,0.392-0.682c0.032-0.025,0.072-0.051,0.108-0.072c0.033-0.02,0.112-0.039,0.112-0.055v-0.49
	c0.294,0.078,0.588,0.146,0.884,0.281v0.209c0,0.016,0.072,0.035,0.103,0.055c0.036,0.023,0.07,0.047,0.102,0.072
	c0.202,0.16,0.345,0.412,0.388,0.682C11.223,19.57,11.15,19.676,11.057,19.676 M13.148,18.859c-0.008,0.021-0.014,0.047-0.022,0.064
	c-0.003,0.01-0.011,0.021-0.013,0.029c-0.015,0.029-0.028,0.057-0.047,0.08c-0.01,0.018-0.021,0.031-0.035,0.045
	c-0.111,0.131-0.265,0.189-0.423,0.189c-0.124,0-0.257-0.059-0.361-0.15c-0.781-0.668-1.785-1.064-2.774-1.361H9.473
	c-0.218,0-0.456-0.072-0.649-0.193c-0.4-0.244-0.668-0.668-0.668-1.137c0-0.738,0.54-1.34,1.13-1.371v1.119
	c-0.15,0.064-0.255,0.406,0.189,0.506c0.1,0.021,0.235,0.045,0.336,0.07c0.271,0.068,0.54,0.152,0.804,0.244
	c0.852,0.299,1.671,0.717,2.356,1.307C13.137,18.443,13.198,18.662,13.148,18.859 M15.026,13.953c-0.38,1.285-1.574,2.18-2.924,2.18
	h-1.194V15.1h1.194c0.968,0,1.816-0.793,1.935-1.746c0.145-1.16-0.704-2.37-1.924-2.37c-0.38,0-0.746,0.131-1.044,0.278H9.53
	c0.119-0.147,0.25-0.329,0.417-0.479c0.273-0.243,0.594-0.405,0.935-0.538c0.656-0.257,1.393-0.29,2.068-0.102
	c0.907,0.252,1.618,0.938,1.967,1.784c0.107,0.257,0.179,0.527,0.213,0.804C15.182,13.145,15.145,13.553,15.026,13.953"/>
</svg>
