<?xml version="1.0" encoding="utf-8"?>
<!-- Generator: Adobe Illustrator 15.0.0, SVG Export Plug-In . SVG Version: 6.00 Build 0)  -->
<!DOCTYPE svg PUBLIC "-//W3C//DTD SVG 1.1//EN" "http://www.w3.org/Graphics/SVG/1.1/DTD/svg11.dtd">
<svg version="1.1" id="Layer_1" xmlns="http://www.w3.org/2000/svg" xmlns:xlink="http://www.w3.org/1999/xlink" x="0px" y="0px"
	 width="24px" height="24px" viewBox="0 0 24 24" enable-background="new 0 0 24 24" xml:space="preserve">
<path d="M21.562,0.185h-5.87c-0.402,0-0.725,0.309-0.725,0.71l-0.004,6.561l1.462-1.514h5.137c0.403,0,0.743-0.263,0.743-0.666
	V0.875C22.305,0.472,21.965,0.185,21.562,0.185 M20.236,3.347c0,0.486-0.168,0.912-0.481,1.22c-0.314,0.307-0.724,0.49-1.209,0.49
	h-1.411V1.07h1.411c0.485,0,0.895,0.138,1.209,0.446c0.313,0.308,0.481,0.687,0.481,1.175V3.347z"/>
<path d="M18.507,1.662h-0.484v2.656h0.484c0.284,0,0.473-0.061,0.635-0.252c0.161-0.194,0.209-0.411,0.209-0.72V2.685
	c0-0.308-0.048-0.55-0.209-0.742C18.979,1.75,18.791,1.662,18.507,1.662"/>
<path d="M16.581,14.257l3.095-1.938c0.529-0.331,0.689-1.03,0.357-1.561l-1.648-2.628c-0.207-0.333-0.563-0.535-0.957-0.535
	c-0.216,0-0.43,0.064-0.61,0.183l-2.471,1.584c-0.184,0.115-0.443,0.088-0.592-0.057c-0.063-0.061-0.164-0.168-0.164-0.33V5.518
	c0-0.625-0.458-1.2-1.085-1.2h-3.11c-0.624,0-1.119,0.575-1.119,1.2v3.478c0,0.286-0.245,0.461-0.468,0.461
	c-0.083,0-0.169-0.025-0.246-0.072L5.084,7.833C4.902,7.72,4.694,7.659,4.482,7.659c-0.395,0-0.752,0.196-0.961,0.531l-1.653,2.639
	c-0.159,0.254-0.211,0.558-0.143,0.852c0.066,0.296,0.246,0.546,0.501,0.708l2.986,1.869c0.138,0.089,0.216,0.23,0.216,0.391
	c0,0.163-0.082,0.305-0.216,0.391l-2.986,1.87c-0.256,0.16-0.436,0.41-0.501,0.703c-0.068,0.297-0.017,0.602,0.143,0.86l1.653,2.631
	c0.209,0.335,0.566,0.531,0.96,0.531c0.211,0,0.42-0.059,0.601-0.173l2.479-1.552c0.077-0.047,0.166-0.07,0.249-0.07
	c0.223,0,0.468,0.176,0.468,0.461v2.441c0,0.619,0.496,1.073,1.119,1.073h3.11c0.627,0,1.085-0.454,1.085-1.073v-2.442
	c0-0.285,0.265-0.462,0.486-0.462c0.086,0,0.183,0.025,0.259,0.073l2.472,1.601c0.183,0.119,0.399,0.183,0.62,0.183
	c0.391,0,0.751-0.198,0.959-0.531l1.646-2.624c0.332-0.531,0.172-1.23-0.357-1.562l-3.095-1.938
	c-0.141-0.085-0.215-0.228-0.215-0.391C16.366,14.487,16.443,14.346,16.581,14.257 M7.079,12.025
	c-0.02-0.179,0.158-0.323,0.338-0.323h5.436c0.183,0,0.344,0.145,0.324,0.323c-0.15,1.369-1.208,2.451-2.538,2.655v1.947
	c-0.442-0.116-0.737-0.205-1.031-0.267V14.68C8.277,14.476,7.23,13.394,7.079,12.025 M11.028,19.674H9.235
	c-0.096,0-0.174-0.105-0.159-0.197c0.045-0.268,0.178-0.52,0.38-0.68c0.035-0.024,0.048-0.05,0.084-0.072
	c0.031-0.019,0.066-0.04,0.066-0.055v-0.489c0.294,0.079,0.589,0.147,1.031,0.281v0.208c0,0.015,0.044,0.036,0.076,0.055
	c0.037,0.026,0.043,0.048,0.073,0.072c0.203,0.16,0.348,0.412,0.391,0.68C11.193,19.568,11.123,19.674,11.028,19.674 M13.118,18.855
	c-0.007,0.023-0.014,0.046-0.022,0.066c-0.004,0.011-0.008,0.021-0.01,0.027c-0.012,0.03-0.027,0.057-0.044,0.082
	c-0.014,0.018-0.027,0.028-0.04,0.044c-0.11,0.128-0.262,0.188-0.421,0.188c-0.128,0-0.253-0.059-0.362-0.147
	c-0.778-0.671-1.784-1.063-2.772-1.359H9.445c-0.219,0-0.441-0.075-0.637-0.194c-0.398-0.246-0.653-0.672-0.653-1.14
	c0-0.736,0.417-1.34,1.155-1.367v1.115c-0.294,0.065-0.28,0.407,0.165,0.504c0.1,0.024,0.207,0.048,0.307,0.072
	c0.271,0.071,0.541,0.151,0.806,0.244c0.852,0.3,1.67,0.72,2.358,1.308C13.106,18.439,13.171,18.658,13.118,18.855 M14.998,13.947
	c-0.381,1.288-1.577,2.184-2.923,2.184h-1.14v-1.034h1.14c0.969,0,1.817-0.791,1.937-1.748c0.142-1.158-0.707-2.368-1.926-2.368
	c-0.382,0-0.744,0.13-1.043,0.277h-1.54c0.119-0.147,0.247-0.329,0.415-0.478c0.275-0.243,0.594-0.405,0.938-0.54
	c0.653-0.255,1.391-0.289,2.066-0.098c0.904,0.251,1.618,0.936,1.967,1.782c0.107,0.257,0.181,0.528,0.213,0.805
	C15.151,13.139,15.117,13.549,14.998,13.947"/>
</svg>
