<?xml version="1.0" encoding="utf-8"?>
<!-- Generator: Adobe Illustrator 15.0.0, SVG Export Plug-In . SVG Version: 6.00 Build 0)  -->
<!DOCTYPE svg PUBLIC "-//W3C//DTD SVG 1.1//EN" "http://www.w3.org/Graphics/SVG/1.1/DTD/svg11.dtd">
<svg version="1.1" id="Layer_1" xmlns="http://www.w3.org/2000/svg" xmlns:xlink="http://www.w3.org/1999/xlink" x="0px" y="0px"
	 width="24px" height="24px" viewBox="0 0 24 24" enable-background="new 0 0 24 24" xml:space="preserve">
<path d="M12.027,10.671c2.805,0,5.049-2.261,5.049-5.063c0-2.802-2.244-5.063-5.049-5.063c-2.801,0-5.062,2.261-5.062,5.063
	C6.965,8.41,9.226,10.671,12.027,10.671"/>
<path d="M20.795,14.748c-2.893-1.102-4.625-2.245-4.625-2.245l-4.148,9.469l-4.154-9.471c0,0-1.732,1.139-4.625,2.249
	c-3.184,1.154-2.984,3.793-3.048,8.705h23.657C23.784,18.543,23.979,15.904,20.795,14.748 M6.652,19.971H5.387v1.107H3.802v-1.107
	H2.537v-1.58h1.266v-1.111h1.584v1.111h1.265V19.971z M21.215,21.395h-4.906v-0.633h4.906V21.395z"/>
</svg>
