<?xml version="1.0" encoding="utf-8"?>
<!-- Generator: Adobe Illustrator 15.0.0, SVG Export Plug-In . SVG Version: 6.00 Build 0)  -->
<!DOCTYPE svg PUBLIC "-//W3C//DTD SVG 1.1//EN" "http://www.w3.org/Graphics/SVG/1.1/DTD/svg11.dtd">
<svg version="1.1" id="Layer_1" xmlns="http://www.w3.org/2000/svg" xmlns:xlink="http://www.w3.org/1999/xlink" x="0px" y="0px"
	 width="24px" height="24px" viewBox="0 0 24 24" enable-background="new 0 0 24 24" xml:space="preserve">
<path fill="#010101" d="M18.452,1.662H17.87v2.656h0.582c0.289,0,0.498-0.061,0.662-0.252c0.162-0.194,0.23-0.411,0.23-0.72V2.685
	c0-0.308-0.068-0.55-0.23-0.741C18.95,1.75,18.741,1.662,18.452,1.662"/>
<path fill="#010101" d="M21.506,0.185h-5.865c-0.404,0-0.729,0.309-0.729,0.71l-0.003,6.561l1.467-1.514h5.131
	c0.405,0,0.794-0.263,0.794-0.666V0.875C22.3,0.472,21.911,0.185,21.506,0.185 M20.232,3.347c0,0.486-0.192,0.912-0.506,1.22
	c-0.315,0.307-0.747,0.49-1.234,0.49h-1.361V1.07h1.361c0.487,0,0.919,0.138,1.234,0.446c0.313,0.308,0.506,0.687,0.506,1.175V3.347
	z"/>
<path fill="#010101" d="M1.7,15.541h3.028v8.273H19.05v-8.273h3.134l-10.24-9.217L1.7,15.541z M8.47,14.332
	c0.577,0,1.038,0.465,1.038,1.041c0,0.578-0.461,1.043-1.038,1.043c-0.576,0-1.045-0.465-1.045-1.043
	C7.425,14.797,7.894,14.332,8.47,14.332 M10.93,19.232H6.059v-0.906c0-0.809,1.626-1.215,2.435-1.215
	c0.811,0,2.437,0.406,2.437,1.215V19.232z M17.87,18.326v0.906H13v-0.906c0-0.809,1.624-1.215,2.433-1.215
	C16.24,17.111,17.87,17.518,17.87,18.326 M15.414,14.332c0.576,0,1.038,0.465,1.038,1.041c0,0.578-0.462,1.043-1.038,1.043
	s-1.043-0.465-1.043-1.043C14.371,14.797,14.838,14.332,15.414,14.332 M14.277,16.586c-0.797,0.145-1.738,0.578-1.77,1.021h-1.172
	c-0.031-0.443-0.989-0.91-1.789-1.051c0.301-0.633,1.643-0.881,2.359-0.881C12.625,15.676,13.979,15.947,14.277,16.586
	 M12.945,13.986c0,0.578-0.464,1.039-1.039,1.039c-0.577,0-1.043-0.461-1.043-1.039s0.466-1.039,1.043-1.039
	C12.481,12.947,12.945,13.408,12.945,13.986"/>
</svg>
