<?xml version="1.0" encoding="utf-8"?>
<!-- Generator: Adobe Illustrator 15.0.0, SVG Export Plug-In . SVG Version: 6.00 Build 0)  -->
<!DOCTYPE svg PUBLIC "-//W3C//DTD SVG 1.1//EN" "http://www.w3.org/Graphics/SVG/1.1/DTD/svg11.dtd">
<svg version="1.1" id="Layer_1" xmlns="http://www.w3.org/2000/svg" xmlns:xlink="http://www.w3.org/1999/xlink" x="0px" y="0px"
	 width="24px" height="24px" viewBox="0 0 24 24" enable-background="new 0 0 24 24" xml:space="preserve">
<path fill="#010101" d="M21.508,0.191h-5.865c-0.406,0-0.73,0.307-0.73,0.709l-0.004,6.56l1.467-1.513h5.133
	c0.403,0,0.79-0.262,0.79-0.665v-4.4C22.298,0.476,21.911,0.191,21.508,0.191 M20.09,2.404h-0.755c0-0.296-0.059-0.442-0.182-0.575
	c-0.121-0.136-0.313-0.2-0.57-0.2c-0.232,0-0.395,0.097-0.529,0.284c-0.139,0.187-0.182,0.429-0.182,0.719v0.771
	c0,0.295,0.049,0.537,0.19,0.725c0.144,0.187,0.326,0.281,0.57,0.281c0.241,0,0.417-0.09,0.534-0.221
	c0.114-0.129,0.164-0.309,0.164-0.603h0.749l0.01,0.041c0.005,0.415-0.12,0.758-0.384,1.001C19.447,4.871,19.084,5,18.622,5
	c-0.464,0-0.879-0.148-1.17-0.445c-0.286-0.298-0.47-0.679-0.47-1.15V2.639c0-0.468,0.182-0.852,0.461-1.151
	c0.284-0.301,0.67-0.45,1.123-0.45c0.475,0,0.857,0.122,1.125,0.367c0.27,0.242,0.405,0.57,0.399,0.991L20.09,2.404z"/>
<path fill="#010101" d="M1.703,15.546h3.027v8.264h14.322v-8.264h3.13L11.948,6.329L1.703,15.546z M8.471,14.336
	c0.577,0,1.039,0.466,1.039,1.044c0,0.575-0.461,1.038-1.039,1.038c-0.577,0-1.042-0.463-1.042-1.038
	C7.429,14.802,7.894,14.336,8.471,14.336 M10.931,19.236H6.061v-0.905c0-0.809,1.626-1.218,2.434-1.218
	c0.81,0,2.437,0.409,2.437,1.218V19.236z M17.872,18.331v0.905h-4.873v-0.905c0-0.809,1.625-1.218,2.435-1.218
	S17.872,17.522,17.872,18.331 M15.413,14.336c0.577,0,1.04,0.466,1.04,1.044c0,0.575-0.463,1.038-1.04,1.038
	c-0.575,0-1.041-0.463-1.041-1.038C14.372,14.802,14.838,14.336,15.413,14.336 M14.278,16.589c-0.795,0.145-1.739,0.579-1.768,1.022
	h-1.173c-0.032-0.443-0.989-0.91-1.79-1.05c0.301-0.636,1.643-0.882,2.361-0.882S13.98,15.952,14.278,16.589 M12.944,13.99
	c0,0.578-0.463,1.04-1.036,1.04c-0.578,0-1.043-0.462-1.043-1.04c0-0.577,0.466-1.043,1.043-1.043
	C12.481,12.947,12.944,13.413,12.944,13.99"/>
</svg>
