<?xml version="1.0" encoding="utf-8"?>
<!-- Generator: Adobe Illustrator 15.0.0, SVG Export Plug-In . SVG Version: 6.00 Build 0)  -->
<!DOCTYPE svg PUBLIC "-//W3C//DTD SVG 1.1//EN" "http://www.w3.org/Graphics/SVG/1.1/DTD/svg11.dtd">
<svg version="1.1" id="Layer_1" xmlns="http://www.w3.org/2000/svg" xmlns:xlink="http://www.w3.org/1999/xlink" x="0px" y="0px"
	 width="24px" height="24px" viewBox="0 0 24 24" enable-background="new 0 0 24 24" xml:space="preserve">
<polygon fill="#010101" points="18.566,1.958 18.073,3.583 19.075,3.583 18.585,1.958 "/>
<path fill="#010101" d="M21.508,0.187h-5.866c-0.404,0-0.731,0.308-0.731,0.711l-0.004,6.558l1.469-1.51h5.133
	c0.403,0,0.789-0.263,0.789-0.667V0.878C22.297,0.473,21.911,0.187,21.508,0.187 M19.54,5.06l-0.268-0.887h-1.394L17.608,5.06
	h-0.805l1.367-3.987h0.815l1.36,3.987H19.54z"/>
<path fill="#010101" d="M1.703,15.544h3.026v8.269h14.322v-8.269h3.131L11.947,6.326L1.703,15.544z M8.47,14.335
	c0.577,0,1.039,0.464,1.039,1.042c0,0.575-0.461,1.039-1.039,1.039c-0.577,0-1.042-0.464-1.042-1.039
	C7.428,14.799,7.894,14.335,8.47,14.335 M10.931,19.233H6.059v-0.906c0-0.807,1.626-1.214,2.435-1.214
	c0.811,0,2.437,0.407,2.437,1.214V19.233z M17.871,18.327v0.906h-4.874v-0.906c0-0.807,1.626-1.214,2.437-1.214
	C16.242,17.113,17.871,17.521,17.871,18.327 M15.413,14.335c0.576,0,1.039,0.464,1.039,1.042c0,0.575-0.463,1.039-1.039,1.039
	c-0.575,0-1.041-0.464-1.041-1.039C14.372,14.799,14.838,14.335,15.413,14.335 M14.279,16.586c-0.798,0.144-1.739,0.58-1.772,1.024
	h-1.171c-0.032-0.444-0.989-0.91-1.79-1.052c0.302-0.635,1.643-0.882,2.361-0.882C12.625,15.677,13.979,15.948,14.279,16.586
	 M12.944,13.988c0,0.575-0.462,1.039-1.037,1.039c-0.578,0-1.043-0.464-1.043-1.039c0-0.576,0.465-1.043,1.043-1.043
	C12.481,12.945,12.944,13.412,12.944,13.988"/>
</svg>
