<?xml version="1.0" encoding="utf-8"?>
<!-- Generator: Adobe Illustrator 15.0.0, SVG Export Plug-In . SVG Version: 6.00 Build 0)  -->
<!DOCTYPE svg PUBLIC "-//W3C//DTD SVG 1.1//EN" "http://www.w3.org/Graphics/SVG/1.1/DTD/svg11.dtd">
<svg version="1.1" id="Layer_1" xmlns="http://www.w3.org/2000/svg" xmlns:xlink="http://www.w3.org/1999/xlink" x="0px" y="0px"
	 width="24px" height="24px" viewBox="0 0 24 24" enable-background="new 0 0 24 24" xml:space="preserve">
<path d="M11.946,10.733c2.779,0,5.006-2.242,5.006-5.02c0-2.779-2.227-5.022-5.006-5.022S6.924,2.935,6.924,5.714
	C6.924,8.491,9.167,10.733,11.946,10.733"/>
<path d="M20.641,14.777c-0.836-0.32-1.661-0.662-2.41-0.989v1.275c0.628,0.269,1.278,0.993,1.278,1.845
	c0,1.079-0.903,1.957-1.984,1.957c-1.079,0-1.975-0.878-1.975-1.957c0-0.852,0.483-1.576,1.27-1.845v-1.909
	c-1.064-0.493-1.766-0.849-1.766-0.849l-3.115,4.474l-2.695-4.436c0,0-0.675,0.285-1.687,0.702v2.099
	c1.57,0.303,2.668,1.62,2.668,3.197v3.046c0,0.358-0.254,0.61-0.614,0.61H8.307c-0.361,0-0.653-0.271-0.653-0.627
	c0-0.363,0.292-0.629,0.653-0.629H8.97v-2.4c0-1.079-0.882-1.958-1.962-1.958c-1.079,0-1.962,0.879-1.962,1.958v2.4h0.651
	c0.36,0,0.652,0.266,0.652,0.629c0,0.356-0.292,0.627-0.652,0.627H4.391c-0.36,0-0.758-0.252-0.758-0.61v-3.046
	c0-1.577,1.256-2.895,2.669-3.197v-1.586c-0.951,0.387-2.026,0.82-3.069,1.22c-3.157,1.146-2.959,3.767-3.023,8.632h23.461
	C23.601,18.544,23.8,15.923,20.641,14.777 M19.958,21.37h-4.865v-0.629h4.865V21.37z"/>
<path d="M17.542,17.563c0.362,0,0.654-0.296,0.654-0.654c0-0.36-0.292-0.653-0.654-0.653c-0.358,0-0.651,0.293-0.651,0.653
	C16.891,17.267,17.184,17.563,17.542,17.563"/>
</svg>
