<?xml version="1.0" encoding="utf-8"?>
<!-- Generator: Adobe Illustrator 15.0.0, SVG Export Plug-In . SVG Version: 6.00 Build 0)  -->
<!DOCTYPE svg PUBLIC "-//W3C//DTD SVG 1.1//EN" "http://www.w3.org/Graphics/SVG/1.1/DTD/svg11.dtd">
<svg version="1.1" id="Layer_1" xmlns="http://www.w3.org/2000/svg" xmlns:xlink="http://www.w3.org/1999/xlink" x="0px" y="0px"
	 width="24px" height="24px" viewBox="0 0 24 24" enable-background="new 0 0 24 24" xml:space="preserve">
<path fill="#010101" d="M10.792,12.496c2.484,0,4.479-2.008,4.479-4.495c0-2.486-1.994-4.493-4.479-4.493
	C8.307,3.507,6.298,5.515,6.298,8C6.298,10.487,8.307,12.496,10.792,12.496"/>
<path fill="#010101" d="M18.573,16.129c-2.568-0.977-4.102-1.996-4.102-1.996l-1.983,6.252l-0.272,0.844l-0.886-2.52
	c2.038-2.84-0.153-2.986-0.536-2.986h-0.018c-0.379,0-2.569,0.145-0.535,2.986l-0.888,2.514l-0.269-0.848L7.1,14.119
	c0,0-1.536,1.025-4.104,2.008c-2.826,1.025-2.65,3.389-2.708,7.744h20.996C21.224,19.516,21.399,17.156,18.573,16.129"/>
<path fill="#010101" d="M23.079,0.129h-5.582c-0.385,0-0.695,0.329-0.695,0.714L16.8,7.131l1.395-1.382h4.885
	c0.383,0,0.633-0.318,0.633-0.703V0.858C23.712,0.475,23.462,0.129,23.079,0.129 M18.653,4.764h-0.701V0.971h0.701V4.764z
	 M19.919,4.764h-0.563V2.517h0.563V4.764z M21.325,4.764h-0.703v-3.37h0.703V4.764z M22.587,4.764h-0.563V1.955h0.563V4.764z"/>
</svg>
