<?xml version="1.0" encoding="utf-8"?>
<!-- Generator: Adobe Illustrator 15.0.0, SVG Export Plug-In . SVG Version: 6.00 Build 0)  -->
<!DOCTYPE svg PUBLIC "-//W3C//DTD SVG 1.1//EN" "http://www.w3.org/Graphics/SVG/1.1/DTD/svg11.dtd">
<svg version="1.1" id="Layer_1" xmlns="http://www.w3.org/2000/svg" xmlns:xlink="http://www.w3.org/1999/xlink" x="0px" y="0px"
	 width="24px" height="24px" viewBox="0 0 24 24" enable-background="new 0 0 24 24" xml:space="preserve">
<path fill="#010101" d="M9.868,7.535c-1.832,2.196-4.437,3.362-7.116,2.85c0.382,11.256,7.116,13.58,7.116,13.58
	s6.732-2.324,7.115-13.58C14.306,10.897,11.699,9.731,9.868,7.535 M5.939,13.04c-0.022-0.175,0.144-0.335,0.318-0.335h5.214
	c0.173,0,0.29,0.16,0.269,0.335c-0.144,1.311-1.135,2.376-2.478,2.568v1.867c-0.296-0.111-0.597-0.193-0.895-0.253v-1.614
	C7.173,15.416,6.083,14.351,5.939,13.04 M9.724,20.309H8.001c-0.091,0-0.165-0.056-0.151-0.144c0.043-0.256,0.172-0.452,0.366-0.606
	c0.03-0.023,0.051-0.046,0.083-0.066c0.032-0.02,0.068-0.038,0.068-0.054v-0.471c0.298,0.075,0.599,0.146,0.895,0.272v0.198
	c0,0.017,0.084,0.034,0.116,0.054c0.033,0.021,0.084,0.043,0.114,0.066c0.192,0.154,0.331,0.351,0.371,0.606
	C9.88,20.253,9.813,20.309,9.724,20.309 M11.728,19.618c-0.005,0.021-0.011,0.043-0.02,0.064c-0.004,0.009-0.009,0.018-0.012,0.029
	c-0.013,0.025-0.027,0.053-0.046,0.08c-0.01,0.014-0.02,0.034-0.032,0.049c-0.107,0.12-0.255,0.192-0.407,0.192
	c-0.123,0-0.246-0.029-0.347-0.115c-0.749-0.641-1.713-1.1-2.661-1.251H8.202c-0.209-0.146-0.424-0.123-0.61-0.24
	c-0.383-0.237-0.632-0.692-0.632-1.145c0-0.709,0.364-1.284,1.11-1.313v1.069c-0.299,0.063-0.267,0.394,0.16,0.485
	c0.096,0.021,0.2,0.045,0.295,0.068c0.262,0.065,0.518,0.146,0.775,0.233c0.814,0.287,1.599,0.691,2.258,1.255
	C11.718,19.218,11.778,19.428,11.728,19.618 M13.53,14.922c-0.366,1.234-1.513,2.108-2.803,2.108H9.562v-1.043h1.165
	c0.925,0,1.736-0.729,1.856-1.648c0.138-1.11-0.676-2.24-1.849-2.24c-0.364,0-0.715,0.158-1.001,0.307H8.257
	c0.115-0.149,0.238-0.355,0.398-0.498c0.265-0.234,0.57-0.429,0.9-0.557c0.625-0.245,1.333-0.278,1.982-0.097
	c0.866,0.242,1.552,0.898,1.888,1.71c0.101,0.248,0.172,0.507,0.203,0.774C13.679,14.134,13.645,14.537,13.53,14.922"/>
<polygon fill="#010101" points="17.349,1.968 16.851,3.607 17.861,3.607 17.364,1.968 "/>
<path fill="#010101" d="M20.318,0.177h-5.927c-0.407,0-0.737,0.313-0.737,0.719l-0.005,6.625l1.483-1.527h5.186
	c0.409,0,0.725-0.266,0.725-0.673V0.875C21.043,0.467,20.728,0.177,20.318,0.177 M18.331,5.099l-0.271-0.895h-1.408l-0.271,0.895
	h-0.813l1.379-4.025h0.821l1.377,4.025H18.331z"/>
</svg>
