<?xml version="1.0" encoding="utf-8"?>
<!-- Generator: Adobe Illustrator 15.0.0, SVG Export Plug-In . SVG Version: 6.00 Build 0)  -->
<!DOCTYPE svg PUBLIC "-//W3C//DTD SVG 1.1//EN" "http://www.w3.org/Graphics/SVG/1.1/DTD/svg11.dtd">
<svg version="1.1" id="Layer_1" xmlns="http://www.w3.org/2000/svg" xmlns:xlink="http://www.w3.org/1999/xlink" x="0px" y="0px"
	 width="24px" height="24px" viewBox="0 0 24 24" enable-background="new 0 0 24 24" xml:space="preserve">
<polygon fill="#010101" points="18.564,1.96 18.072,3.585 19.076,3.585 18.588,1.96 "/>
<path fill="#010101" d="M21.508,0.189h-5.866c-0.406,0-0.731,0.308-0.731,0.711l-0.003,6.559l1.466-1.513h5.135
	c0.403,0,0.791-0.262,0.791-0.665V0.878C22.299,0.474,21.911,0.189,21.508,0.189 M19.54,5.06L19.27,4.175h-1.393L17.608,5.06h-0.806
	l1.367-3.986h0.815l1.361,3.986H19.54z"/>
<path fill="#010101" d="M13.389,16.659c0.217-0.229,0.325-0.526,0.325-0.881c0-0.359-0.108-0.669-0.324-0.906
	c-0.212-0.235-0.529-0.362-0.954-0.362H10.93v2.511h1.506C12.855,17.021,13.172,16.889,13.389,16.659"/>
<path fill="#010101" d="M1.701,15.544h3.028v8.268h14.322v-8.268h3.132L11.942,6.326L1.701,15.544z M14.47,14.007
	c0.496,0.436,0.741,1.038,0.741,1.757c0,0.72-0.245,1.318-0.741,1.754c-0.493,0.437-1.171,0.684-2.034,0.684H10.93v2.659H9.453
	v-7.532h2.983C13.299,13.328,13.977,13.568,14.47,14.007"/>
</svg>
