<?xml version="1.0" encoding="utf-8"?>
<!-- Generator: Adobe Illustrator 15.0.0, SVG Export Plug-In . SVG Version: 6.00 Build 0)  -->
<!DOCTYPE svg PUBLIC "-//W3C//DTD SVG 1.1//EN" "http://www.w3.org/Graphics/SVG/1.1/DTD/svg11.dtd">
<svg version="1.1" id="Layer_1" xmlns="http://www.w3.org/2000/svg" xmlns:xlink="http://www.w3.org/1999/xlink" x="0px" y="0px"
	 width="24px" height="24px" viewBox="0 0 24 24" enable-background="new 0 0 24 24" xml:space="preserve">
<path d="M17.347,1.6h-0.539v2.683h0.539c0.287,0,0.529-0.063,0.692-0.258c0.165-0.193,0.262-0.413,0.262-0.726v-0.67
	c0-0.309-0.097-0.551-0.262-0.746C17.876,1.686,17.634,1.6,17.347,1.6"/>
<path d="M20.434,0.107h-5.928c-0.407,0-0.737,0.31-0.737,0.718l-0.005,6.623l1.481-1.525h5.188c0.407,0,0.7-0.266,0.7-0.675V0.805
	C21.134,0.396,20.841,0.107,20.434,0.107 M19.045,3.301c0,0.49-0.145,0.921-0.461,1.232c-0.317,0.31-0.706,0.495-1.194,0.495h-1.326
	V1.002h1.326c0.488,0,0.877,0.137,1.194,0.45c0.316,0.314,0.461,0.695,0.461,1.184V3.301z"/>
<path d="M9.981,7.466c-1.833,2.194-4.437,3.359-7.115,2.848c0.382,11.254,7.115,13.578,7.115,13.578s6.732-2.323,7.113-13.578
	C14.417,10.825,11.815,9.66,9.981,7.466 M6.113,12.967c-0.018-0.175,0.085-0.337,0.258-0.337h5.212c0.174,0,0.282,0.162,0.258,0.337
	c-0.144,1.314-1.147,2.378-2.489,2.571v1.868c-0.297-0.112-0.596-0.196-0.746-0.253v-1.615C7.265,15.346,6.26,14.281,6.113,12.967
	 M9.836,20.238H8.115c-0.09,0-0.151-0.056-0.137-0.145c0.044-0.255,0.19-0.452,0.383-0.604c0.031-0.022,0.081-0.047,0.115-0.067
	c0.029-0.021-0.018-0.039,0.13-0.055v-0.471c0.149,0.075,0.449,0.146,0.746,0.273v0.197c0.15,0.016,0.096,0.034,0.127,0.055
	c0.032,0.021,0.094,0.045,0.126,0.067c0.194,0.152,0.33,0.35,0.372,0.604C9.993,20.183,9.926,20.238,9.836,20.238 M11.84,19.545
	c-0.006,0.024-0.012,0.045-0.018,0.067c-0.005,0.007-0.008,0.018-0.012,0.029c-0.013,0.026-0.029,0.052-0.045,0.079
	c-0.011,0.015-0.022,0.033-0.033,0.049c-0.106,0.122-0.258,0.194-0.406,0.194c-0.124,0-0.247-0.031-0.347-0.114
	c-0.75-0.645-1.714-1.104-2.663-1.254l0,0c-0.209-0.147-0.43-0.121-0.616-0.238c-0.384-0.234-0.636-0.696-0.636-1.147
	c0-0.708,0.5-1.283,1.094-1.312v1.071c-0.297,0.062-0.254,0.391,0.174,0.484c0.095,0.021,0.211,0.046,0.306,0.067
	c0.261,0.067,0.52,0.147,0.773,0.237c0.815,0.281,1.6,0.686,2.261,1.252C11.829,19.147,11.887,19.358,11.84,19.545 M13.644,14.851
	c-0.364,1.236-1.512,2.109-2.805,2.109H9.801v-1.045h1.038c0.927,0,1.741-0.726,1.857-1.646c0.136-1.112-0.672-2.241-1.847-2.241
	c-0.365,0-0.715,0.158-1.003,0.306H8.371c0.114-0.148,0.239-0.354,0.398-0.496c0.263-0.234,0.568-0.429,0.897-0.558
	c0.627-0.245,1.336-0.277,1.984-0.096c0.868,0.241,1.552,0.899,1.888,1.71c0.102,0.247,0.168,0.506,0.205,0.773
	C13.791,14.065,13.758,14.466,13.644,14.851"/>
</svg>
