<?xml version="1.0" encoding="utf-8"?>
<!-- Generator: Adobe Illustrator 15.0.0, SVG Export Plug-In . SVG Version: 6.00 Build 0)  -->
<!DOCTYPE svg PUBLIC "-//W3C//DTD SVG 1.1//EN" "http://www.w3.org/Graphics/SVG/1.1/DTD/svg11.dtd">
<svg version="1.1" id="Layer_1" xmlns="http://www.w3.org/2000/svg" xmlns:xlink="http://www.w3.org/1999/xlink" x="0px" y="0px"
	 width="24px" height="24px" viewBox="0 0 24 24" enable-background="new 0 0 24 24" xml:space="preserve">
<path fill="#010101" d="M21.567,5.946c0.405,0,0.673-0.263,0.673-0.667V0.878c0-0.403-0.268-0.689-0.673-0.689h-5.869
	c-0.402,0-0.729,0.308-0.729,0.71l-0.004,6.56l1.468-1.512H21.567z M17.073,2.638c0-0.469,0.161-0.852,0.444-1.151
	c0.283-0.301,0.659-0.451,1.113-0.451c0.476,0,0.854,0.122,1.123,0.365c0.268,0.244,0.4,0.573,0.394,0.992l-0.001,0.009h-0.753
	c0-0.294-0.059-0.438-0.183-0.575c-0.12-0.136-0.314-0.199-0.57-0.199c-0.231,0-0.38,0.097-0.514,0.285
	c-0.136,0.186-0.169,0.426-0.169,0.719v0.771c0,0.296,0.035,0.537,0.179,0.724c0.143,0.188,0.319,0.282,0.561,0.282
	c0.243,0,0.413-0.09,0.528-0.22s0.165-0.308,0.165-0.603h0.75l0.006,0.039c0.005,0.417-0.121,0.758-0.381,1.001
	c-0.26,0.245-0.621,0.373-1.086,0.373c-0.466,0-0.862-0.147-1.152-0.445c-0.29-0.299-0.454-0.68-0.454-1.15V2.638z"/>
<path fill="#010101" d="M12,6.327L1.759,15.543h3.059v8.268H19.14v-8.268h3.101L12,6.327z M14.528,17.52
	c-0.496,0.436-1.171,0.681-2.034,0.681h-1.476v2.658H9.544v-7.53h2.951c0.863,0,1.538,0.239,2.034,0.681
	c0.494,0.438,0.744,1.038,0.744,1.755C15.272,16.481,15.022,17.084,14.528,17.52"/>
<path fill="#010101" d="M12.495,14.51h-1.476v2.512h1.476c0.418,0,0.738-0.134,0.956-0.363c0.212-0.227,0.321-0.525,0.321-0.879
	c0-0.36-0.105-0.67-0.317-0.906C13.237,14.638,12.917,14.51,12.495,14.51"/>
</svg>
