<?xml version="1.0" encoding="utf-8"?>
<!-- Generator: Adobe Illustrator 15.0.0, SVG Export Plug-In . SVG Version: 6.00 Build 0)  -->
<!DOCTYPE svg PUBLIC "-//W3C//DTD SVG 1.1//EN" "http://www.w3.org/Graphics/SVG/1.1/DTD/svg11.dtd">
<svg version="1.1" id="Layer_1" xmlns="http://www.w3.org/2000/svg" xmlns:xlink="http://www.w3.org/1999/xlink" x="0px" y="0px"
	 width="24px" height="24px" viewBox="0 0 24 24" enable-background="new 0 0 24 24" xml:space="preserve">
<path d="M20.353,0.227h-5.87c-0.402,0-0.728,0.307-0.728,0.711L13.75,7.495l1.466-1.511h5.137c0.402,0,0.688-0.263,0.688-0.667v-4.4
	C21.04,0.513,20.755,0.227,20.353,0.227 M18.93,2.442h-0.752c0-0.296-0.061-0.442-0.184-0.577c-0.123-0.136-0.311-0.199-0.569-0.199
	c-0.231,0-0.444,0.097-0.581,0.283c-0.136,0.19-0.232,0.43-0.232,0.72V3.44c0,0.294,0.101,0.536,0.244,0.723
	c0.142,0.188,0.35,0.283,0.596,0.283c0.239,0,0.428-0.092,0.543-0.22c0.114-0.13,0.182-0.308,0.182-0.604h0.748l0.006,0.041
	c0.007,0.415-0.119,0.757-0.38,1.001c-0.26,0.243-0.623,0.372-1.086,0.372c-0.462,0-0.853-0.147-1.143-0.445
	c-0.289-0.297-0.449-0.679-0.449-1.148V2.675c0-0.467,0.155-0.851,0.438-1.153c0.28-0.298,0.657-0.448,1.107-0.448
	c0.479,0,0.853,0.122,1.123,0.368c0.267,0.242,0.397,0.567,0.392,0.992L18.93,2.442z"/>
<path d="M10.005,7.512c-1.815,2.173-4.393,3.326-7.045,2.82c0.377,11.144,7.045,13.441,7.045,13.441s6.664-2.298,7.042-13.441
	C14.396,10.838,11.818,9.685,10.005,7.512 M6.17,12.959c-0.018-0.173,0.088-0.333,0.259-0.333h5.161
	c0.172,0,0.274,0.161,0.252,0.333c-0.142,1.3-1.139,2.354-2.467,2.546v1.849c-0.294-0.111-0.59-0.193-0.739-0.25v-1.599
	C7.31,15.313,6.316,14.259,6.17,12.959 M9.861,20.156H8.155c-0.089,0-0.149-0.054-0.135-0.143c0.044-0.252,0.188-0.446,0.378-0.598
	c0.032-0.022,0.08-0.047,0.113-0.066c0.029-0.02-0.021-0.039,0.126-0.054v-0.467c0.148,0.074,0.444,0.144,0.739,0.271v0.196
	c0.147,0.016,0.098,0.034,0.129,0.054c0.031,0.021,0.098,0.044,0.126,0.066c0.192,0.151,0.328,0.346,0.369,0.598
	C10.016,20.103,9.95,20.156,9.861,20.156 M11.844,19.472c-0.006,0.023-0.013,0.043-0.019,0.066c-0.004,0.008-0.008,0.018-0.01,0.028
	c-0.014,0.025-0.029,0.052-0.047,0.079c-0.009,0.013-0.021,0.033-0.032,0.049c-0.106,0.12-0.253,0.191-0.402,0.191
	c-0.122,0-0.243-0.03-0.344-0.113c-0.742-0.637-1.695-1.092-2.635-1.24H8.354c-0.207-0.147-0.426-0.121-0.611-0.236
	c-0.381-0.232-0.631-0.689-0.631-1.136c0-0.701,0.492-1.271,1.082-1.299v1.06c-0.295,0.062-0.25,0.388,0.174,0.481
	c0.094,0.02,0.213,0.044,0.306,0.066c0.259,0.066,0.514,0.145,0.766,0.233c0.807,0.28,1.586,0.68,2.239,1.24
	C11.833,19.077,11.892,19.285,11.844,19.472 M13.629,14.823c-0.36,1.224-1.496,2.089-2.777,2.089H9.82v-1.035h1.032
	c0.917,0,1.726-0.719,1.839-1.629c0.135-1.101-0.665-2.219-1.829-2.219c-0.361,0-0.708,0.157-0.991,0.303H8.409
	c0.115-0.146,0.236-0.351,0.395-0.491c0.26-0.232,0.563-0.424,0.891-0.553c0.62-0.242,1.321-0.275,1.962-0.095
	c0.861,0.239,1.538,0.89,1.869,1.693c0.102,0.245,0.169,0.501,0.203,0.767C13.776,14.046,13.742,14.442,13.629,14.823"/>
</svg>
