<?xml version="1.0" encoding="utf-8"?>
<!-- Generator: Adobe Illustrator 15.0.0, SVG Export Plug-In . SVG Version: 6.00 Build 0)  -->
<!DOCTYPE svg PUBLIC "-//W3C//DTD SVG 1.1//EN" "http://www.w3.org/Graphics/SVG/1.1/DTD/svg11.dtd">
<svg version="1.1" id="Layer_1" xmlns="http://www.w3.org/2000/svg" xmlns:xlink="http://www.w3.org/1999/xlink" x="0px" y="0px"
	 width="24px" height="24px" viewBox="0 0 24 24" enable-background="new 0 0 24 24" xml:space="preserve">
<path fill="#010101" d="M11.999,1.952L0.23,12.545h3.516v9.503H20.21v-9.503h3.561L11.999,1.952z M14.907,14.815
	c-0.566,0.502-1.347,0.787-2.338,0.787h-1.695v3.052H9.178V10h3.391c0.991,0,1.771,0.274,2.338,0.778
	c0.57,0.503,0.854,1.197,0.854,2.021C15.762,13.623,15.478,14.315,14.907,14.815"/>
<path fill="#010101" d="M12.569,11.357h-1.695v2.886h1.695c0.483,0,0.846-0.151,1.094-0.416c0.249-0.259,0.373-0.6,0.373-1.012
	c0-0.415-0.118-0.77-0.366-1.04C13.423,11.505,13.056,11.357,12.569,11.357"/>
</svg>
