<?xml version="1.0" encoding="utf-8"?>
<!-- Generator: Adobe Illustrator 15.0.0, SVG Export Plug-In . SVG Version: 6.00 Build 0)  -->
<!DOCTYPE svg PUBLIC "-//W3C//DTD SVG 1.1//EN" "http://www.w3.org/Graphics/SVG/1.1/DTD/svg11.dtd">
<svg version="1.1" id="Layer_1" xmlns="http://www.w3.org/2000/svg" xmlns:xlink="http://www.w3.org/1999/xlink" x="0px" y="0px"
	 width="24px" height="24px" viewBox="0 0 24 24" enable-background="new 0 0 24 24" xml:space="preserve">
<path fill="#010101" d="M18.55,1.562h-0.504v2.684h0.504c0.289,0,0.545-0.063,0.712-0.257c0.162-0.194,0.276-0.414,0.276-0.727
	v-0.67c0-0.307-0.114-0.551-0.276-0.748C19.095,1.651,18.839,1.562,18.55,1.562"/>
<path fill="#010101" d="M21.638,0.072h-5.929c-0.408,0-0.737,0.309-0.737,0.716l-0.004,6.625l1.479-1.529h5.19
	c0.406,0,0.733-0.265,0.733-0.672V0.767C22.371,0.36,22.044,0.072,21.638,0.072 M20.286,3.263c0,0.492-0.163,0.921-0.479,1.232
	c-0.319,0.312-0.728,0.496-1.217,0.496h-1.438V0.965h1.438c0.489,0,0.897,0.138,1.217,0.449c0.315,0.312,0.479,0.697,0.479,1.187
	V3.263z"/>
<path fill="#010101" d="M1.629,15.579h3.146v8.349H19.24v-8.349h3.074L11.971,6.271L1.629,15.579z M14.527,14.026
	c0.5,0.442,0.749,1.049,0.749,1.774c0,0.728-0.249,1.333-0.749,1.771c-0.5,0.44-1.186,0.692-2.054,0.692h-1.435v2.684H9.397v-7.606
	h3.077C13.342,13.342,14.027,13.581,14.527,14.026"/>
<path fill="#010101" d="M13.436,16.706c0.219-0.231,0.326-0.532,0.326-0.889c0-0.366-0.107-0.678-0.324-0.916
	c-0.217-0.236-0.538-0.364-0.964-0.364h-1.435v2.533h1.435C12.894,17.07,13.219,16.938,13.436,16.706"/>
</svg>
