<?xml version="1.0" encoding="utf-8"?>
<!-- Generator: Adobe Illustrator 15.0.0, SVG Export Plug-In . SVG Version: 6.00 Build 0)  -->
<!DOCTYPE svg PUBLIC "-//W3C//DTD SVG 1.1//EN" "http://www.w3.org/Graphics/SVG/1.1/DTD/svg11.dtd">
<svg version="1.1" id="Layer_1" xmlns="http://www.w3.org/2000/svg" xmlns:xlink="http://www.w3.org/1999/xlink" x="0px" y="0px"
	 width="24px" height="24px" viewBox="0 0 24 24" enable-background="new 0 0 24 24" xml:space="preserve">
<path d="M20.825,5.385V2.461H0.223v16.173c0,0-0.037,2.903,2.913,2.903h18.447c0,0,2.166,0,2.166-2.903V5.385H20.825z M3.136,20.138
	c-1.473,0-1.515-1.504-1.515-1.504V3.859h17.804v14.774c0,0.678,0.152,1.122,0.442,1.504H3.136z"/>
<rect x="3.147" y="6.785" width="14.753" height="1.526"/>
<rect x="11.287" y="15.688" width="5.087" height="1.526"/>
<rect x="11.287" y="12.76" width="6.613" height="1.4"/>
<rect x="11.287" y="9.836" width="6.613" height="1.399"/>
<rect x="3.147" y="9.836" width="6.614" height="7.377"/>
</svg>
