<?xml version="1.0" encoding="utf-8"?>
<!-- Generator: Adobe Illustrator 15.0.0, SVG Export Plug-In . SVG Version: 6.00 Build 0)  -->
<!DOCTYPE svg PUBLIC "-//W3C//DTD SVG 1.1//EN" "http://www.w3.org/Graphics/SVG/1.1/DTD/svg11.dtd">
<svg version="1.1" id="Layer_1" xmlns="http://www.w3.org/2000/svg" xmlns:xlink="http://www.w3.org/1999/xlink" x="0px" y="0px"
	 width="24px" height="24px" viewBox="0 0 24 24" enable-background="new 0 0 24 24" xml:space="preserve">
<path fill="#010101" d="M21.555,5.878c0.379,0,0.684-0.344,0.684-0.725V1.008c0-0.38-0.305-0.693-0.684-0.693H16.02
	c-0.373,0-0.68,0.312-0.68,0.692l-0.006,6.236l1.383-1.365H21.555z M17.371,2.667c0-0.44,0.127-0.803,0.393-1.085
	c0.266-0.284,0.609-0.425,1.035-0.425c0.449,0,0.801,0.114,1.053,0.346c0.252,0.23,0.375,0.516,0.369,0.913l-0.006-0.012h-0.709
	c0-0.142-0.059-0.395-0.174-0.523c-0.113-0.127-0.293-0.177-0.537-0.177c-0.217,0-0.398,0.097-0.527,0.274
	c-0.129,0.176-0.201,0.411-0.201,0.684v0.725c0,0.278,0.074,0.505,0.211,0.682c0.135,0.177,0.322,0.265,0.551,0.265
	c0.23,0,0.4-0.037,0.508-0.158c0.107-0.123,0.166-0.382,0.166-0.521h0.707l0.006-0.009c0.008,0.391-0.113,0.688-0.359,0.919
	s-0.586,0.339-1.021,0.339s-0.787-0.144-1.061-0.425C17.5,4.194,17.371,3.83,17.371,3.387V2.667z"/>
<path fill="#010101" d="M11.999,9.938c1.132,0,2.04-0.914,2.04-2.043c0-1.133-0.908-2.047-2.04-2.047
	c-1.133,0-2.044,0.914-2.044,2.047C9.955,9.024,10.866,9.938,11.999,9.938"/>
<path fill="#010101" d="M20.201,7.559c-1.135,0-2.039,0.913-2.039,2.044c0,1.132,0.904,2.045,2.039,2.045
	c1.131,0,2.045-0.914,2.045-2.045C22.246,8.472,21.332,7.559,20.201,7.559"/>
<path fill="#010101" d="M20.15,12.932c-0.98,0-1.807,0.8-1.807,1.781v3.406h-1.391v-5.012h-1.5c-0.48-1.25-2.416-1.811-3.438-1.811
	c-1.022,0-2.958,0.561-3.437,1.811H6.938v5.012h-1.39v-3.406c0-0.981-0.756-1.781-1.738-1.781c-0.983,0-1.738,0.8-1.738,1.781v5.001
	c0,0.679,0.506,1.187,1.184,1.187h2.57v2.784h2.782h6.816h2.779V20.9h2.541c0.676,0,1.215-0.508,1.215-1.187v-5.001
	C21.959,13.731,21.135,12.932,20.15,12.932 M15.285,16.728v5.006h-6.54v-6.677h6.54V16.728z"/>
<path fill="#010101" d="M3.799,11.648c1.132,0,2.038-0.914,2.038-2.045c0-1.131-0.905-2.044-2.038-2.044
	c-1.131,0-2.045,0.913-2.045,2.044C1.754,10.735,2.668,11.648,3.799,11.648"/>
<polygon fill="#010101" points="11.511,21.317 12.454,21.317 14.135,15.476 13.266,15.476 12.107,19.661 11.971,20.342 
	11.946,20.342 11.781,19.655 11.395,18.256 9.859,18.256 9.859,19.23 10.751,19.23 "/>
</svg>
