<?xml version="1.0" encoding="utf-8"?>
<!-- Generator: Adobe Illustrator 15.0.0, SVG Export Plug-In . SVG Version: 6.00 Build 0)  -->
<!DOCTYPE svg PUBLIC "-//W3C//DTD SVG 1.1//EN" "http://www.w3.org/Graphics/SVG/1.1/DTD/svg11.dtd">
<svg version="1.1" id="Layer_1" xmlns="http://www.w3.org/2000/svg" xmlns:xlink="http://www.w3.org/1999/xlink" x="0px" y="0px"
	 width="24px" height="24px" viewBox="0 0 24 24" enable-background="new 0 0 24 24" xml:space="preserve">
<path fill="#010101" d="M21.648,5.817c0.385,0,0.691-0.348,0.691-0.731V0.899c0-0.384-0.307-0.7-0.691-0.7h-5.58
	c-0.389,0-0.695,0.315-0.695,0.698l-0.004,6.3l1.391-1.379H21.648z M17.422,1.041h1.357c0.463,0,0.844,0.152,1.143,0.445
	c0.299,0.295,0.451,0.679,0.451,1.139v0.626c0,0.462-0.152,0.846-0.451,1.139c-0.299,0.292-0.68,0.443-1.143,0.443h-1.357V1.041z"/>
<path fill="#010101" d="M19.408,3.982c0.152-0.184,0.262-0.439,0.262-0.733V2.62c0-0.292-0.109-0.545-0.262-0.728
	c-0.152-0.183-0.396-0.288-0.666-0.288h-0.477v2.669h0.477C19.012,4.273,19.256,4.165,19.408,3.982"/>
<path fill="#010101" d="M11.999,9.918c1.143,0,2.06-0.923,2.06-2.065c0-1.143-0.917-2.065-2.06-2.065
	c-1.142,0-2.065,0.923-2.065,2.065C9.934,8.995,10.857,9.918,11.999,9.918"/>
<path fill="#010101" d="M20.281,7.515c-1.145,0-2.059,0.924-2.059,2.066c0,1.143,0.914,2.065,2.059,2.065
	c1.141,0,2.066-0.922,2.066-2.065C22.348,8.439,21.422,7.515,20.281,7.515"/>
<path fill="#010101" d="M20.232,12.942c-0.992,0-1.826,0.804-1.826,1.797v3.441h-1.404v-5.058h-1.516
	c-0.484-1.266-2.439-1.833-3.471-1.833c-1.034,0-2.986,0.567-3.471,1.833H6.887v5.058H5.481v-3.441c0-0.993-0.763-1.797-1.754-1.797
	c-0.993,0-1.756,0.804-1.756,1.797v5.052c0,0.686,0.511,1.199,1.195,1.199h2.597v2.811h2.81h6.883h2.809V20.99h2.566
	c0.684,0,1.225-0.514,1.225-1.199v-5.052C22.057,13.746,21.229,12.942,20.232,12.942 M15.314,16.774v5.056H8.712v-6.74h6.602V16.774
	z"/>
<path fill="#010101" d="M3.718,11.646c1.143,0,2.06-0.922,2.06-2.065c0-1.142-0.917-2.066-2.06-2.066
	c-1.143,0-2.066,0.924-2.066,2.066C1.651,10.723,2.575,11.646,3.718,11.646"/>
<polygon fill="#010101" points="11.506,21.411 12.458,21.411 14.156,15.512 13.277,15.512 12.108,19.737 11.97,20.427 
	11.946,20.427 11.778,19.732 11.389,18.32 9.837,18.32 9.837,19.304 10.739,19.304 "/>
</svg>
