<?xml version="1.0" encoding="utf-8"?>
<!-- Generator: Adobe Illustrator 15.0.0, SVG Export Plug-In . SVG Version: 6.00 Build 0)  -->
<!DOCTYPE svg PUBLIC "-//W3C//DTD SVG 1.1//EN" "http://www.w3.org/Graphics/SVG/1.1/DTD/svg11.dtd">
<svg version="1.1" id="Layer_1" xmlns="http://www.w3.org/2000/svg" xmlns:xlink="http://www.w3.org/1999/xlink" x="0px" y="0px"
	 width="24px" height="24px" viewBox="0 0 24 24" enable-background="new 0 0 24 24" xml:space="preserve">
<path fill="#010101" d="M21.648,5.818c0.385,0,0.693-0.348,0.693-0.732V0.9c0-0.385-0.309-0.7-0.693-0.7h-5.58
	c-0.386,0-0.696,0.314-0.696,0.699l-0.006,6.299l1.396-1.379H21.648z M18.475,1.041h0.772l1.297,3.794h-0.767l-0.257-0.843h-1.322
	l-0.26,0.843h-0.764L18.475,1.041z"/>
<polygon fill="#010101" points="18.869,1.883 18.85,1.883 18.383,3.43 19.336,3.43 "/>
<path fill="#010101" d="M12,9.918c1.142,0,2.058-0.923,2.058-2.065c0-1.143-0.916-2.065-2.058-2.065
	c-1.142,0-2.066,0.923-2.066,2.065C9.935,8.995,10.859,9.918,12,9.918"/>
<path fill="#010101" d="M20.283,7.518c-1.145,0-2.06,0.921-2.06,2.063c0,1.143,0.915,2.066,2.06,2.066
	c1.143,0,2.065-0.923,2.065-2.066C22.349,8.439,21.426,7.518,20.283,7.518"/>
<path fill="#010101" d="M20.233,12.939c-0.99,0-1.826,0.81-1.826,1.802v3.439h-1.403v-5.057h-1.516
	c-0.486-1.267-2.44-1.833-3.473-1.833c-1.031,0-2.986,0.566-3.47,1.833H6.889v5.057H5.484v-3.439c0-0.992-0.765-1.802-1.755-1.802
	c-0.994,0-1.756,0.81-1.756,1.802v5.051c0,0.685,0.51,1.198,1.195,1.198h2.596v2.81h2.81h6.883h2.81v-2.81h2.565
	c0.687,0,1.229-0.514,1.229-1.198v-5.051C22.062,13.749,21.229,12.939,20.233,12.939 M15.317,16.775v5.057H8.714v-6.741h6.604
	V16.775z"/>
<path fill="#010101" d="M3.718,11.646c1.145,0,2.057-0.923,2.057-2.066c0-1.142-0.912-2.063-2.057-2.063
	c-1.143,0-2.066,0.921-2.066,2.063C1.652,10.723,2.576,11.646,3.718,11.646"/>
<polygon fill="#010101" points="11.507,21.411 12.458,21.411 14.155,15.511 13.278,15.511 12.109,19.738 11.971,20.428 
	11.947,20.428 11.78,19.733 11.39,18.323 9.838,18.323 9.838,19.304 10.738,19.304 "/>
</svg>
