<?xml version="1.0" encoding="utf-8"?>
<!-- Generator: Adobe Illustrator 15.0.0, SVG Export Plug-In . SVG Version: 6.00 Build 0)  -->
<!DOCTYPE svg PUBLIC "-//W3C//DTD SVG 1.1//EN" "http://www.w3.org/Graphics/SVG/1.1/DTD/svg11.dtd">
<svg version="1.1" id="Layer_1" xmlns="http://www.w3.org/2000/svg" xmlns:xlink="http://www.w3.org/1999/xlink" x="0px" y="0px"
	 width="24px" height="24px" viewBox="0 0 24 24" enable-background="new 0 0 24 24" xml:space="preserve">
<path fill="#010101" d="M12,6.504c1.289,0,2.316-1.037,2.316-2.324c0-1.286-1.027-2.327-2.316-2.327
	c-1.29,0-2.328,1.041-2.328,2.327C9.672,5.468,10.71,6.504,12,6.504"/>
<path fill="#010101" d="M21.333,8.453c1.287,0,2.327-1.036,2.327-2.327c0-1.287-1.04-2.326-2.327-2.326
	c-1.289,0-2.319,1.039-2.319,2.326C19.014,7.417,20.044,8.453,21.333,8.453"/>
<path fill="#010101" d="M21.277,9.913c-1.114,0-2.057,0.911-2.057,2.029v3.875h-1.583v-5.7h-1.711
	c-0.546-1.425-2.745-2.064-3.91-2.064c-1.164,0-3.365,0.639-3.909,2.064H6.24v5.7H4.656v-3.875c0-1.118-0.861-2.029-1.976-2.029
	c-1.122,0-1.981,0.911-1.981,2.029v5.69c0,0.774,0.577,1.352,1.348,1.352h2.925v3.163h3.167h7.756h3.165v-3.163h2.893
	c0.771,0,1.383-0.577,1.383-1.352v-5.69C23.335,10.824,22.398,9.913,21.277,9.913 M15.741,14.235v5.696H8.296v-7.6h7.445V14.235z"/>
<path fill="#010101" d="M2.671,8.453c1.285,0,2.317-1.036,2.317-2.327c0-1.287-1.032-2.326-2.317-2.326
	c-1.291,0-2.332,1.039-2.332,2.326C0.339,7.417,1.38,8.453,2.671,8.453"/>
<polygon fill="#010101" points="11.444,19.457 12.517,19.457 14.428,12.811 13.438,12.811 12.122,17.575 11.968,18.351 
	11.939,18.351 11.75,17.569 11.313,15.974 9.563,15.974 9.563,17.084 10.58,17.084 "/>
</svg>
