<?xml version="1.0" encoding="utf-8"?>
<!-- Generator: Adobe Illustrator 15.0.0, SVG Export Plug-In . SVG Version: 6.00 Build 0)  -->
<!DOCTYPE svg PUBLIC "-//W3C//DTD SVG 1.1//EN" "http://www.w3.org/Graphics/SVG/1.1/DTD/svg11.dtd">
<svg version="1.1" id="Layer_1" xmlns="http://www.w3.org/2000/svg" xmlns:xlink="http://www.w3.org/1999/xlink" x="0px" y="0px"
	 width="24px" height="24px" viewBox="0 0 24 24" enable-background="new 0 0 24 24" xml:space="preserve">
<path d="M8.884,2.387H0.286v3.152h1.146v12.867c0,1.772,1.379,3.208,3.152,3.208c1.773,0,3.153-1.436,3.153-3.208V5.539h1.147V2.387
	z M4.117,16.172c-0.288,0-0.519-0.233-0.519-0.52c0-0.289,0.231-0.521,0.519-0.521c0.287,0,0.52,0.232,0.52,0.521
	C4.637,15.938,4.404,16.172,4.117,16.172 M5.158,18.319c-0.288,0-0.521-0.231-0.521-0.521c0-0.287,0.233-0.521,0.521-0.521
	c0.287,0,0.52,0.233,0.52,0.521C5.678,18.088,5.445,18.319,5.158,18.319 M6.734,11.988H2.435V5.539h4.299V11.988z"/>
<path d="M5.158,8.755c0.287,0,0.52-0.231,0.52-0.518s-0.233-0.521-0.52-0.521c-0.288,0-0.521,0.233-0.521,0.521
	S4.87,8.755,5.158,8.755"/>
<path d="M4.117,10.838c0.287,0,0.52-0.232,0.52-0.521c0-0.287-0.233-0.52-0.52-0.52c-0.288,0-0.519,0.232-0.519,0.52
	C3.598,10.606,3.829,10.838,4.117,10.838"/>
<path d="M16.669,8.232c0-0.289-0.232-0.521-0.521-0.521c-0.287,0-0.52,0.232-0.52,0.521s0.232,0.52,0.52,0.52
	C16.437,8.751,16.669,8.521,16.669,8.232"/>
<path d="M16.669,10.963c-0.287,0-0.521,0.232-0.521,0.521c0,0.287,0.233,0.521,0.521,0.521c0.286,0,0.523-0.233,0.523-0.521
	C17.192,11.196,16.955,10.963,16.669,10.963"/>
<path d="M15.045,13.109c-0.291,0-0.524,0.234-0.524,0.522c0,0.286,0.233,0.521,0.524,0.521c0.285,0,0.517-0.235,0.517-0.521
	C15.562,13.344,15.33,13.109,15.045,13.109"/>
<path d="M20.813,15.139h-0.016l-1.455-3.151V5.539h1.149V2.387h-8.599v3.152h1.003v6.499l-1.378,3.101h-0.015l-2.92,6.449h15.133
	L20.813,15.139z M14.002,17.859c-0.285,0-0.516-0.232-0.516-0.521c0-0.286,0.23-0.52,0.516-0.52c0.287,0,0.519,0.233,0.519,0.52
	C14.521,17.627,14.289,17.859,14.002,17.859 M16.148,20.004c-0.287,0-0.52-0.231-0.52-0.518c0-0.29,0.232-0.522,0.52-0.522
	c0.288,0,0.521,0.232,0.521,0.522C16.669,19.772,16.437,20.004,16.148,20.004 M18.299,17.859c-0.291,0-0.524-0.232-0.524-0.521
	c0-0.286,0.233-0.52,0.524-0.52c0.285,0,0.518,0.233,0.518,0.52C18.816,17.627,18.584,17.859,18.299,17.859 M12.655,15.139
	l1.39-2.875V5.539h4.295v6.671l1.321,2.928H12.655z"/>
</svg>
