<?xml version="1.0" encoding="utf-8"?>
<!-- Generator: Adobe Illustrator 15.0.0, SVG Export Plug-In . SVG Version: 6.00 Build 0)  -->
<!DOCTYPE svg PUBLIC "-//W3C//DTD SVG 1.1//EN" "http://www.w3.org/Graphics/SVG/1.1/DTD/svg11.dtd">
<svg version="1.1" id="Layer_1" xmlns="http://www.w3.org/2000/svg" xmlns:xlink="http://www.w3.org/1999/xlink" x="0px" y="0px"
	 width="24px" height="24px" viewBox="0 0 24 24" enable-background="new 0 0 24 24" xml:space="preserve">
<path d="M21.992,0.162h-5.811c-0.397,0-0.722,0.329-0.722,0.728l-0.004,6.554l1.45-1.435h5.086c0.4,0,0.753-0.36,0.753-0.761V0.89
	C22.745,0.492,22.393,0.162,21.992,0.162 M20.584,2.353h-0.742c0-0.144-0.063-0.412-0.184-0.545
	C19.54,1.672,19.351,1.62,19.095,1.62c-0.229,0-0.404,0.102-0.54,0.286c-0.134,0.189-0.197,0.434-0.197,0.719v0.764
	c0,0.292,0.067,0.532,0.209,0.717c0.139,0.187,0.328,0.28,0.571,0.28c0.237,0,0.415-0.039,0.529-0.168
	c0.114-0.127,0.173-0.401,0.173-0.547h0.738l0.006-0.01c0.008,0.412-0.118,0.725-0.372,0.966c-0.259,0.242-0.619,0.356-1.075,0.356
	c-0.462,0-0.815-0.151-1.1-0.446c-0.287-0.295-0.41-0.68-0.41-1.145V2.633c0-0.462,0.12-0.845,0.4-1.141
	c0.279-0.297,0.63-0.446,1.079-0.446c0.472,0,0.838,0.121,1.101,0.363c0.266,0.243,0.392,0.542,0.385,0.96L20.584,2.353z"/>
<path d="M19.801,19.456h-1.073c0.236-0.437,0.367-1.015,0.367-1.599c0-0.872-0.299-1.663-0.8-2.303
	c-0.053-1.881-0.547-3.746-1.588-5.422c-1.606-2.587-4.196-4.301-7.12-4.892V1.384c0-0.186-0.222-0.346-0.412-0.346H4.459
	c-0.184,0-0.28,0.16-0.28,0.346v10.733c0,0.186,0.097,0.324,0.28,0.324h0.303v2.384c0,0.185,0.181,0.395,0.369,0.395h3.38
	c0.188,0,0.348-0.21,0.348-0.395V12.44h0.316c0.19,0,0.412-0.138,0.412-0.324V8.691c2.338,0.934,4.115,3.092,4.472,5.641
	c-1.455,0.527-2.513,1.893-2.513,3.525c0,0.584,0.115,1.162,0.35,1.599H1.545c-0.187,0-0.29,0.213-0.29,0.398v2.124
	c0,0.187,0.104,0.402,0.29,0.402H3.74v1.173c0,0.182,0.114,0.285,0.301,0.285h2.778c0.186,0,0.283-0.104,0.283-0.285v-1.173h7.014
	v1.173c0,0.182,0.22,0.285,0.412,0.285h2.775c0.188,0,0.323-0.104,0.323-0.285v-1.173h2.174c0.186,0,0.312-0.216,0.312-0.402v-2.124
	C20.112,19.669,19.986,19.456,19.801,19.456 M15.312,19.531c-0.901,0-1.642-0.734-1.642-1.641c0-0.908,0.74-1.643,1.642-1.643
	c0.904,0,1.645,0.734,1.645,1.643C16.956,18.797,16.216,19.531,15.312,19.531"/>
<rect x="4.179" y="17.117" width="5.261" height="1.465"/>
</svg>
