<?xml version="1.0" encoding="utf-8"?>
<!-- Generator: Adobe Illustrator 15.0.0, SVG Export Plug-In . SVG Version: 6.00 Build 0)  -->
<!DOCTYPE svg PUBLIC "-//W3C//DTD SVG 1.1//EN" "http://www.w3.org/Graphics/SVG/1.1/DTD/svg11.dtd">
<svg version="1.1" id="Layer_1" xmlns="http://www.w3.org/2000/svg" xmlns:xlink="http://www.w3.org/1999/xlink" x="0px" y="0px"
	 width="24px" height="24px" viewBox="0 0 24 24" enable-background="new 0 0 24 24" xml:space="preserve">
<path fill="#010101" d="M19.832,19.456h-1.075c0.235-0.438,0.367-1.015,0.367-1.599c0-0.87-0.298-1.66-0.798-2.303
	c-0.056-1.883-0.564-3.746-1.603-5.423c-1.605-2.587-4.213-4.3-7.138-4.892V1.384c0-0.188-0.189-0.346-0.376-0.346H4.49
	c-0.186,0-0.314,0.158-0.314,0.346v10.733c0,0.186,0.129,0.323,0.314,0.323h0.272v2.384c0,0.188,0.208,0.395,0.397,0.395h3.381
	c0.187,0,0.314-0.207,0.314-0.395V12.44h0.354c0.187,0,0.376-0.137,0.376-0.323V8.691c2.339,0.934,4.127,3.092,4.487,5.643
	c-1.454,0.525-2.504,1.893-2.504,3.523c0,0.584,0.121,1.16,0.357,1.599H1.573c-0.187,0-0.319,0.211-0.319,0.398v2.124
	c0,0.185,0.133,0.402,0.319,0.402h2.164v1.173c0,0.182,0.148,0.285,0.336,0.285h2.776c0.187,0,0.397-0.104,0.397-0.285v-1.173h7.018
	v1.173c0,0.182,0.105,0.285,0.29,0.285h2.779c0.187,0,0.292-0.104,0.292-0.285v-1.173h2.207c0.184,0,0.278-0.218,0.278-0.402v-2.124
	C20.11,19.667,20.016,19.456,19.832,19.456 M15.343,19.531c-0.906,0-1.642-0.736-1.642-1.644c0-0.902,0.735-1.64,1.642-1.64
	c0.907,0,1.641,0.737,1.641,1.64C16.983,18.795,16.25,19.531,15.343,19.531"/>
<rect x="4.323" y="17.117" fill="#010101" width="5.117" height="1.464"/>
<polygon fill="#010101" points="19.109,1.917 18.623,3.523 19.612,3.523 19.126,1.917 "/>
<path fill="#010101" d="M22.021,0.161h-5.813c-0.393,0-0.715,0.329-0.715,0.728l-0.005,6.554l1.451-1.434h5.082
	c0.398,0,0.725-0.359,0.725-0.76V0.89C22.746,0.492,22.42,0.161,22.021,0.161 M20.075,4.985l-0.27-0.878h-1.38l-0.263,0.878h-0.797
	l1.352-3.947h0.805l1.349,3.947H20.075z"/>
</svg>
