<?xml version="1.0" encoding="utf-8"?>
<!-- Generator: Adobe Illustrator 15.0.0, SVG Export Plug-In . SVG Version: 6.00 Build 0)  -->
<!DOCTYPE svg PUBLIC "-//W3C//DTD SVG 1.1//EN" "http://www.w3.org/Graphics/SVG/1.1/DTD/svg11.dtd">
<svg version="1.1" id="Layer_1" xmlns="http://www.w3.org/2000/svg" xmlns:xlink="http://www.w3.org/1999/xlink" x="0px" y="0px"
	 width="24px" height="24px" viewBox="0 0 24 24" enable-background="new 0 0 24 24" xml:space="preserve">
<path fill="#010101" d="M9.633,14.32c-0.18,0-0.33,0.195-0.33,0.341l0.921,1.63h1.055l0.89-1.63c0-0.146-0.149-0.341-0.327-0.341
	H9.633z"/>
<path fill="#010101" d="M18.563,16.155c-2.578-0.98-4.117-1.996-4.117-1.996l-2.971,6.767l-0.227-4.075
	c-0.003-0.044-0.032-0.134-0.066-0.134h-0.887c-0.035,0-0.066,0.09-0.067,0.134l-0.215,4.056l-2.958-6.749
	c0,0-1.542,1.018-4.118,1.998c-2.832,1.028-2.657,3.377-2.712,7.749h21.055C21.219,19.532,21.391,17.184,18.563,16.155
	 M18.848,22.07h-4.225v-0.564h4.225V22.07z"/>
<path fill="#010101" d="M8.98,8.905c0.497,0,0.885-0.4,0.885-0.886C9.88,7.523,9.477,7.134,8.98,7.134
	c-0.5,0-0.885,0.404-0.885,0.885C8.095,8.517,8.499,8.905,8.98,8.905"/>
<path fill="#010101" d="M10.756,12.527c2.496,0,4.49-2.014,4.49-4.508c0-2.493-1.994-4.504-4.49-4.504
	c-2.492,0-4.507,2.011-4.507,4.504C6.249,10.513,8.265,12.527,10.756,12.527 M7.41,8.263c-0.172,0-0.309-0.112-0.309-0.281
	c0-0.17,0.136-0.283,0.309-0.283h0.109c0.146-0.704,0.747-1.19,1.475-1.19c0.672,0,1.233,0.427,1.43,1.028
	c0.103-0.036,0.219-0.063,0.342-0.063c0.096,0,0.206,0.014,0.327,0.062c0.201-0.6,0.757-1.027,1.428-1.027
	c0.733,0,1.319,0.486,1.461,1.19h0.105c0.172,0,0.314,0.112,0.314,0.283c0,0.169-0.143,0.281-0.314,0.281h-0.113
	c-0.139,0.704-0.736,1.23-1.457,1.23c-0.774,0-1.431-0.582-1.499-1.354c-0.078-0.066-0.157-0.082-0.239-0.082
	c-0.103,0-0.212,0.058-0.289,0.113C10.415,8.934,9.767,9.491,8.98,9.491c-0.717,0-1.316-0.523-1.461-1.228H7.41z"/>
<path fill="#010101" d="M12.521,8.905c0.499,0,0.885-0.4,0.885-0.886c0-0.496-0.404-0.885-0.885-0.885
	c-0.498,0-0.883,0.404-0.883,0.885C11.638,8.517,12.039,8.905,12.521,8.905"/>
<path fill="#010101" d="M23.143,0.095h-5.596c-0.383,0-0.697,0.33-0.697,0.712l-0.006,6.311l1.404-1.391h4.895
	c0.391,0,0.633-0.317,0.633-0.704v-4.2C23.775,0.442,23.533,0.095,23.143,0.095 M22.457,1.953c-0.145,0-0.277-0.05-0.383-0.135
	L21.377,2.37c0.102,0.158,0.158,0.345,0.158,0.544c0,0.207-0.063,0.402-0.164,0.564l0.695,0.654c0.059-0.032,0.119-0.05,0.189-0.05
	c0.23,0,0.416,0.187,0.416,0.417s-0.186,0.418-0.416,0.418s-0.414-0.188-0.414-0.418c0-0.058,0.006-0.115,0.029-0.164L21.18,3.689
	C21,3.842,20.766,3.937,20.52,3.937c-0.469,0-0.855-0.309-0.982-0.727l-0.721,0.136c-0.01,0.327-0.279,0.591-0.617,0.591
	S17.59,3.659,17.59,3.318c0-0.338,0.271-0.613,0.609-0.613c0.256,0,0.469,0.148,0.566,0.364l0.729-0.14c0-0.005,0-0.011,0-0.015
	c0-0.568,0.453-1.025,1.025-1.025c0.258,0,0.498,0.102,0.68,0.265l0.697-0.555c-0.033-0.077-0.055-0.165-0.055-0.262
	c0-0.34,0.268-0.616,0.615-0.616c0.34,0,0.611,0.276,0.611,0.616C23.068,1.679,22.797,1.953,22.457,1.953"/>
</svg>
