<?xml version="1.0" encoding="utf-8"?>
<!-- Generator: Adobe Illustrator 15.0.0, SVG Export Plug-In . SVG Version: 6.00 Build 0)  -->
<!DOCTYPE svg PUBLIC "-//W3C//DTD SVG 1.1//EN" "http://www.w3.org/Graphics/SVG/1.1/DTD/svg11.dtd">
<svg version="1.1" id="Layer_1" xmlns="http://www.w3.org/2000/svg" xmlns:xlink="http://www.w3.org/1999/xlink" x="0px" y="0px"
	 width="24px" height="24px" viewBox="0 0 24 24" enable-background="new 0 0 24 24" xml:space="preserve">
<polygon fill="#010101" points="18.642,2.105 18.628,2.105 18.132,3.581 19.132,3.581 "/>
<path fill="#010101" d="M21.566,6.092c0.404,0,0.673-0.303,0.673-0.707V0.982c0-0.403-0.269-0.797-0.673-0.797h-5.87
	c-0.401,0-0.729,0.362-0.729,0.766l-0.004,6.605l1.468-1.464H21.566z M18.229,1.07h0.815l1.358,3.986H19.6l-0.272-0.739h-1.39
	l-0.272,0.739h-0.804L18.229,1.07z"/>
<path fill="#010101" d="M12,6.472L1.761,15.688h3.057v8.126H19.14v-8.126h3.1L12,6.472z M14.074,20.428
	c-0.49,0.361-1.141,0.539-1.948,0.539c-0.795,0-1.487-0.205-2.08-0.612c-0.589-0.409-0.876-0.964-0.86-1.7l0.011-0.011h1.423
	c0,0.438,0.13,0.731,0.397,0.933c0.264,0.202,0.633,0.296,1.109,0.296c0.396,0,0.699-0.089,0.909-0.252
	c0.212-0.163,0.316-0.384,0.316-0.659c0-0.279-0.1-0.506-0.299-0.676c-0.199-0.169-0.546-0.33-1.042-0.479
	c-0.868-0.252-1.524-0.55-1.969-0.893C9.6,16.569,9.377,16.099,9.377,15.5c0-0.595,0.254-1.083,0.765-1.463
	c0.507-0.378,1.157-0.569,1.949-0.569c0.799,0,1.454,0.214,1.955,0.64c0.507,0.426,0.75,0.938,0.732,1.563l-0.011,0.019h-1.416
	c0-0.297-0.112-0.6-0.338-0.808c-0.225-0.208-0.542-0.305-0.948-0.305c-0.39,0-0.692,0.088-0.906,0.264
	c-0.213,0.173-0.318,0.396-0.318,0.665c0,0.246,0.111,0.451,0.342,0.609c0.227,0.158,0.623,0.327,1.183,0.505
	c0.802,0.225,1.414,0.517,1.827,0.884c0.414,0.367,0.62,0.85,0.62,1.446C14.813,19.572,14.567,20.068,14.074,20.428"/>
</svg>
