<?xml version="1.0" encoding="utf-8"?>
<!-- Generator: Adobe Illustrator 15.0.0, SVG Export Plug-In . SVG Version: 6.00 Build 0)  -->
<!DOCTYPE svg PUBLIC "-//W3C//DTD SVG 1.1//EN" "http://www.w3.org/Graphics/SVG/1.1/DTD/svg11.dtd">
<svg version="1.1" id="Layer_1" xmlns="http://www.w3.org/2000/svg" xmlns:xlink="http://www.w3.org/1999/xlink" x="0px" y="0px"
	 width="24px" height="24px" viewBox="0 0 24 24" enable-background="new 0 0 24 24" xml:space="preserve">
<path fill="#010101" d="M21.514,0.189h-5.869c-0.398,0-0.727,0.361-0.727,0.765L14.916,7.56l1.463-1.466h5.135
	c0.404,0,0.779-0.303,0.779-0.707V0.984C22.293,0.583,21.918,0.189,21.514,0.189 M20.096,2.551H19.34
	c0-0.298-0.061-0.463-0.182-0.598c-0.123-0.136-0.311-0.209-0.57-0.209c-0.229,0-0.4,0.093-0.535,0.28
	c-0.137,0.184-0.188,0.424-0.188,0.714v0.771c0,0.294,0.055,0.536,0.197,0.724c0.145,0.188,0.33,0.282,0.574,0.282
	c0.238,0,0.418-0.072,0.533-0.201c0.115-0.129,0.168-0.289,0.168-0.584h0.75l0.008,0.022c0.006,0.416-0.121,0.747-0.383,0.991
	c-0.258,0.242-0.621,0.367-1.084,0.367c-0.467,0-0.811-0.15-1.1-0.448c-0.291-0.298-0.404-0.682-0.404-1.151V2.744
	c0-0.466,0.109-0.85,0.396-1.151c0.277-0.302,0.631-0.451,1.084-0.451c0.475,0,0.84,0.123,1.109,0.367
	c0.27,0.242,0.393,0.587,0.387,1.012L20.096,2.551z"/>
<path fill="#010101" d="M1.708,15.689h3.013v8.121h14.324v-8.121h3.143L11.949,6.473L1.708,15.689z M13.996,14.109
	c0.504,0.424,0.746,0.939,0.729,1.563l-0.008,0.018h-1.418c0-0.295-0.111-0.6-0.336-0.807c-0.226-0.207-0.54-0.305-0.949-0.305
	c-0.391,0-0.692,0.088-0.905,0.262c-0.216,0.176-0.322,0.398-0.322,0.668c0,0.246,0.114,0.451,0.343,0.609
	c0.229,0.154,0.625,0.324,1.186,0.502c0.803,0.227,1.414,0.521,1.826,0.885c0.414,0.369,0.619,0.85,0.619,1.445
	c0,0.627-0.246,1.121-0.736,1.48c-0.492,0.361-1.142,0.539-1.95,0.539c-0.792,0-1.485-0.203-2.078-0.613
	c-0.591-0.408-0.876-0.961-0.859-1.699l0.008-0.012h1.421c0,0.443,0.135,0.734,0.399,0.936c0.266,0.203,0.635,0.293,1.109,0.293
	c0.398,0,0.702-0.086,0.911-0.25c0.211-0.164,0.315-0.387,0.315-0.658c0-0.279-0.098-0.504-0.295-0.676
	c-0.201-0.172-0.548-0.334-1.046-0.48c-0.868-0.252-1.524-0.551-1.966-0.893c-0.443-0.344-0.665-0.814-0.665-1.412
	c0-0.596,0.252-1.082,0.763-1.465c0.508-0.381,1.158-0.568,1.948-0.568C12.838,13.471,13.49,13.686,13.996,14.109"/>
</svg>
