<?xml version="1.0" encoding="utf-8"?>
<!-- Generator: Adobe Illustrator 15.0.0, SVG Export Plug-In . SVG Version: 6.00 Build 0)  -->
<!DOCTYPE svg PUBLIC "-//W3C//DTD SVG 1.1//EN" "http://www.w3.org/Graphics/SVG/1.1/DTD/svg11.dtd">
<svg version="1.1" id="Layer_1" xmlns="http://www.w3.org/2000/svg" xmlns:xlink="http://www.w3.org/1999/xlink" x="0px" y="0px"
	 width="24px" height="24px" viewBox="0 0 24 24" enable-background="new 0 0 24 24" xml:space="preserve">
<path fill="#010101" d="M12.113,1.036L0.342,11.631h3.521v9.331h16.46v-9.331h3.559L12.113,1.036z M14.496,17.078
	c-0.566,0.412-1.314,0.621-2.239,0.621c-0.913,0-1.709-0.232-2.39-0.702c-0.678-0.471-1.004-1.11-0.988-1.956l0.011-0.017h1.634
	c0,0.507,0.152,0.844,0.457,1.075c0.305,0.232,0.733,0.339,1.276,0.339c0.454,0,0.806-0.101,1.046-0.286
	c0.238-0.191,0.367-0.443,0.367-0.761c0-0.318-0.115-0.581-0.35-0.775c-0.227-0.196-0.628-0.381-1.193-0.553
	c-1.002-0.287-1.754-0.628-2.264-1.023c-0.511-0.396-0.766-0.938-0.766-1.621c0-0.688,0.292-1.25,0.877-1.687
	c0.585-0.434,1.331-0.652,2.246-0.652c0.916,0,1.67,0.244,2.246,0.732c0.58,0.491,0.857,1.078,0.84,1.794l-0.014,0.024H13.67
	c0-0.339-0.139-0.689-0.391-0.929c-0.26-0.239-0.623-0.352-1.097-0.352c-0.444,0-0.791,0.103-1.037,0.304
	c-0.245,0.2-0.369,0.457-0.369,0.769c0,0.281,0.132,0.514,0.396,0.696c0.262,0.183,0.715,0.375,1.362,0.58
	c0.927,0.256,1.621,0.596,2.095,1.015c0.477,0.425,0.717,0.98,0.717,1.666C15.346,16.099,15.063,16.663,14.496,17.078"/>
</svg>
