<?xml version="1.0" encoding="utf-8"?>
<!-- Generator: Adobe Illustrator 15.0.0, SVG Export Plug-In . SVG Version: 6.00 Build 0)  -->
<!DOCTYPE svg PUBLIC "-//W3C//DTD SVG 1.1//EN" "http://www.w3.org/Graphics/SVG/1.1/DTD/svg11.dtd">
<svg version="1.1" id="Layer_1" xmlns="http://www.w3.org/2000/svg" xmlns:xlink="http://www.w3.org/1999/xlink" x="0px" y="0px"
	 width="24px" height="24px" viewBox="0 0 24 24" enable-background="new 0 0 24 24" xml:space="preserve">
<path fill="#010101" d="M18.644,4.127c0.164-0.191,0.246-0.423,0.246-0.734V2.732c0-0.307-0.082-0.533-0.246-0.726
	c-0.161-0.195-0.386-0.268-0.671-0.268h-0.561v2.657h0.561C18.258,4.396,18.482,4.319,18.644,4.127"/>
<path fill="#010101" d="M21.027,6.021c0.404,0,0.667-0.292,0.667-0.695V0.925c0-0.403-0.263-0.664-0.667-0.664h-5.869
	c-0.399,0-0.725,0.294-0.725,0.699L14.43,7.525l1.461-1.504H21.027z M16.675,1.146h1.338c0.484,0,0.856,0.124,1.171,0.433
	c0.314,0.312,0.44,0.675,0.44,1.16v0.657c0,0.488-0.126,0.853-0.44,1.161c-0.314,0.308-0.687,0.43-1.171,0.43h-1.338V1.146z"/>
<path fill="#010101" d="M11.46,6.4l-10.24,9.219h3.053v8.119h14.321v-8.119H21.7L11.46,6.4z M13.534,20.365
	c-0.49,0.363-1.142,0.545-1.949,0.545c-0.794,0-1.487-0.205-2.077-0.615c-0.592-0.408-0.878-0.971-0.861-1.707l0.011-0.02h1.42
	c0,0.445,0.133,0.742,0.398,0.943c0.264,0.203,0.634,0.297,1.108,0.297c0.396,0,0.7-0.086,0.91-0.25
	c0.211-0.162,0.317-0.381,0.317-0.654c0-0.281-0.1-0.508-0.3-0.68c-0.198-0.17-0.545-0.33-1.042-0.479
	c-0.868-0.252-1.522-0.547-1.967-0.889c-0.442-0.348-0.666-0.818-0.666-1.414c0-0.6,0.255-1.084,0.763-1.465
	c0.509-0.377,1.158-0.568,1.949-0.568c0.801,0,1.454,0.213,1.958,0.641c0.506,0.424,0.744,0.93,0.73,1.555l-0.009,0.014h-1.417
	c0-0.299-0.115-0.592-0.34-0.803c-0.224-0.209-0.54-0.305-0.947-0.305c-0.39,0-0.692,0.094-0.906,0.266
	c-0.213,0.174-0.319,0.396-0.319,0.668c0,0.248,0.112,0.449,0.341,0.609c0.229,0.158,0.623,0.328,1.184,0.502
	c0.802,0.225,1.415,0.521,1.827,0.889c0.415,0.367,0.614,0.848,0.614,1.447C14.267,19.514,14.026,20.008,13.534,20.365"/>
</svg>
