<?xml version="1.0" encoding="utf-8"?>
<!-- Generator: Adobe Illustrator 15.0.0, SVG Export Plug-In . SVG Version: 6.00 Build 0)  -->
<!DOCTYPE svg PUBLIC "-//W3C//DTD SVG 1.1//EN" "http://www.w3.org/Graphics/SVG/1.1/DTD/svg11.dtd">
<svg version="1.1" id="Layer_1" xmlns="http://www.w3.org/2000/svg" xmlns:xlink="http://www.w3.org/1999/xlink" x="0px" y="0px"
	 width="24px" height="24px" viewBox="0 0 24 24" enable-background="new 0 0 24 24" xml:space="preserve">
<path d="M3.937,14.191c0,1.188,0.958,2.146,2.145,2.146c1.188,0,2.138-0.958,2.138-2.146c0-1.187-0.949-2.144-2.138-2.144
	C4.895,12.048,3.937,13.005,3.937,14.191"/>
<path d="M6.104,17.768c-1.667,0-4.847,0.838-4.847,2.503v1.547h3.683v-1.205c0-1.184,1.813-2.062,3.383-2.473
	C7.473,17.893,6.743,17.768,6.104,17.768"/>
<path d="M17.789,16.337c1.187,0,2.146-0.958,2.146-2.146c0-1.187-0.959-2.144-2.146-2.144c-1.186,0-2.139,0.957-2.139,2.144
	C15.65,15.379,16.604,16.337,17.789,16.337"/>
<path d="M18.316,17.768c-0.641,0-1.551,0.125-2.401,0.372c1.568,0.411,3.749,1.289,3.749,2.473v1.205h3.68v-1.547
	C23.344,18.605,19.981,17.768,18.316,17.768"/>
<path d="M11.988,17.631c1.188,0,2.141-0.959,2.141-2.145c0-1.188-0.952-2.147-2.141-2.147c-1.186,0-2.144,0.96-2.144,2.147
	C9.845,16.672,10.802,17.631,11.988,17.631"/>
<path d="M11.961,19.06c-1.667,0-4.978,0.838-4.978,2.504v1.755h9.954v-1.755C16.937,19.897,13.627,19.06,11.961,19.06"/>
<path d="M5.289,5.28c1.188,0,2.139-0.958,2.139-2.146c0-1.187-0.951-2.144-2.139-2.144c-1.187,0-2.145,0.958-2.145,2.144
	C3.144,4.321,4.102,5.28,5.289,5.28"/>
<path d="M10.256,9.214c0-1.668-3.311-2.502-4.978-2.502c-1.665,0-4.975,0.834-4.975,2.502v1.832h9.953V9.214z"/>
<path d="M18.437,1.229h-0.006c0-0.273-0.252-0.549-0.544-0.549s-0.541,0.216-0.541,0.507v0.587h1.091V1.229z"/>
<path d="M12.165,11.046h11.59V2.457h-11.59V11.046z M18.301,9.546h-1.093V8.592h1.093V9.546z M19.435,6.389
	c-0.191,0.28-0.434,0.512-0.724,0.703c-0.158,0.122-0.263,0.216-0.312,0.339c-0.05,0.123-0.074,0.342-0.074,0.479h-1.133
	c0.002-0.273,0.057-0.599,0.163-0.769c0.104-0.167,0.314-0.359,0.627-0.6c0.185-0.149,0.33-0.305,0.44-0.479
	c0.113-0.174,0.166-0.365,0.166-0.58c0-0.238-0.062-0.423-0.188-0.558c-0.126-0.135-0.307-0.201-0.539-0.201
	c-0.191,0-0.354,0.086-0.487,0.201c-0.134,0.113-0.201,0.259-0.203,0.531h-1.106l-0.008-0.052c-0.008-0.498,0.156-0.894,0.493-1.158
	c0.333-0.264,0.773-0.403,1.312-0.403c0.581,0,1.036,0.143,1.368,0.436c0.33,0.295,0.495,0.693,0.495,1.199
	C19.726,5.806,19.63,6.109,19.435,6.389"/>
</svg>
