<?xml version="1.0" encoding="utf-8"?>
<!-- Generator: Adobe Illustrator 15.0.0, SVG Export Plug-In . SVG Version: 6.00 Build 0)  -->
<!DOCTYPE svg PUBLIC "-//W3C//DTD SVG 1.1//EN" "http://www.w3.org/Graphics/SVG/1.1/DTD/svg11.dtd">
<svg version="1.1" id="Layer_1" xmlns="http://www.w3.org/2000/svg" xmlns:xlink="http://www.w3.org/1999/xlink" x="0px" y="0px"
	 width="24px" height="24px" viewBox="0 0 24 24" enable-background="new 0 0 24 24" xml:space="preserve">
<path d="M14.07,19.365H9.926c-0.321,0-0.582,0.281-0.582,0.602s0.261,0.602,0.582,0.602h4.145c0.324,0,0.58-0.281,0.58-0.602
	S14.395,19.365,14.07,19.365"/>
<path d="M10.932,22.795c0.079,0.523,0.524,0.9,1.07,0.9c0.543,0,0.991-0.369,1.067-0.893c0.71-0.051,1.284-0.729,1.284-1.33H9.65
	C9.65,22.074,10.22,22.746,10.932,22.795"/>
<path d="M12.035,3.66c0.429,0,0.754-0.348,0.754-0.777V1.08c0-0.429-0.325-0.776-0.754-0.776c-0.428,0-0.754,0.347-0.754,0.776
	v1.803C11.281,3.312,11.607,3.66,12.035,3.66"/>
<path d="M7.54,5.109c0.157,0,0.318-0.048,0.458-0.147C8.343,4.71,8.417,4.226,8.165,3.877L7.106,2.418
	C6.854,2.07,6.37,1.995,6.024,2.247C5.676,2.499,5.6,2.983,5.852,3.33l1.06,1.458C7.064,5,7.3,5.109,7.54,5.109"/>
<path d="M2.826,8.308l1.716,0.557c0.08,0.026,0.16,0.04,0.239,0.04c0.329,0,0.631-0.209,0.738-0.537
	c0.133-0.407-0.089-0.845-0.496-0.978L3.305,6.833c-0.41-0.133-0.844,0.091-0.977,0.499C2.196,7.737,2.418,8.175,2.826,8.308"/>
<path d="M21.176,12.638l-1.719-0.558c-0.406-0.13-0.844,0.093-0.975,0.5c-0.133,0.406,0.091,0.846,0.496,0.977l1.718,0.561
	c0.079,0.021,0.157,0.035,0.239,0.035c0.328,0,0.629-0.209,0.738-0.535C21.805,13.209,21.583,12.772,21.176,12.638"/>
<path d="M4.542,12.081l-1.716,0.557c-0.408,0.133-0.631,0.57-0.498,0.98c0.107,0.324,0.409,0.535,0.739,0.535
	c0.074,0,0.16-0.014,0.236-0.039l1.719-0.557c0.407-0.131,0.629-0.569,0.497-0.977C5.387,12.174,4.954,11.95,4.542,12.081"/>
<path d="M19.219,8.905c0.078,0,0.16-0.014,0.238-0.04l1.719-0.556c0.407-0.133,0.629-0.57,0.498-0.977
	c-0.131-0.408-0.572-0.632-0.978-0.499l-1.718,0.557c-0.405,0.133-0.629,0.57-0.496,0.978C18.59,8.695,18.894,8.905,19.219,8.905"/>
<path d="M17.978,2.247c-0.348-0.253-0.831-0.177-1.084,0.171l-1.057,1.459c-0.252,0.349-0.177,0.833,0.171,1.085
	c0.137,0.1,0.296,0.147,0.455,0.147c0.239,0,0.477-0.109,0.627-0.321l1.06-1.458C18.402,2.983,18.326,2.499,17.978,2.247"/>
<path d="M12.001,4.898c-3.096,0-5.603,2.508-5.603,5.604c0,1.306,0.48,2.503,1.228,3.455c0.658,0.834,1.247,1.746,1.849,2.66v1.844
	h5.122v-1.793c0.452-0.891,1.202-1.916,1.828-2.709c0.751-0.953,1.188-2.15,1.188-3.457C17.613,7.406,15.092,4.898,12.001,4.898
	 M12.02,7.14c0.72,0,1.301,0.582,1.301,1.303c0,0.72-0.581,1.301-1.301,1.301c-0.719,0-1.303-0.581-1.303-1.301
	C10.717,7.722,11.3,7.14,12.02,7.14 M15.049,13.189H9.022v-1.058c0-1.012,2.001-1.519,3.013-1.519c1.009,0,3.014,0.506,3.014,1.519
	V13.189z"/>
</svg>
