<?xml version="1.0" encoding="utf-8"?>
<!-- Generator: Adobe Illustrator 15.0.0, SVG Export Plug-In . SVG Version: 6.00 Build 0)  -->
<!DOCTYPE svg PUBLIC "-//W3C//DTD SVG 1.1//EN" "http://www.w3.org/Graphics/SVG/1.1/DTD/svg11.dtd">
<svg version="1.1" id="Layer_1" xmlns="http://www.w3.org/2000/svg" xmlns:xlink="http://www.w3.org/1999/xlink" x="0px" y="0px"
	 width="24px" height="24px" viewBox="0 0 24 24" enable-background="new 0 0 24 24" xml:space="preserve">
<path d="M21.3,0.288h-5.75c-0.396,0-0.715,0.327-0.715,0.724L14.831,7.5l1.438-1.423H21.3c0.396,0,0.714-0.351,0.714-0.748V1.016
	C22.014,0.62,21.696,0.288,21.3,0.288 M19.907,2.459H19.17c0-0.146-0.059-0.405-0.177-0.542c-0.121-0.131-0.306-0.182-0.561-0.182
	c-0.228,0-0.417,0.101-0.551,0.285c-0.134,0.188-0.21,0.431-0.21,0.713V3.49c0,0.29,0.08,0.524,0.221,0.709
	c0.141,0.186,0.335,0.277,0.575,0.277c0.235,0,0.414-0.042,0.528-0.169c0.114-0.127,0.172-0.401,0.172-0.545h0.734l0.005-0.007
	c0.007,0.406-0.116,0.719-0.369,0.958c-0.257,0.238-0.613,0.353-1.065,0.353c-0.456,0-0.821-0.149-1.104-0.441
	c-0.285-0.292-0.423-0.672-0.423-1.134V2.739c0-0.457,0.135-0.834,0.411-1.128c0.277-0.294,0.636-0.441,1.078-0.441
	c0.468,0,0.831,0.119,1.098,0.36c0.26,0.24,0.387,0.533,0.38,0.944L19.907,2.459z"/>
<path d="M12.668,19.971H9.07c-0.278,0-0.504,0.229-0.504,0.509c0,0.277,0.227,0.505,0.504,0.505h3.598
	c0.281,0,0.506-0.228,0.506-0.505C13.174,20.199,12.949,19.971,12.668,19.971"/>
<path d="M9.941,22.953c0.069,0.46,0.456,0.772,0.929,0.772s0.86-0.298,0.93-0.754c0.617-0.036,1.108-0.685,1.108-1.118H8.831
	C8.831,22.287,9.323,22.92,9.941,22.953"/>
<path d="M10.798,6.309c0.371,0,0.649-0.301,0.649-0.672V4.07c0-0.371-0.279-0.672-0.649-0.672c-0.373,0-0.65,0.301-0.65,0.672v1.566
	C10.147,6.008,10.425,6.309,10.798,6.309"/>
<path d="M6.999,7.566c0.139,0,0.278-0.042,0.396-0.126c0.3-0.22,0.367-0.64,0.15-0.941L6.624,5.232
	c-0.219-0.3-0.64-0.368-0.942-0.149C5.383,5.301,5.314,5.721,5.533,6.022L6.455,7.29C6.585,7.47,6.79,7.566,6.999,7.566"/>
<path d="M2.909,10.344l1.487,0.484c0.072,0.021,0.143,0.033,0.209,0.033c0.284,0,0.548-0.18,0.641-0.465
	c0.115-0.353-0.079-0.734-0.43-0.849L3.324,9.064C2.967,8.948,2.59,9.141,2.476,9.496C2.36,9.848,2.555,10.229,2.909,10.344"/>
<path d="M18.832,14.104l-1.489-0.486c-0.353-0.113-0.733,0.083-0.847,0.434c-0.116,0.355,0.079,0.731,0.433,0.847l1.49,0.486
	c0.065,0.021,0.139,0.032,0.206,0.032c0.284,0,0.548-0.179,0.641-0.465C19.38,14.6,19.188,14.219,18.832,14.104"/>
<path d="M4.396,13.618l-1.487,0.482c-0.354,0.118-0.549,0.497-0.434,0.85c0.092,0.288,0.355,0.467,0.64,0.467
	c0.067,0,0.14-0.011,0.208-0.035l1.49-0.483c0.353-0.115,0.547-0.491,0.432-0.847C5.133,13.701,4.755,13.505,4.396,13.618"/>
<path d="M18.419,9.064l-1.49,0.483c-0.354,0.115-0.549,0.495-0.433,0.849c0.091,0.286,0.355,0.465,0.64,0.465
	c0.069,0,0.14-0.012,0.207-0.033l1.489-0.484c0.355-0.115,0.548-0.494,0.434-0.849C19.151,9.142,18.77,8.951,18.419,9.064"/>
<path d="M10.87,7.387c-2.686,0-4.862,2.177-4.862,4.862c0,1.134,0.425,2.173,1.076,2.998c0.569,0.725,1.035,1.514,1.614,2.313v1.689
	h4.487V17.6c0.434-0.773,1.016-1.663,1.557-2.352c0.651-0.826,1.018-1.863,1.018-3C15.759,9.563,13.555,7.387,10.87,7.387
	 M10.887,9.332c0.625,0,1.127,0.503,1.127,1.13c0,0.625-0.503,1.128-1.127,1.128c-0.624,0-1.129-0.504-1.129-1.128
	C9.758,9.835,10.263,9.332,10.887,9.332 M13.618,14.471H8.266v-0.805c0-0.882,1.797-1.322,2.676-1.322
	c0.877,0,2.676,0.44,2.676,1.322V14.471z"/>
</svg>
