<?xml version="1.0" encoding="utf-8"?>
<!-- Generator: Adobe Illustrator 15.0.0, SVG Export Plug-In . SVG Version: 6.00 Build 0)  -->
<!DOCTYPE svg PUBLIC "-//W3C//DTD SVG 1.1//EN" "http://www.w3.org/Graphics/SVG/1.1/DTD/svg11.dtd">
<svg version="1.1" id="Layer_1" xmlns="http://www.w3.org/2000/svg" xmlns:xlink="http://www.w3.org/1999/xlink" x="0px" y="0px"
	 width="24px" height="24px" viewBox="0 0 24 24" enable-background="new 0 0 24 24" xml:space="preserve">
<path d="M18.072,1.728h-0.486v2.751h0.486c0.28,0,0.532-0.106,0.691-0.295c0.159-0.189,0.271-0.449,0.271-0.753V2.783
	c0-0.301-0.112-0.564-0.271-0.751C18.604,1.84,18.353,1.728,18.072,1.728"/>
<path d="M21.067,0.282h-5.752c-0.401,0-0.723,0.327-0.723,0.724l-0.002,6.488l1.443-1.423h5.033c0.396,0,0.719-0.35,0.719-0.746
	V1.01C21.786,0.615,21.464,0.282,21.067,0.282 M19.758,3.433c0,0.477-0.157,0.869-0.465,1.172c-0.309,0.301-0.704,0.454-1.18,0.454
	H16.72V1.149h1.394c0.476,0,0.871,0.16,1.18,0.462c0.308,0.307,0.465,0.702,0.465,1.177V3.433z"/>
<path d="M12.441,19.967h-3.6c-0.278,0-0.504,0.227-0.504,0.508c0,0.275,0.226,0.504,0.504,0.504h3.6
	c0.277,0,0.504-0.229,0.504-0.504C12.945,20.193,12.718,19.967,12.441,19.967"/>
<path d="M9.712,22.949c0.072,0.453,0.458,0.768,0.929,0.768c0.473,0,0.86-0.293,0.93-0.752c0.616-0.033,1.109-0.684,1.109-1.115
	H8.603C8.603,22.281,9.096,22.916,9.712,22.949"/>
<path d="M10.569,6.303c0.372,0,0.65-0.301,0.65-0.671V4.064c0-0.371-0.278-0.672-0.65-0.672c-0.374,0-0.652,0.301-0.652,0.672v1.567
	C9.917,6.002,10.195,6.303,10.569,6.303"/>
<path d="M6.77,7.56c0.138,0,0.278-0.039,0.396-0.126c0.299-0.219,0.366-0.639,0.15-0.94l-0.92-1.267
	c-0.22-0.301-0.641-0.368-0.942-0.149c-0.3,0.217-0.368,0.638-0.149,0.94l0.923,1.265C6.356,7.467,6.562,7.56,6.77,7.56"/>
<path d="M2.68,10.339l1.488,0.484c0.07,0.022,0.142,0.033,0.208,0.033c0.285,0,0.55-0.182,0.641-0.465
	c0.115-0.353-0.078-0.733-0.432-0.849L3.096,9.058C2.738,8.943,2.362,9.136,2.247,9.491C2.131,9.843,2.325,10.224,2.68,10.339"/>
<path d="M18.603,14.1l-1.487-0.486c-0.354-0.111-0.733,0.078-0.849,0.43c-0.115,0.357,0.081,0.736,0.434,0.85l1.49,0.488
	c0.068,0.02,0.14,0.031,0.209,0.031c0.28,0,0.545-0.18,0.638-0.465C19.152,14.594,18.958,14.215,18.603,14.1"/>
<path d="M4.168,13.613L2.68,14.098c-0.355,0.117-0.549,0.494-0.434,0.848c0.093,0.287,0.355,0.467,0.64,0.467
	c0.068,0,0.14-0.012,0.209-0.035l1.488-0.484c0.356-0.113,0.55-0.492,0.435-0.85C4.904,13.691,4.525,13.502,4.168,13.613"/>
<path d="M18.19,9.059L16.7,9.542c-0.353,0.116-0.549,0.496-0.434,0.849c0.094,0.284,0.356,0.465,0.642,0.465
	c0.068,0,0.139-0.011,0.207-0.033l1.487-0.484c0.355-0.115,0.55-0.495,0.435-0.849C18.923,9.137,18.539,8.944,18.19,9.059"/>
<path d="M10.641,7.38c-2.686,0-4.863,2.178-4.863,4.863c0,1.136,0.426,2.173,1.076,2.997c0.57,0.727,1.035,1.516,1.615,2.311v1.691
	h4.487v-1.648c0.433-0.773,1.017-1.664,1.558-2.35c0.649-0.828,1.015-1.863,1.015-3.001C15.528,9.558,13.327,7.38,10.641,7.38
	 M10.658,9.325c0.624,0,1.127,0.505,1.127,1.129c0,0.626-0.503,1.131-1.127,1.131c-0.625,0-1.128-0.505-1.128-1.131
	C9.53,9.83,10.033,9.325,10.658,9.325 M13.389,14.467H8.037v-0.811c0-0.876,1.799-1.317,2.677-1.317c0.876,0,2.675,0.44,2.675,1.317
	V14.467z"/>
</svg>
