<?xml version="1.0" encoding="utf-8"?>
<!-- Generator: Adobe Illustrator 15.0.0, SVG Export Plug-In . SVG Version: 6.00 Build 0)  -->
<!DOCTYPE svg PUBLIC "-//W3C//DTD SVG 1.1//EN" "http://www.w3.org/Graphics/SVG/1.1/DTD/svg11.dtd">
<svg version="1.1" id="Layer_1" xmlns="http://www.w3.org/2000/svg" xmlns:xlink="http://www.w3.org/1999/xlink" x="0px" y="0px"
	 width="24px" height="24px" viewBox="0 0 24 24" enable-background="new 0 0 24 24" xml:space="preserve">
<polygon points="18.193,2.021 17.711,3.612 18.693,3.612 18.212,2.021 "/>
<path d="M21.078,0.285h-5.755c-0.395,0-0.714,0.328-0.714,0.723l-0.005,6.491l1.446-1.425h5.027c0.393,0,0.707-0.351,0.707-0.748
	V1.012C21.785,0.617,21.471,0.285,21.078,0.285 M19.148,5.061l-0.265-0.868H17.52l-0.266,0.868h-0.79l1.341-3.908h0.799l1.335,3.908
	H19.148z"/>
<path d="M12.44,19.969H8.842c-0.278,0-0.505,0.229-0.505,0.508s0.227,0.504,0.505,0.504h3.598c0.279,0,0.507-0.225,0.507-0.504
	S12.719,19.969,12.44,19.969"/>
<path d="M9.714,22.953c0.07,0.449,0.458,0.762,0.929,0.762c0.472,0,0.859-0.287,0.929-0.748c0.617-0.031,1.107-0.684,1.107-1.115
	H8.604C8.604,22.283,9.096,22.918,9.714,22.953"/>
<path d="M10.571,6.305c0.367,0,0.648-0.3,0.648-0.671V4.067c0-0.372-0.282-0.673-0.648-0.673c-0.375,0-0.654,0.301-0.654,0.673
	v1.566C9.917,6.005,10.196,6.305,10.571,6.305"/>
<path d="M6.771,7.565c0.137,0,0.276-0.043,0.394-0.127c0.3-0.218,0.367-0.641,0.151-0.942L6.396,5.229
	c-0.219-0.3-0.642-0.368-0.94-0.148C5.154,5.298,5.087,5.718,5.306,6.02l0.922,1.268C6.356,7.467,6.562,7.565,6.771,7.565"/>
<path d="M2.68,10.342l1.489,0.483c0.069,0.022,0.14,0.034,0.208,0.034c0.283,0,0.549-0.181,0.642-0.465
	c0.115-0.353-0.08-0.734-0.433-0.848l-1.49-0.485C2.738,8.946,2.362,9.139,2.248,9.494C2.133,9.846,2.326,10.226,2.68,10.342"/>
<path d="M18.604,14.1l-1.488-0.484c-0.354-0.113-0.728,0.08-0.841,0.434c-0.114,0.352,0.066,0.732,0.427,0.848l1.489,0.484
	c0.068,0.023,0.14,0.031,0.208,0.031c0.282,0,0.546-0.18,0.641-0.463C19.153,14.596,18.96,14.215,18.604,14.1"/>
<path d="M4.169,13.615L2.68,14.098c-0.354,0.117-0.547,0.496-0.434,0.85c0.093,0.285,0.356,0.465,0.641,0.465
	c0.067,0,0.139-0.008,0.208-0.031l1.489-0.484c0.355-0.115,0.55-0.492,0.436-0.848C4.905,13.695,4.526,13.502,4.169,13.615"/>
<path d="M18.19,9.061l-1.489,0.484c-0.36,0.114-0.541,0.493-0.427,0.848c0.08,0.285,0.351,0.465,0.633,0.465
	c0.07,0,0.139-0.011,0.208-0.034l1.488-0.483c0.356-0.116,0.55-0.495,0.436-0.849C18.923,9.14,18.54,8.947,18.19,9.061"/>
<path d="M10.643,7.384c-2.688,0-4.863,2.177-4.863,4.862c0,1.131,0.423,2.17,1.074,2.996c0.571,0.727,1.035,1.516,1.615,2.311v1.691
	h4.488v-1.648c0.432-0.773,1.017-1.664,1.557-2.348c0.65-0.832,1.016-1.869,1.016-3.002C15.529,9.561,13.328,7.384,10.643,7.384
	 M10.658,9.328c0.625,0,1.127,0.504,1.127,1.129c0,0.626-0.502,1.13-1.127,1.13s-1.128-0.504-1.128-1.13
	C9.529,9.832,10.033,9.328,10.658,9.328 M13.389,14.471H8.037V13.66c0-0.876,1.799-1.318,2.675-1.318
	c0.877,0,2.676,0.442,2.676,1.318V14.471z"/>
</svg>
