<?xml version="1.0" encoding="utf-8"?>
<!-- Generator: Adobe Illustrator 15.0.0, SVG Export Plug-In . SVG Version: 6.00 Build 0)  -->
<!DOCTYPE svg PUBLIC "-//W3C//DTD SVG 1.1//EN" "http://www.w3.org/Graphics/SVG/1.1/DTD/svg11.dtd">
<svg version="1.1" id="Layer_1" xmlns="http://www.w3.org/2000/svg" xmlns:xlink="http://www.w3.org/1999/xlink" x="0px" y="0px"
	 width="24px" height="24px" viewBox="0 0 24 24" enable-background="new 0 0 24 24" xml:space="preserve">
<path d="M21.939,5.812c0.379,0,0.631-0.344,0.631-0.725V0.942c0-0.38-0.252-0.693-0.631-0.693H16.41
	c-0.379,0-0.689,0.312-0.689,0.691l-0.002,6.238L17.1,5.812H21.939z M17.703,2.598c0-0.438,0.154-0.801,0.42-1.083
	c0.266-0.283,0.623-0.426,1.049-0.426c0.447,0,0.805,0.115,1.057,0.345c0.254,0.232,0.379,0.518,0.375,0.913L20.6,2.333h-0.709
	c0-0.141-0.059-0.393-0.174-0.522c-0.111-0.126-0.291-0.175-0.535-0.175c-0.217,0-0.357,0.097-0.486,0.273
	c-0.129,0.175-0.158,0.411-0.158,0.683v0.727c0,0.278,0.035,0.505,0.17,0.682c0.137,0.177,0.299,0.265,0.529,0.265
	c0.227,0,0.389-0.036,0.496-0.159c0.109-0.122,0.156-0.382,0.156-0.522h0.707L20.6,3.577c0.008,0.391-0.111,0.689-0.357,0.919
	c-0.244,0.229-0.586,0.337-1.023,0.337s-0.813-0.143-1.086-0.426c-0.273-0.28-0.43-0.645-0.43-1.087V2.598z"/>
<path d="M15.334,8.15L12.07,7.181L8.801,8.15v1.277H6.159v14.325h3.476v-4.449h1.809v4.449h1.252v-4.449h1.809v4.449h3.477V9.427
	h-2.646V8.15z M8.385,21.805H7.133v-3.058h1.251V21.805z M8.385,17.775H7.133v-2.924h1.251V17.775z M8.385,13.877H7.133v-2.92h1.251
	V13.877z M11.306,17.775H9.913v-2.924h1.393V17.775z M11.306,13.877H9.913v-2.92h1.393V13.877z M14.225,17.775h-1.392v-2.924h1.392
	V17.775z M14.225,13.877h-1.392v-2.92h1.392V13.877z M15.752,10.957h1.254v2.92h-1.254V10.957z M15.752,14.852h1.254v2.924h-1.254
	V14.852z M15.752,18.747h1.254v3.058h-1.254V18.747z"/>
<path d="M1.431,23.752h3.754V12.764H1.431V23.752z M2.681,14.433h1.391v3.2H2.681V14.433z M2.681,18.606h1.391v3.198H2.681V18.606z"
	/>
<path d="M18.955,23.752h3.615V12.764h-3.615V23.752z M21.457,21.805h-1.391v-3.198h1.391V21.805z M21.457,17.633h-1.391v-3.2h1.391
	V17.633z"/>
</svg>
