<?xml version="1.0" encoding="utf-8"?>
<!-- Generator: Adobe Illustrator 15.0.0, SVG Export Plug-In . SVG Version: 6.00 Build 0)  -->
<!DOCTYPE svg PUBLIC "-//W3C//DTD SVG 1.1//EN" "http://www.w3.org/Graphics/SVG/1.1/DTD/svg11.dtd">
<svg version="1.1" id="Layer_1" xmlns="http://www.w3.org/2000/svg" xmlns:xlink="http://www.w3.org/1999/xlink" x="0px" y="0px"
	 width="24px" height="24px" viewBox="0 0 24 24" enable-background="new 0 0 24 24" xml:space="preserve">
<path fill="#010101" d="M15.371,8.109l-3.372-0.98l-3.372,0.98v1.29H5.958v14.472H9.61v-4.5h1.827v4.5h1.125v-4.5h1.825v4.5h3.65
	V9.399h-2.666V8.109z M8.347,21.898H6.941v-3.086h1.406V21.898z M8.347,17.828H6.941v-2.951h1.406V17.828z M8.347,13.894H6.941
	v-2.951h1.406V13.894z M11.156,17.828H9.89v-2.951h1.266V17.828z M11.156,13.894H9.89v-2.951h1.266V13.894z M14.107,17.828h-1.407
	v-2.951h1.407V17.828z M14.107,13.894h-1.407v-2.951h1.407V13.894z M15.649,10.943h1.407v2.951h-1.407V10.943z M15.649,14.877h1.407
	v2.951h-1.407V14.877z M15.649,18.813h1.407v3.086h-1.407V18.813z"/>
<path fill="#010101" d="M1.324,23.871h3.792V12.772H1.324V23.871z M2.447,14.456H3.99v3.232H2.447V14.456z M2.447,18.667H3.99v3.231
	H2.447V18.667z"/>
<path fill="#010101" d="M18.884,23.871h3.793V12.772h-3.793V23.871z M20.006,14.456h1.405v3.232h-1.405V14.456z M20.006,18.667
	h1.405v3.231h-1.405V18.667z"/>
<path fill="#010101" d="M19.06,1.531h-0.459v2.67h0.459c0.272,0,0.452-0.106,0.605-0.291c0.156-0.183,0.199-0.438,0.199-0.732v-0.63
	c0-0.291-0.043-0.543-0.199-0.726C19.512,1.638,19.332,1.531,19.06,1.531"/>
<path fill="#010101" d="M21.967,0.128h-5.581c-0.388,0-0.703,0.314-0.703,0.698l-0.002,6.3l1.399-1.379h4.887
	c0.384,0,0.71-0.348,0.71-0.732V0.829C22.677,0.444,22.351,0.128,21.967,0.128 M20.709,3.179c0,0.464-0.162,0.847-0.461,1.14
	c-0.297,0.292-0.688,0.444-1.151,0.444h-1.338V0.97h1.338c0.463,0,0.854,0.151,1.151,0.444c0.299,0.296,0.461,0.68,0.461,1.14V3.179
	z"/>
</svg>
