<?xml version="1.0" encoding="utf-8"?>
<!-- Generator: Adobe Illustrator 15.0.0, SVG Export Plug-In . SVG Version: 6.00 Build 0)  -->
<!DOCTYPE svg PUBLIC "-//W3C//DTD SVG 1.1//EN" "http://www.w3.org/Graphics/SVG/1.1/DTD/svg11.dtd">
<svg version="1.1" id="Layer_1" xmlns="http://www.w3.org/2000/svg" xmlns:xlink="http://www.w3.org/1999/xlink" x="0px" y="0px"
	 width="24px" height="24px" viewBox="0 0 24 24" enable-background="new 0 0 24 24" xml:space="preserve">
<path d="M22.707,20.792V9.158h-0.934V7.619l-1.316-0.952l-1.32,0.952v1.539H18.67V6.986h-3.104V4.285L12,1.807L8.43,4.285v2.701
	H5.17v2.172H4.861V7.619L3.465,6.667L2.068,7.619v1.539H1.291v11.634H0.208v1.4h23.585v-1.4H22.707z M3.31,9.158H2.535V7.916H3.31
	V9.158z M3.776,7.916h0.619v1.242H3.776V7.916z M5.016,19.864h-1.24v-2.637h1.24V19.864z M5.016,16.606h-1.24v-2.793h1.24V16.606z
	 M5.016,13.348h-1.24v-2.794h1.24V13.348z M8.121,19.864H6.879v-2.637h1.242V19.864z M8.121,16.606H6.879v-2.793h1.242V16.606z
	 M8.121,13.348H6.879v-2.794h1.242V13.348z M11.069,19.864H9.826v-2.637h1.243V19.864z M11.069,16.606H9.826v-2.793h1.243V16.606z
	 M11.069,13.348H9.826v-2.794h1.243V13.348z M10.692,5.942c0-0.705,0.575-1.277,1.277-1.277c0.705,0,1.276,0.572,1.276,1.277
	c0,0.707-0.571,1.275-1.276,1.275C11.267,7.217,10.692,6.648,10.692,5.942 M14.172,19.864h-1.397v-2.637h1.397V19.864z
	 M14.172,16.606h-1.397v-2.793h1.397V16.606z M14.172,13.348h-1.397v-2.794h1.397V13.348z M17.119,19.864h-1.234v-2.637h1.234
	V19.864z M17.119,16.606h-1.234v-2.793h1.234V16.606z M17.119,13.348h-1.234v-2.794h1.234V13.348z M20.068,19.864h-1.24v-2.637h1.24
	V19.864z M20.068,16.606h-1.24v-2.793h1.24V16.606z M20.068,13.348h-1.24v-2.794h1.24V13.348z M20.225,9.158h-0.777V7.916h0.777
	V9.158z M21.311,9.158h-0.623V7.916h0.623V9.158z"/>
</svg>
