<?xml version="1.0" encoding="utf-8"?>
<!-- Generator: Adobe Illustrator 15.0.0, SVG Export Plug-In . SVG Version: 6.00 Build 0)  -->
<!DOCTYPE svg PUBLIC "-//W3C//DTD SVG 1.1//EN" "http://www.w3.org/Graphics/SVG/1.1/DTD/svg11.dtd">
<svg version="1.1" id="Layer_1" xmlns="http://www.w3.org/2000/svg" xmlns:xlink="http://www.w3.org/1999/xlink" x="0px" y="0px"
	 width="24px" height="24px" viewBox="0 0 24 24" enable-background="new 0 0 24 24" xml:space="preserve">
<path fill="#010101" d="M15.196,8.147l-3.266-0.97l-3.269,0.97v1.277H6.02v14.329h3.478V19.3h1.946v4.454h1.113V19.3h1.808v4.454
	h3.478V9.425h-2.646V8.147z M8.385,21.804H6.993v-3.06h1.392V21.804z M8.385,17.772H6.993v-2.924h1.392V17.772z M8.385,13.876H6.993
	v-2.921h1.392V13.876z M11.166,17.772H9.912v-2.924h1.254V17.772z M11.166,13.876H9.912v-2.921h1.254V13.876z M14.087,17.772h-1.392
	v-2.924h1.392V17.772z M14.087,13.876h-1.392v-2.921h1.392V13.876z M15.614,10.955h1.253v2.921h-1.253V10.955z M15.614,14.849h1.253
	v2.924h-1.253V14.849z M15.614,18.744h1.253v3.06h-1.253V18.744z"/>
<path fill="#010101" d="M1.431,23.754h3.753V12.762H1.431V23.754z M2.543,14.433h1.528v3.198H2.543V14.433z M2.543,18.604h1.528v3.2
	H2.543V18.604z"/>
<path fill="#010101" d="M18.815,23.754h3.754V12.762h-3.754V23.754z M19.929,14.433h1.391v3.198h-1.391V14.433z M19.929,18.604
	h1.391v3.2h-1.391V18.604z"/>
<polygon fill="#010101" points="19.061,1.913 18.595,3.445 19.537,3.445 19.074,1.913 "/>
<path fill="#010101" d="M21.829,0.246h-5.528c-0.379,0-0.688,0.313-0.688,0.692l-0.003,6.237L16.99,5.81h4.839
	c0.382,0,0.74-0.345,0.74-0.725V0.939C22.569,0.559,22.211,0.246,21.829,0.246 M19.977,4.835L19.721,4H18.41l-0.255,0.835h-0.758
	l1.284-3.755h0.77l1.281,3.755H19.977z"/>
</svg>
