<?xml version="1.0" encoding="utf-8"?>
<!-- Generator: Adobe Illustrator 15.0.0, SVG Export Plug-In . SVG Version: 6.00 Build 0)  -->
<!DOCTYPE svg PUBLIC "-//W3C//DTD SVG 1.1//EN" "http://www.w3.org/Graphics/SVG/1.1/DTD/svg11.dtd">
<svg version="1.1" id="Layer_1" xmlns="http://www.w3.org/2000/svg" xmlns:xlink="http://www.w3.org/1999/xlink" x="0px" y="0px"
	 width="24px" height="24px" viewBox="0 0 24 24" enable-background="new 0 0 24 24" xml:space="preserve">
<path fill="#010101" d="M20.564,7.755h-3.287V3.41H2.346c-1.181,0-2.137,1.034-2.137,2.212v11.755h2.137
	c0,1.859,1.437,3.214,3.214,3.214c1.778,0,3.217-1.354,3.217-3.214h6.432c0,1.859,1.434,3.214,3.211,3.214
	c1.781,0,3.217-1.354,3.217-3.214h2.156v-5.323L20.564,7.755z M5.56,19.021c-0.89,0-1.607-0.721-1.607-1.609
	c0-0.892,0.718-1.607,1.607-1.607s1.607,0.716,1.607,1.607C7.167,18.301,6.45,19.021,5.56,19.021 M18.42,19.021
	c-0.889,0-1.605-0.721-1.605-1.609c0-0.892,0.717-1.607,1.605-1.607c0.893,0,1.611,0.716,1.611,1.607
	C20.031,18.301,19.313,19.021,18.42,19.021 M17.277,12.099V9.306h2.754l2.098,2.793H17.277z"/>
</svg>
