<?xml version="1.0" encoding="utf-8"?>
<!-- Generator: Adobe Illustrator 15.0.0, SVG Export Plug-In . SVG Version: 6.00 Build 0)  -->
<!DOCTYPE svg PUBLIC "-//W3C//DTD SVG 1.1//EN" "http://www.w3.org/Graphics/SVG/1.1/DTD/svg11.dtd">
<svg version="1.1" id="Layer_1" xmlns="http://www.w3.org/2000/svg" xmlns:xlink="http://www.w3.org/1999/xlink" x="0px" y="0px"
	 width="24px" height="24px" viewBox="0 0 24 24" enable-background="new 0 0 24 24" xml:space="preserve">
<polygon fill="#010101" points="19.004,2.006 18.539,3.397 19.48,3.397 19.02,2.006 "/>
<path fill="#010101" d="M21.775,0.197h-5.531c-0.379,0-0.688,0.345-0.688,0.723l-0.004,6.222l1.385-1.38h4.838
	c0.381,0,0.693-0.282,0.693-0.663V0.952C22.469,0.573,22.156,0.197,21.775,0.197 M19.922,4.788l-0.256-0.696h-1.313L18.1,4.788
	h-0.758l1.287-3.755h0.768l1.281,3.755H19.922z"/>
<path fill="#010101" d="M16.766,12.159V8.403H3.251c-1.057,0-1.922,0.838-1.922,1.895v10.626h1.922c0,1.525,1.289,2.878,2.883,2.878
	s2.883-1.353,2.883-2.878h5.76c0,1.525,1.291,2.878,2.883,2.878c1.598,0,2.885-1.353,2.885-2.878h1.924v-4.86l-2.887-3.904H16.766z
	 M6.134,22.308c-0.797,0-1.442-0.647-1.442-1.442c0-0.798,0.646-1.439,1.442-1.439c0.796,0,1.441,0.642,1.441,1.439
	C7.575,21.66,6.931,22.308,6.134,22.308 M17.66,22.308c-0.795,0-1.441-0.647-1.441-1.442c0-0.798,0.646-1.439,1.441-1.439
	c0.799,0,1.443,0.642,1.443,1.439C19.104,21.66,18.459,22.308,17.66,22.308 M16.766,16.054v-2.364h2.338l1.883,2.364H16.766z"/>
</svg>
