<?xml version="1.0" encoding="utf-8"?>
<!-- Generator: Adobe Illustrator 15.0.0, SVG Export Plug-In . SVG Version: 6.00 Build 0)  -->
<!DOCTYPE svg PUBLIC "-//W3C//DTD SVG 1.1//EN" "http://www.w3.org/Graphics/SVG/1.1/DTD/svg11.dtd">
<svg version="1.1" id="Layer_1" xmlns="http://www.w3.org/2000/svg" xmlns:xlink="http://www.w3.org/1999/xlink" x="0px" y="0px"
	 width="24px" height="24px" viewBox="0 0 24 24" enable-background="new 0 0 24 24" xml:space="preserve">
<path fill="#010101" d="M16.729,12.16V8.404H3.325c-1.055,0-1.895,0.837-1.895,1.893v10.627h1.895c0,1.526,1.289,2.879,2.884,2.879
	c1.594,0,2.882-1.353,2.882-2.879h5.758c0,1.526,1.292,2.879,2.887,2.879c1.596,0,2.883-1.353,2.883-2.879h1.952v-4.862
	l-2.912-3.902H16.729z M6.209,22.309c-0.798,0-1.443-0.647-1.443-1.443c0-0.798,0.645-1.44,1.443-1.44
	c0.796,0,1.441,0.643,1.441,1.44C7.65,21.661,7.005,22.309,6.209,22.309 M17.735,22.309c-0.797,0-1.44-0.647-1.44-1.443
	c0-0.798,0.644-1.44,1.44-1.44s1.44,0.643,1.44,1.44C19.176,21.661,18.532,22.309,17.735,22.309 M16.729,16.055V13.69h2.447
	l1.885,2.364H16.729z"/>
<path fill="#010101" d="M18.969,1.729h-0.433v2.503h0.433c0.271,0,0.459-0.076,0.612-0.257c0.151-0.181,0.206-0.403,0.206-0.696
	V2.657c0-0.292-0.055-0.502-0.206-0.682C19.428,1.794,19.239,1.729,18.969,1.729"/>
<path fill="#010101" d="M21.851,0.198h-5.529c-0.382,0-0.69,0.344-0.69,0.722l-0.002,6.223l1.384-1.381h4.838
	c0.377,0,0.72-0.282,0.72-0.662V0.953C22.57,0.572,22.228,0.198,21.851,0.198 M20.623,3.281c0,0.458-0.169,0.808-0.461,1.097
	c-0.299,0.29-0.695,0.41-1.154,0.41h-1.306V1.033h1.306c0.459,0,0.855,0.18,1.154,0.472c0.292,0.292,0.461,0.699,0.461,1.158V3.281z
	"/>
</svg>
