<?xml version="1.0" encoding="utf-8"?>
<!-- Generator: Adobe Illustrator 15.0.0, SVG Export Plug-In . SVG Version: 6.00 Build 0)  -->
<!DOCTYPE svg PUBLIC "-//W3C//DTD SVG 1.1//EN" "http://www.w3.org/Graphics/SVG/1.1/DTD/svg11.dtd">
<svg version="1.1" id="Layer_1" xmlns="http://www.w3.org/2000/svg" xmlns:xlink="http://www.w3.org/1999/xlink" x="0px" y="0px"
	 width="24px" height="24px" viewBox="0 0 24 24" enable-background="new 0 0 24 24" xml:space="preserve">
<path fill="#010101" d="M16.729,12.16V8.404H3.321c-1.058,0-1.891,0.837-1.891,1.894v10.626h1.891c0,1.528,1.287,2.878,2.881,2.878
	c1.596,0,2.881-1.35,2.881-2.878h5.769c0,1.528,1.283,2.878,2.878,2.878c1.594,0,2.881-1.35,2.881-2.878h1.958v-4.862l-2.915-3.901
	H16.729z M6.203,22.308c-0.797,0-1.44-0.645-1.44-1.439c0-0.8,0.644-1.443,1.44-1.443c0.797,0,1.441,0.644,1.441,1.443
	C7.644,21.663,7,22.308,6.203,22.308 M17.73,22.308c-0.798,0-1.441-0.645-1.441-1.439c0-0.8,0.644-1.443,1.441-1.443
	c0.799,0,1.44,0.644,1.44,1.443C19.171,21.663,18.529,22.308,17.73,22.308 M16.729,16.055v-2.361h2.441l1.886,2.361H16.729z"/>
<path fill="#010101" d="M21.844,0.198h-5.528c-0.379,0-0.689,0.343-0.689,0.723l-0.003,6.223l1.382-1.381h4.839
	c0.381,0,0.726-0.282,0.726-0.661V0.953C22.569,0.574,22.225,0.198,21.844,0.198 M20.504,2.425h-0.71
	c0-0.279-0.057-0.434-0.172-0.561c-0.113-0.129-0.292-0.197-0.535-0.197c-0.219,0-0.38,0.087-0.509,0.264
	c-0.127,0.176-0.181,0.399-0.181,0.673V3.33c0,0.279,0.058,0.505,0.193,0.683c0.132,0.177,0.311,0.266,0.539,0.266
	s0.394-0.068,0.502-0.191c0.108-0.122,0.16-0.272,0.16-0.551h0.706l0.006,0.022c0.007,0.391-0.112,0.704-0.357,0.934
	c-0.247,0.23-0.586,0.346-1.022,0.346c-0.438,0-0.766-0.139-1.038-0.42c-0.273-0.282-0.384-0.643-0.384-1.087V2.609
	c0-0.439,0.107-0.8,0.372-1.083c0.269-0.283,0.6-0.425,1.026-0.425c0.448,0,0.791,0.116,1.047,0.346
	C20.398,1.678,20.521,2,20.512,2.397L20.504,2.425z"/>
</svg>
